<?xml version="1.0" encoding="utf-8"?>
<!-- Generator: Adobe Illustrator 23.0.1, SVG Export Plug-In . SVG Version: 6.00 Build 0)  -->
<svg version="1.1" id="Ebene_1" xmlns="http://www.w3.org/2000/svg" xmlns:xlink="http://www.w3.org/1999/xlink" x="0px" y="0px"
	 viewBox="0 0 740 378.9" style="enable-background:new 0 0 740 378.9;" xml:space="preserve">
<style type="text/css">
	.st0{stroke:#000000;stroke-width:3;stroke-miterlimit:10;}
</style>
<g>
	<path class="st0" d="M177.6,62.3c19.8-5.2,31.8-7.8,35.9-7.8c5.2,0,6.5,13.5,3.9,40.6c-2.6,27.1-0.8,49,5.5,65.6
		c6.2,16.7,14.1,29.7,23.4,39.1s21.3,15.9,35.9,19.5c14.6,3.7,19.8,0.3,15.6-10.2c-4.2-10.4-5.2-25.5-3.1-45.3
		c2.1-19.8,0.8-24.5-3.9-14.1c-4.7,10.4-8.6,19-11.7,25.8c-3.1,6.8-6.8,10.2-10.9,10.2c-4.2,0-10.4-4.4-18.8-13.3
		c-8.3-8.8-13.5-24-15.6-45.3c-2.1-21.3,0.2-38,7-50c6.8-12,12.7-19.8,18-23.4c5.2-3.6,4.9-7.5-0.8-11.7c-5.7-4.2-11.7-7.8-18-10.9
		s-12-2.3-17.2,2.3c-5.2,4.7-14.3,8.9-27.3,12.5c-13,3.7-21.9,4.7-26.6,3.1s-9.1-2.3-13.3-2.3c-4.2,0-4.7,3.1-1.6,9.4
		s5.2,14.3,6.2,24.2c1,9.9,0.8,23.7-0.8,41.4c-1.6,17.7-6.2,34.4-14.1,50s-20.3,28.7-37.5,39.1c-17.2,10.4-15.6,12.5,4.7,6.2
		s35.7-17.2,46.1-32.8c10.4-15.6,16.7-36.5,18.8-62.5l18.8,18.7c7.3,7.3,12.5,6.8,15.6-1.6c3.1-8.3,0.5-14.6-7.8-18.7
		c-8.3-4.2-17.2-6.2-26.6-6.2C178.6,98.3,178.6,81.1,177.6,62.3L177.6,62.3L177.6,62.3z M118.2,307.7c-14.6-10.4-26-23.9-34.4-40.6
		c-8.3-16.7-10.4-15.1-6.2,4.7c4.2,19.8,14.3,37,30.5,51.6c16.1,14.6,43.8,22.4,82.8,23.4c39.1,1,66.9-3.1,83.6-12.5
		c16.6-9.4,18.2-16.1,4.7-20.3c-13.5-4.2-28.7-16.1-45.3-35.9c-16.7-19.8-21.4-22.4-14.1-7.8l17.2,34.4c4.2,8.3,2.1,14.1-6.2,17.2
		c-8.3,3.1-25.3,4.2-50.8,3.1C154.4,323.8,133.8,318.1,118.2,307.7L118.2,307.7L118.2,307.7z M83.8,74.8
		c16.7-3.1,28.6-6.5,35.9-10.2c7.3-3.6,8.1-7.3,2.3-10.9c-5.7-3.6-11.7-4.4-18-2.3c-6.2,2.1-15.6,4.7-28.1,7.8s-23.4,5.5-32.8,7
		s-10.9,4.2-4.7,7.8c6.2,3.7,12.2,5.2,18,4.7c5.7-0.5,10.2,1.8,13.3,7v73.4c-27.1,13.5-45.1,20.6-53.9,21.1
		c-8.9,0.5-9.6,3.7-2.3,9.4c7.3,5.7,13.5,10.2,18.7,13.3c5.2,3.1,10.2,1.6,14.8-4.7s15.6-15.4,32.8-27.3
		c17.2-12,33.6-23.7,49.2-35.2c15.6-11.5,18.2-15.1,7.8-10.9c-10.4,4.2-27.1,12.5-50,25c1-35.4,3.4-54.7,7-57.8
		C97.6,88.9,94.2,83.2,83.8,74.8L83.8,74.8L83.8,74.8z M288.5,240.5c-10.4-2.1-19.8-3.4-28.1-3.9c-8.3-0.5-6.5,4.2,5.5,14.1
		c12,9.9,24.7,19.5,38.3,28.9c13.5,9.4,21.1,9.4,22.7,0s-1.8-18-10.2-25.8C308.3,245.9,298.9,241.5,288.5,240.5L288.5,240.5
		L288.5,240.5z M33.8,253c-7.3,14.6-13.8,26-19.5,34.4c-5.7,8.3-6.2,18-1.6,28.9s11.7,8.1,21.1-8.6c9.4-16.6,13.5-33.8,12.5-51.6
		C45.3,238.4,41.1,237.3,33.8,253L33.8,253L33.8,253z M158.8,228c-6.2-2.1-13.3-3.4-21.1-3.9c-7.8-0.5-6.8,4.7,3.1,15.6
		c9.9,10.9,18.5,18.5,25.8,22.7c7.3,4.2,12.2,2.3,14.8-5.5c2.6-7.8,1.3-14.3-3.9-19.5C172.3,232.1,166.1,229,158.8,228L158.8,228
		L158.8,228z M552.6,187.3l14.1-18.8c3.1-4.2,3.1-7.8,0-10.9s-8.1-5.7-14.8-7.8c-6.8-2.1-9.4-0.8-7.8,3.9s-1.6,12.3-9.4,22.7
		c-7.8,10.4-14.8,19.3-21.1,26.6c-6.3,7.3-12.8,13.8-19.5,19.5c-6.8,5.7-10.2,9.1-10.2,10.2c0,1,4.2,0,12.5-3.1
		c8.3-3.1,23.4-14.1,45.3-32.8c4.2,2.1,6.2,14.6,6.2,37.5c0,22.9-0.5,42.2-1.6,57.8c-1,15.6-3.4,28.1-7,37.5
		c-3.7,9.4-2.6,19.8,3.1,31.2c5.7,11.5,9.9,14.6,12.5,9.4c2.6-5.2,4.4-11.7,5.5-19.5c1-7.8,1.6-23.7,1.6-47.7
		c12.5,1,27.9,0.5,46.1-1.6c18.2-2.1,34.4-3.6,48.4-4.7c14.1-1,29.9-1.6,47.7-1.6c18.8,0,28.6-1.8,29.7-5.5c1-3.6-2.1-7.3-9.4-10.9
		c-7.3-3.6-16.4-4.7-27.3-3.1s-27.9,3.9-50.8,7v-23.4c28.1-4.2,43.8-8.3,46.9-12.5c3.1-4.2,1.8-7.5-3.9-10.2
		c-5.7-2.6-20.1-0.8-43,5.5v-25c21.9-3.1,35.2-6.8,39.8-10.9c4.7-4.2,4.4-7-0.8-8.6c-5.2-1.6-18.2-0.8-39.1,2.3v-23.4
		c28.1-5.2,46.1-9.1,53.9-11.7c7.8-2.6,9.4-5.7,4.7-9.4c-4.7-3.6-10.2-5.5-16.4-5.5s-21.4,3.1-45.3,9.4c1-7.3,0-12.2-3.1-14.8
		c-3.1-2.6-10.2-4.9-21.1-7c-10.9-2.1-14.1-0.2-9.4,5.5c4.7,5.7,11.2,12.3,19.5,19.5c-17.7,4.2-32.6,7.3-44.5,9.4
		c-12,2.1-14.3,4.4-7,7c7.3,2.6,24.5,2.9,51.6,0.8v25c-17.7,4.2-31,7-39.8,8.6c-8.9,1.6-9.1,3.9-0.8,7c8.3,3.1,22.4,3.1,42.2,0v25
		c-18.8,4.2-32.6,6.5-41.4,7c-8.9,0.5-10.4,2.3-4.7,5.5c5.7,3.1,12.7,4.7,21.1,4.7c9.4,0,17.7-0.5,25-1.6v23.4
		c-27.1,2.1-50,5.7-68.8,10.9c0-24-0.3-41.4-0.8-52.3c-0.5-10.9-0.8-21.6-0.8-32C560.4,200.4,557.8,192.6,552.6,187.3L552.6,187.3
		L552.6,187.3z M676,123.3c8.3,11.5,14.3,13.3,18,5.5c3.6-7.8,6.8-19,9.4-33.6c2.6-14.6,4.7-26.3,6.2-35.2
		c1.6-8.8,3.1-15.6,4.7-20.3s3.9-8.6,7-11.7s1-6.8-6.2-10.9c-7.3-4.2-13.8-7.3-19.5-9.4c-5.7-2.1-11.2-1.6-16.4,1.6
		c-5.2,3.1-12,5.7-20.3,7.8c-8.3,2.1-15.1,3.1-20.3,3.1c-5.2,0-10.4-0.5-15.6-1.6c-5.2-1-6.5,0.8-3.9,5.5c2.6,4.7,4.9,11.2,7,19.5
		c2.1,8.3,3.1,17.2,3.1,26.6V103c0,11.5,0.8,19.8,2.3,25c1.6,5.2,3.4,6.8,5.5,4.7c2.1-2.1,3.6-5.2,4.7-9.4H676L676,123.3z
		 M541.6,143.6c11.5-1,22.4-2.6,32.8-4.7c7.3,9.4,12.2,12.3,14.8,8.6c2.6-3.6,4.7-9.4,6.2-17.2s2.3-21.1,2.3-39.8s0.8-30.7,2.3-35.9
		c1.6-5.2,3.4-9.9,5.5-14.1c2.1-4.2,1-7.8-3.1-10.9c-4.2-3.1-9.1-5.7-14.8-7.8c-5.7-2.1-10.2-1.8-13.3,0.8
		c-3.1,2.6-8.3,4.7-15.6,6.2c-7.3,1.6-13.8,3.1-19.5,4.7c-5.7,1.6-12.5,2.1-20.3,1.6c-7.8-0.5-9.4,2.3-4.7,8.6
		c4.7,6.2,7.8,13.3,9.4,21.1s2.9,19.3,3.9,34.4c1,15.1,1.3,25.8,0.8,32c-0.5,6.2,0.8,12.8,3.9,19.5
		C535.4,157.4,538.5,155.1,541.6,143.6L541.6,143.6L541.6,143.6z M472.9,103V67c0-13.5,1.8-22.1,5.5-25.8c3.6-3.6,2.6-7.5-3.1-11.7
		c-5.7-4.2-13.5-8.1-23.4-11.7c-9.9-3.6-13-2.3-9.4,3.9c3.6,6.2,6.5,14.6,8.6,25c2.1,10.4,3.1,28.7,3.1,54.7c0,25-0.3,49.5-0.8,73.4
		c-0.5,24-1.6,45.8-3.1,65.6c-1.6,19.8-3.7,33.6-6.2,41.4c-2.6,7.8-2.6,17.5,0,28.9c2.6,11.5,5.5,17.7,8.6,18.8
		c3.1,1,6.5-4.4,10.2-16.4c3.6-12,5.7-33.1,6.2-63.3c0.5-30.2,0.8-53.1,0.8-68.8s0.5-39.1,1.6-70.3c10.4,12.5,18.2,20.3,23.4,23.4
		c5.2,3.1,9.1,2.1,11.7-3.1c2.6-5.2,1.3-10.4-3.9-15.6C497.3,110.3,487.5,106.1,472.9,103L472.9,103L472.9,103z M641.6,28
		c15.6-3.1,26.8-4.9,33.6-5.5c6.8-0.5,10.7,0.5,11.7,3.1c1,2.6,1.6,8.1,1.6,16.4c0,8.3-2.1,31.8-6.2,70.3c-14.6,0-28.7,1-42.2,3.1
		v-25c20.8,0,32.5-1,35.2-3.1c2.6-2.1,2.1-4.4-1.6-7c-3.7-2.6-14.8-2.3-33.6,0.8V60.8c14.6,0,25.2-1,32-3.1c6.8-2.1,8.1-4.4,3.9-7
		c-4.2-2.6-15.6-1.8-34.4,2.3V28L641.6,28z M533.8,45.2c20.8-6.2,33.1-9.6,36.7-10.2c3.6-0.5,6.2,1.6,7.8,6.2s1.8,34.1,0.8,88.3
		c-9.4,0-22.4,2.1-39.1,6.2c0-8.3-0.5-16.7-1.6-25c16.7-1,26.6-2.9,29.7-5.5c3.1-2.6,3.6-5.2,1.6-7.8c-2.1-2.6-12.5-1.3-31.2,3.9
		c0-7.3-0.5-15.6-1.6-25c17.7-1,28.4-3.1,32-6.2c3.6-3.1,3.6-5.7,0-7.8c-3.7-2.1-14.8,0-33.6,6.2C535.4,59.2,534.8,51.4,533.8,45.2
		L533.8,45.2L533.8,45.2z M416.6,123.3c-5.2-11.5-8.1-13.5-8.6-6.2c-0.5,7.3-3.9,18.7-10.2,34.4s-8.9,27.1-7.8,34.4
		c1,7.3,3.4,12,7,14.1c3.6,2.1,6.8,1,9.4-3.1c2.6-4.2,6.5-14.8,11.7-32C423.4,147.5,422.9,133.7,416.6,123.3L416.6,123.3
		L416.6,123.3z"/>
</g>
</svg>
