<svg version="1.1" id="Layer_1" xmlns="http://www.w3.org/2000/svg" x="0" y="0" viewBox="0 0 123.6 49.9" xml:space="preserve"><style>.st0{fill:#010101;stroke:#010101;stroke-width:.1552;stroke-miterlimit:282}</style><path class="st0" d="M2.5 23.1c.2 1.2 1.3 2 2.5 1.9l15.5-2.1c.3 1.3 1.1 2.2 1.8 2.1.7-.1 1.2-1.2 1.2-2.6l16.1-2.2c.3 1 .5 2.1 1.3 2.9l7.3-1.1c.6 1.4 4.8 0 7.7-.5.3-.4 2.4.3 2.7 2 .2 2 .7 4.1 2.6 6 1.2.9 10 2.3 17.3-.5.8 0 1.5.1 2.1.5.6-.5 1.2-1 1.8-1.4l-4.8-11.2-1.4-1 .4-.6 1.4 1.1.9-.1.1.7-.4.1 4.5 10.6c.2-.1.3-.2.5-.3 11.2 1 11.6 10.6 12.7 19.7l25-4.7c-8.3-6.7-13.8-19.6-24-24.3.6-1.9 2.5-3.3 5.3-4l-.2-.7-4.5-.1c-1.3-.6-2.5-1.4-3.3-5.1l1.9-2.6c0 .1.2-2.1-1.9-1.5l-1.4 1.1-1.2-1 .6-.6-.7-1.4c-.3-.4-.7-.4-1.1.1l.1.8c-.9 0-1.8.2-2.6.7l.1-.1-.2-.6-1.9.3v.5c-1.2.4-2.7.3-3.5 1.4L40 11.5c-.4 0-.7.1-.9.2l-21.8 3v-.4c-.2-1.6-2-2.7-3.9-2.4-1.9.3-3.3 1.8-3.1 3.4 0 .1.1.3.1.4l-6.4.9c-1.3.2-2.2 1.4-2 2.6l.5 3.9zm65.7-9.4l.4.2-.1.2-.5-.2-.5-1.2-.1-.9.8 1.9zm-.3-3.6l1.4 3.3.4.2-.1.2-.5-.2-1.4-3.4.2-.1zm2.4 3.1l.5.4-.2.2-.5-.5-1.6-3.5.2-.1 1.6 3.5zM70 9.3l1.6 3.8.6.4-.1.2-.7-.4-1.6-3.9.2-.1zm2.7 3.6l.5.4-.2.2-.5-.5-1.6-3.5.2-.1 1.6 3.5zM72.3 9l1.6 3.8.6.4-.1.2-.7-.4-1.6-3.9.2-.1zm2.6 3.5l.5.4-.2.2-.5-.5-1.6-3.5.2-.1 1.6 3.5zm20.6 15.7c-.3-1.9 1-3.8 2.9-4.1 1.9-.3 3.8 1 4.1 2.9.3 1.9-1 3.8-2.9 4.1-2 .3-3.8-1-4.1-2.9zM80.4 11.9L78.8 8h.2l1.6 3.8.6.4-.1.2-.7-.5zm-1.3.1l-1.6-3.5.2-.1 1.6 3.5.5.4-.2.2-.5-.5zm-2.6-3.6l.2-.1 1.6 3.8.6.4-.1.2-.7-.4-1.6-3.9zm.4 4l-1.6-3.5.2-.1 1.6 3.5.5.4-.2.2-.5-.5zm-2.6-3.7l.2-.1 1.6 3.8.6.4-.1.2-.7-.4-1.6-3.9zM61.9 21.4c.9-.5 1.9-.9 3-1.1 1.6-.3 2.9-.1 3.3 0 1.2 2.8.9 5-.9 6.9l.3.4c2.1-1.3 2.4-2.8 2.7-4.5.2-1 .3-2 .9-3V20l2.4-.3c2.9.7 4.1 2.9 4.1 4.8.1 1.9-.9 3.5-2.4 4-1 .3-2 .6-3 .8-5.2.9-9.4-.4-10.3-1-3-3-.8-5.8-.1-6.9z"/><path class="st0" d="M98.7 25.9c.9-.2 1.9.5 2 1.4.2.9-.5 1.8-1.4 2-1 .2-1.9-.5-2-1.4-.2-1 .4-1.9 1.4-2z"/></svg>