<?xml version="1.0" encoding="utf-8"?>
<!-- Generator: Adobe Illustrator 23.0.1, SVG Export Plug-In . SVG Version: 6.00 Build 0)  -->
<svg version="1.1" id="Layer_1" xmlns="http://www.w3.org/2000/svg" xmlns:xlink="http://www.w3.org/1999/xlink" x="0px" y="0px"
	 viewBox="0 0 123.6 49.9" style="enable-background:new 0 0 123.6 49.9;" xml:space="preserve">
<style type="text/css">
	.st0{fill:#010101;stroke:#010101;stroke-width:0.1552;stroke-miterlimit:282;}
</style>
<g>
	<path class="st0" d="M2.5,23.1C2.7,24.3,3.8,25.1,5,25l15.5-2.1c0.3,1.3,1.1,2.2,1.8,2.1c0.7-0.1,1.2-1.2,1.2-2.6l16.1-2.2
		c0.3,1,0.5,2.1,1.3,2.9l7.3-1.1c0.6,1.4,4.8,0,7.7-0.5c0.3-0.4,2.4,0.3,2.7,2c0.2,2,0.7,4.1,2.6,6c1.2,0.9,10,2.3,17.3-0.5
		c0.8,0,1.5,0.1,2.1,0.5c0.6-0.5,1.2-1,1.8-1.4l-4.8-11.2l-1.4-1l0.4-0.6l1.4,1.1l0.9-0.1l0.1,0.7l-0.4,0.1l4.5,10.6
		c0.2-0.1,0.3-0.2,0.5-0.3C94.8,28.4,95.2,38,96.3,47.1l25-4.7c-8.3-6.7-13.8-19.6-24-24.3c0.6-1.9,2.5-3.3,5.3-4l-0.2-0.7l-4.5-0.1
		c-1.3-0.6-2.5-1.4-3.3-5.1l1.9-2.6c0,0.1,0.2-2.1-1.9-1.5l-1.4,1.1L92,4.2l0.6-0.6l-0.7-1.4c-0.3-0.4-0.7-0.4-1.1,0.1l0.1,0.8
		c-0.9,0-1.8,0.2-2.6,0.7l0.1-0.1l-0.2-0.6l-1.9,0.3l0,0.5c-1.2,0.4-2.7,0.3-3.5,1.4l-42.8,6.2c-0.4,0-0.7,0.1-0.9,0.2l-21.8,3
		c0-0.1,0-0.3,0-0.4c-0.2-1.6-2-2.7-3.9-2.4c-1.9,0.3-3.3,1.8-3.1,3.4c0,0.1,0.1,0.3,0.1,0.4l-6.4,0.9C2.7,16.8,1.8,18,2,19.2
		L2.5,23.1z M68.2,13.7l0.4,0.2l-0.1,0.2L68,13.9l-0.5-1.2l-0.1-0.9L68.2,13.7z M67.9,10.1l1.4,3.3l0.4,0.2l-0.1,0.2l-0.5-0.2
		l-1.4-3.4L67.9,10.1z M70.3,13.2l0.5,0.4l-0.2,0.2l-0.5-0.5l-1.6-3.5l0.2-0.1L70.3,13.2z M70,9.3l1.6,3.8l0.6,0.4l-0.1,0.2
		l-0.7-0.4l-1.6-3.9L70,9.3z M72.7,12.9l0.5,0.4L73,13.5L72.5,13l-1.6-3.5l0.2-0.1L72.7,12.9z M72.3,9l1.6,3.8l0.6,0.4l-0.1,0.2
		l-0.7-0.4l-1.6-3.9L72.3,9z M74.9,12.5l0.5,0.4l-0.2,0.2l-0.5-0.5l-1.6-3.5L73.3,9L74.9,12.5z M95.5,28.2c-0.3-1.9,1-3.8,2.9-4.1
		c1.9-0.3,3.8,1,4.1,2.9c0.3,1.9-1,3.8-2.9,4.1C97.6,31.4,95.8,30.1,95.5,28.2z M80.4,11.9l-1.6-3.9L79,8l1.6,3.8l0.6,0.4l-0.1,0.2
		L80.4,11.9z M79.1,12l-1.6-3.5l0.2-0.1l1.6,3.5l0.5,0.4l-0.2,0.2L79.1,12z M76.5,8.4l0.2-0.1l1.6,3.8l0.6,0.4l-0.1,0.2l-0.7-0.4
		L76.5,8.4z M76.9,12.4l-1.6-3.5l0.2-0.1l1.6,3.5l0.5,0.4l-0.2,0.2L76.9,12.4z M74.3,8.7l0.2-0.1l1.6,3.8l0.6,0.4L76.6,13l-0.7-0.4
		L74.3,8.7z M61.9,21.4L61.9,21.4L61.9,21.4c0.9-0.5,1.9-0.9,3-1.1c1.6-0.3,2.9-0.1,3.3,0l0,0l0,0c1.2,2.8,0.9,5-0.9,6.9l0.3,0.4
		c2.1-1.3,2.4-2.8,2.7-4.5c0.2-1,0.3-2,0.9-3l0-0.1l2.4-0.3l0,0c2.9,0.7,4.1,2.9,4.1,4.8c0.1,1.9-0.9,3.5-2.4,4c-1,0.3-2,0.6-3,0.8
		l0,0c-5.2,0.9-9.4-0.4-10.3-1l0,0C59,25.3,61.2,22.5,61.9,21.4z"/>
	<path class="st0" d="M98.7,25.9c0.9-0.2,1.9,0.5,2,1.4c0.2,0.9-0.5,1.8-1.4,2c-1,0.2-1.9-0.5-2-1.4C97.1,26.9,97.7,26,98.7,25.9z"
		/>
</g>
</svg>
