<svg xmlns="http://www.w3.org/2000/svg" viewBox="0 0 657.3 630.3"><path d="M631 516.6c9.7-104.2-27.5-146.7-48.4-203.2-20.8-56.6-113.2-60.3-113.2-73.7s-24.6-23.1-24.6-23.1l-5.2-.7c-5.2-.7 2.2-48.4 2.2-48.4l4.5 2.2c4.5 2.2 16.4-21.6 16.4-21.6l1.9-18.6c1.9-18.6-11.6-12.7-11.6-12.7s17.1-29.8 9.7-55.1c-7.4-25.3-36.5-42.4-36.5-42.4-35-35.7-95.3 4.5-95.3 4.5-36.5 17.1-15.8 81.3-17.9 83.4-6 6-51.4 17.1-51.4 17.1l-63.3 30.5-13.3-12.6-98.3 76.7c-84.9 51.4-81.9 128-81.9 128 35 69.2 216.6 80.4 216.6 80.4l-10.4 3c-10.4 3 .7 94.5 5.2 107.2 4.5 12.7-5.2 87.1-5.2 87.1h323.8l2.2-54.3 13.4 54.3h101.2l-20.6-108zm-302.7-297c-7.4.7-11.2 18.6-11.2 18.6-22.3.7-40.2 25.3-40.2 25.3h-61.8c-8.2 11.2-54.7 10.4-54.7 10.4 21.6-3 13-32 13-32 13.4-1.5 53.6-41.7 53.6-41.7h15l19.4-20.1c29-9.7 23.1-27.5 23.1-27.5l21.6-11.2c-4.5 8.9 12.7 23.8 12.7 23.8-2.2 4.5 9.7 30.5 9.7 30.5v23.9z"/></svg>