<svg version="1.1" id="Layer_1" xmlns="http://www.w3.org/2000/svg" x="0" y="0" viewBox="0 0 159.2 99.5" xml:space="preserve"><style>.st0{fill:#010101;stroke:#010101;stroke-width:.1552;stroke-miterlimit:282}</style><path class="st0" d="M154.5 86.2l-.7 1.7-.9-2.1-.9 2.1-.9-2.1-.9 2.1-.9-2.1-.9 2.1-.9-2.1-.9 2.1-.9-2.1-.9 2.1-.9-2.1-.9 2.1-.9-2.1-.9 2.1-.9-2.1-.9 2.1-.9-2.1-.9 2.1-.9-2.1-.9 2.1-.9-2.1-.9 2.1-.9-2.1H154c-9-8.9-14.4-23.9-20.2-38.7l-.4 1-1.1-2.5-1.1 2.5-1.1-2.5-1.1 2.5-1.1-2.5-.9 2.4-1.1-2.5-1.1 2.5-1.1-2.5-1.1 2.5-1.1-2.5-1.1 2.5-1.1-2.5-1.1 2.5-1.1-2.5L116 48l-1.1-2.5-1.1 2.5-.8-1.9c-5.8 13.9-11.4 27.6-20.5 39.2h20.8l-.9 2.1-.9-2.1-.9 2.1-.9-2.1-.9 2.1-.9-2.1-.9 2.1-.9-2.1-.9 2.1-.9-2.1-.9 2.1-.9-2.1-.9 2.1-.9-2.1-.9 2.1-.9-2.1-.9 2.1-.9-2.1-.9 2.1-.9-2.1-.9 2.1-.9-2.1-.9 2.1-.3-1.4c-.8.9-1.5 1.8-2.3 2.7h22l11.2-26.4 11.2 26.4h23c-1-.8-2-1.6-2.9-2.5zm-35-40.7H133c-2.8-7.1-5.6-14.1-9-20.4h.2c.2 0 .4-.2.4-.5 0-.2-.1-.3-.2-.4.1-.1.2-.2.2-.4 0-.3-.2-.5-.4-.5l1.6-3.9h-1.2L124 22l-.1-2.6H121l1.6 3.9c-.2 0-.4.2-.4.5 0 .2.1.4.2.4-.1.1-.2.2-.2.4 0 .3.2.5.4.5h.1c-3.4 6.7-6.3 13.6-9.1 20.4h5.9zM66 86.2l-.7 1.7-.9-2.1-.9 2.1-.9-2.1-.9 2.1-.9-2.1-.8 2.1-.9-2.1-.9 2.1-.9-2.1-.9 2.1-.9-2.1-.9 2.1-.9-2.1-.9 2.1-.8-2.1-.9 2.1-.9-2.1-.9 2.1-.9-2.1-.9 2.1-.9-2.1-.9 2.1-.9-2.1h20.9c-9-8.9-14.4-23.9-20.2-38.7l-.4 1-1.1-2.5-1.2 2.4-1.1-2.5-1.1 2.5-1.1-2.5-1 2.5-1.1-2.5-1.1 2.5-1.1-2.5-1 2.5-1.1-2.5L32 48l-1-2.5-1.1 2.5-1.1-2.5-1.1 2.5-1.1-2.5-1 2.5-.8-1.9C19 60.1 13.4 73.8 4.3 85.3h20.5l-.9 2.1-.9-2.1-.9 2.1-.9-2.1-.9 2.1-.9-2.1-.9 2.1-.9-2.1-.9 2.1-.9-2.1-.8 2.1-.9-2.1-.9 2.1-.9-2.1-.9 2.1-.9-2.1-.9 2.1-.9-2.1-.9 2.1-.8-2.1-.9 2.1-.9-2.1-.9 2.1-.5-1.4c-.8.9-1.5 1.8-2.3 2.7h22.1l11.2-26.4L46 88.7h23c-1.1-.8-2.1-1.6-3-2.5zM31 45.5h13.5c-2.8-7.1-5.6-14.1-9-20.4h.2c.2 0 .4-.2.4-.5 0-.2-.1-.3-.2-.4.1-.1.2-.2.2-.4 0-.3-.2-.5-.4-.5l1.6-3.9h-1.2l-.6 2.6-.1-2.6h-2.9l1.6 3.9c-.2 0-.4.2-.4.5 0 .2.1.4.2.4-.1.1-.2.2-.2.4 0 .3.2.5.4.5h.1c-3.4 6.7-6.3 13.6-9.1 20.4H31z"/><path d="M125.7 92.5c-1.2-.9-2.4-1.9-3.6-3l-.1-.1-.4-.4c-9.4-9.3-15.8-24.4-21.1-37.7l-.3-.7-.4-.9c-.4-.9-.7-1.8-1.1-2.7l-.2-.5-1.9-5-1-2.5-.6-2-.4-1-1.2-3.2-.3-.7c-.1-.4-.3-.7-.4-1.1l-.5-1-1.7-4c-2.2-5.1-4.3-9.6-6.3-13.6.1-.4.2-.8.2-1.2V10c0-.4-.1-.8-.2-1.1l3.2-7.5H72.2L75.3 9c-.1.3-.2.7-.2 1.1v1.2c0 .3 0 .7.1 1-2 4.1-4.1 8.6-6.4 13.7l-1.7 4-.5 1.1c-.1.1-.2.4-.3.8L65 35.4c-.4.9-.7 1.6-.7 1.6l-.7 1.6c-.8 1.8-1.5 3.7-2.3 5.5l-.2.6-.3.6c-.6 1.5-1.3 3.1-2 4.6l-.4.9-.1.3c-.9 2.2-1.8 4.2-2.7 6.2L54 61c-4.2 8.9-8.3 16.2-12.7 22.6L41 83l-.9 2c-.8 1.1-1.7 2.2-2.5 3.3l-.8 1c-1.1 1.3-2 2.5-2.9 3.5l-4.3 4.8h37.1l12.7-30 12.7 30h40.5l-6.9-5.1z" fill="#fff"/><path class="st0" d="M96.4 51.2c-.4-.9-.7-1.8-1.1-2.7 0 .2-.1.4-.1.6 0 .8.5 1.6 1.2 2.1zm-7.2-18.4H68.6c-.3.6-.5 1.3-.8 1.9h22.1c-.2-.6-.5-1.3-.7-1.9zm-2.1-5.1c-2.2-5.3-4.6-10.4-7.2-15.2h.3c.3 0 .6-.3.6-.7 0-.2-.1-.5-.3-.6.2-.1.3-.3.3-.6 0-.4-.2-.7-.6-.7l2.1-5h-1.5l-1.1 3.4-.2-3.3h-3.8l2.1 5c-.3 0-.6.3-.6.7 0 .2.1.5.3.6-.2.1-.3.3-.3.6 0 .4.3.7.6.7h.1c-2.5 5-4.9 10.1-7.1 15.2h16.3zM73.7 39.1h18c-.4-1.1-.9-2.3-1.3-3.4h-23c-.5 1.1-1 2.3-1.4 3.4h7.7zm13.9 10.8c.5 0 .8-.4.8-.8s-.4-.8-.8-.8c-.5 0-.8.4-.8.8s.3.8.8.8zm-24-.9c0-.8-.4-1.6-1-2-.6 1.6-1.3 3.1-2 4.6h.3c1.6.1 2.7-1.1 2.7-2.6z"/><path class="st0" d="M119.3 92.1l-.9 2.2-1.2-2.7-1.2 2.7-1.2-2.7-1.2 2.7-1.2-2.7-1.2 2.7-1.2-2.7-1.2 2.7-1.2-2.7-1.2 2.7-1.2-2.7-1.2 2.7-1.2-2.7-1.2 2.7-1.2-2.7-1.2 2.7-1.2-2.7-1.2 2.7-1.2-2.7-1.2 2.7-1.2-2.7-1.2 2.7-1.2-2.7h26.8C109.4 82.3 103 68 97 52.8c-1.7-.4-3-1.9-3-3.8 0-.8.3-1.6.7-2.2-.7-1.9-1.5-3.9-2.2-5.8l-.6 1.3-1.4-3.3-1.4 3.3-1.4-3.3-1.4 3.3-1.4-3.3-1.4 3.3-1.4-3.3-1.4 3.3-1.4-3.3-1.4 3.3-1.4-3.3-1.4 3.3-1.4-3.3-1.4 3.3-1.4-3.3-1.4 3.3-1.4-3.3-1.4 3.3-1-2.5c-.8 2-1.6 4-2.5 5.9 1 .7 1.7 1.9 1.7 3.2 0 2.1-1.7 3.9-3.9 3.9-.3 0-.6 0-.8-.1-.9 2.1-1.8 4.2-2.8 6.3.3-.3.7-.5 1.2-.7.2-.1.4 0 .5.1.1.1.1.3-.1.5-1.2 1.1-1.7 2.1-1.6 2.8.1.8 1 1.2 1.7 1.5h.4c.7 0 1.4.1 1.8.7l.2.1h.1l.1-.1c.1 0 .2-.1.3-.1.2-.1.5-.2.8-.2h.6c.3 0 .5.2.7.3l.1.1h.3c.5-.4 1-.4 1.4-.4H67c1.6-.3 2.7-.9 3.3-1.8.4-.7.5-1.5.2-2.4 0-.2 0-.3.2-.4.1-.1.3-.1.4 0 .6.6.9 1.3.8 2.2-.1 1.4-1.3 2.9-1.9 3.2-1.9 1.1-3.5 1.4-4.9 1.5.2.3.1.6-.1.8 0 .1-.1.1-.1.2-.1.2-.2.4-.4.6-.1.1-.2.1-.3.2-.4.2-.9.4-1.1 1 0 .4-.2.6-.7.8-.2.3-.3.6-.4.9-.2.6-.4 1-.9 1.3l-.1.4c-.2.3-.4.4-.6.4h-.6c.4-.3.4-.4.3-.6 0 0 0-.1-.1-.1 0 0-.1.1-.2.1-.2.2-.4.3-.2.6h-.2c-.2 0-.3 0-.4-.1-.1-.1-.1-.2-.1-.3l.2-.4c-.3-.3-.2-.7 0-1.3.1-.2.2-.5.3-.9-.1-.1-.2-.2-.2-.3 0-.1 0-.3.2-.5.3-.6-.1-.9-.3-1.1-.1-.1-.2-.1-.2-.2-.1-.2 0-.4 0-.6 0-.1 0-.1.1-.2.1-.3.1-.5.4-.7-1.1-.3-2.5-.8-3.5-2.1-.1-.2-.2-.5-.2-.8-4.7 10-10 19.5-16.8 28.2h26.7l-1.2 2.7-1.2-2.7-1.2 2.7-1-3-1.2 2.7-1.2-2.7-1.2 2.7-1.2-2.7-1.2 2.7-1.2-2.7-1.2 2.7-1.2-2.7-1.2 2.7-1.2-2.7-1.2 2.7-1.2-2.7-.6 2.8-1.2-2.7-1.2 2.7-1.2-2.7-1.2 2.7L40 91l-1 2.7-.8-1.9-3 3.6H64l13.9-32.8h-.4c-.3 0-.6-.3-.6-.7 0-.2.1-.5.3-.6-.2-.1-.3-.3-.3-.6 0-.4.2-.7.6-.7h2.4c.3 0 .6.3.6.7 0 .2-.1.5-.3.6.2.1.3.3.3.6 0 .4-.2.7-.6.7h-.5l13.9 32.8h29.9c-1.4-1-2.6-2.1-3.9-3.3zm-50.6-41c-1.1 0-2.1-.9-2.1-2.1 0-1.1.9-2.1 2.1-2.1 1.1 0 2.1.9 2.1 2.1 0 1.2-.9 2.1-2.1 2.1zm9.9 1.8c-2.1 0-3.9-1.7-3.9-3.9 0-2.1 1.7-3.9 3.9-3.9 2.1 0 3.9 1.7 3.9 3.9s-1.8 3.9-3.9 3.9zm9-5.9c1.1 0 2.1.9 2.1 2.1 0 1.1-.9 2.1-2.1 2.1-1.1 0-2.1-.9-2.1-2.1 0-1.2.9-2.1 2.1-2.1zm3.6 20.1c0-.1-.1-.1-.1-.2-.1-.3-.3-.5-.1-.8h-.1c-1.3-.1-3-.4-4.9-1.5-.6-.4-1.8-1.8-1.9-3.2-.1-.9.2-1.6.8-2.2.1-.1.3-.1.4 0 .1.1.2.2.2.4-.3.9-.2 1.7.2 2.4.5.9 1.7 1.5 3.3 1.8h1.1c.3 0 .9 0 1.4.4h.3s.1 0 .1-.1c.2-.1.4-.2.7-.3h.5c.3 0 .5.1.8.2.1 0 .2.1.3.1l.1.1h.1l.2-.1c.4-.6 1.1-.6 1.8-.7h.4c.7-.3 1.5-.7 1.7-1.5.2-.9-.3-1.9-1.5-2.9-.1-.1-.2-.3-.1-.5.1-.1.3-.2.4-.1 1.9.9 2.6 2.3 2.8 3.1.2.8.2 1.7-.1 2.1-1 1.3-2.4 1.8-3.5 2.1.3.3.4.5.4.7 0 .1 0 .1.1.2.1.2.1.4 0 .6 0 .1-.1.1-.2.2-.3.2-.6.5-.3 1.1.1.2.2.4.2.5 0 .1-.1.2-.2.3l.3.9c.2.6.3 1 0 1.3l.2.4c0 .1 0 .2-.1.3-.1.1-.3.1-.4.1h-.2c.2-.3.1-.4-.2-.6-.1 0-.1-.1-.2-.1 0 0 0 .1-.1.1-.1.2-.1.3.3.6h-.6c-.2 0-.4 0-.6-.4l.1-.2c-.5-.3-.7-.7-.9-1.3-.1-.3-.2-.5-.4-.9-.4-.2-.7-.4-.7-.8-.2-.6-.7-.8-1.1-1-.1-.1-.3-.1-.3-.2-.3 0-.4-.2-.4-.4z"/><path class="st0" d="M78.6 46.4c-1.4 0-2.6 1.2-2.6 2.6 0 1.4 1.2 2.6 2.6 2.6 1.4 0 2.6-1.2 2.6-2.6 0-1.4-1.2-2.6-2.6-2.6zm-9.9 1.8c-.5 0-.8.4-.8.8s.4.8.8.8.8-.4.8-.8-.3-.8-.8-.8z"/></svg>