<svg xmlns="http://www.w3.org/2000/svg" viewBox="0 0 372.6 337.3"><path d="M267.7 68.9c13.5-1 32.3-3.9 56.2-8.6 24-4.7 37.7-8.3 41.4-10.9 3.6-2.6 2.3-5.7-3.9-9.4-6.2-3.6-15.4-3.9-27.3-.8-12 3.1-27.6 6.8-46.9 10.9-19.3 4.2-37 7-53.1 8.6-16.2 1.6-19.5 4.4-10.2 8.6 9.4 4.2 19.8 5.7 31.2 4.7 1 13.5-1.6 28.7-7.8 45.3-8.3-1-14.6-1.6-18.8-1.6-4.2 0-5.2 1.6-3.1 4.7s3.9 9.4 5.5 18.8 1.8 22.9.8 40.6c-1 17.7-2.3 33.3-3.9 46.9-1.6 13.5-.3 23.7 3.9 30.5 4.2 6.8 7.3 3.4 9.4-10.2 19.8-2.1 45.8-3.6 78.1-4.7 6.2 16.7 10.9 25.5 14.1 26.6 3.1 1 6-3.6 8.6-14.1 2.6-10.4 3.4-22.1 2.3-35.2-1-13-2.1-31-3.1-53.9s.5-37 4.7-42.2c4.2-5.2 3.9-9.9-.8-14.1-4.7-4.2-10.9-7.5-18.8-10.2-7.8-2.6-14.8-1.6-21.1 3.1-6.2 4.7-21.4 9.1-45.3 13.3 7.3-14.6 12.7-24.7 16.4-30.5 3.7-5.5.8-11-8.5-16.2h0zm-106.3 89c-17.7 4.2-30.7 6.8-39.1 7.8-8.3 1-10.7 2.9-7 5.5 3.6 2.6 7.5 4.4 11.7 5.5 1 21.9 1.6 34.9 1.6 39.1 0 4.2-.5 16.7-1.6 37.5-6.2 2.1-11.5 3.4-15.6 3.9-4.2.5-3.4 2.3 2.3 5.5 5.7 3.1 11.5 3.9 17.2 2.3 5.7-1.6 16.9-3.9 33.6-7-1 20.8-2.3 35.7-3.9 44.5-1.6 8.9.2 17.2 5.5 25 5.2 7.8 8.3 6.5 9.4-3.9 1-10.4 1.6-19.8 1.6-28.1 0-9.4.5-22.9 1.6-40.6 11.5-2.1 21.1-3.6 28.9-4.7 7.8-1 9.9-3.4 6.2-7s-7.6-5.5-11.7-5.5c-4.2 0-12 1.6-23.4 4.7 0-37.5.8-57.5 2.3-60.2 1.6-2.6.2-7-3.9-13.3 25-4.2 36.5-8.1 34.4-11.7-2.1-3.6-5.5-5.7-10.2-6.2-4.7-.5-15.9 1.3-33.6 5.5 2.1-10.4 3.1-21.3 3.1-32.8 13.5-3.1 23.7-5.2 30.5-6.2 6.8-1 8.6-3.4 5.5-7-3.1-3.6-8.3-4.7-15.6-3.1-7.3 1.6-14.1 2.9-20.3 3.9 0-40.6 1-63.5 3.1-68.8 2.1-5.2-1.6-10.4-10.9-15.6 19.8-5.2 31-9.1 33.6-11.7 2.6-2.6 1.3-5.5-3.9-8.6-5.2-3.1-12-3.4-20.3-.8-8.3 2.6-22.4 6.5-42.2 11.7-19.8 5.2-33.6 8.3-41.4 9.4-7.8 1-12.3 2.6-13.3 4.7s5.2 4.2 18.8 6.2c4.2 22.9 5.7 52.1 4.7 87.5-30.2 5.2-49.5 7.3-57.8 6.2-8.3-1-8.6 2.1-.8 9.4 7.8 7.3 14.8 9.6 21.1 7 6.2-2.6 17.4-5.7 33.6-9.4 16.1-3.6 36.2-7.5 60.2-11.7-1.3 15.5.8 25.9 6 31.1h0zm84.4-31.2c37.5-6.2 58.8-8.8 64.1-7.8 5.2 1 8.6 8.3 10.2 21.9 1.6 13.5 2.3 30.2 2.3 50v35.9c0 4.2-1.8 5.5-5.5 3.9s-10.7-2.1-21.1-1.6c-10.4.5-28.7 3.4-54.7 8.6l1.6-32.8c15.6 0 28.1-.5 37.5-1.6 9.4-1 15.9-2.6 19.5-4.7 3.6-2.1 3.9-4.7.8-7.8s-9.9-3.4-20.3-.8c-10.4 2.6-22.9 5-37.5 7l1.6-26.6c14.6 0 27.6-1.3 39.1-3.9 11.5-2.6 16.9-5.5 16.4-8.6-.5-3.1-3.1-4.9-7.8-5.5-4.7-.5-12 .8-21.9 3.9-9.9 3.1-18 4.7-24.2 4.7v-34.2h-.1zM94.2 178.3c7.3-2.1 12.5-4.2 15.6-6.2 3.1-2.1 3.1-4.9 0-8.6-3.1-3.6-13.8-2.3-32 3.9-18.2 6.2-33.1 10.2-44.5 11.7-11.5 1.6-7.8 6 10.9 13.3 1 20.8 1.6 34.9 1.6 42.2v29.7c-14.6 4.2-26 6.2-34.4 6.2-7.3 0-9.1 2.1-5.5 6.2 3.6 4.2 7.5 7.6 11.7 10.2 4.2 2.6 9.9 2.1 17.2-1.6 7.3-3.6 24.5-10.7 51.6-21.1-1 27.1 0 43.7 3.1 50s5.5 2.1 7-12.5 2.3-28.6 2.3-42.2c11.5-4.2 16.9-7.5 16.4-10.2-.5-2.6-6-2.3-16.4.8 0-35.4.5-54.9 1.6-58.6 1.1-3.6-1-8-6.2-13.2h0zM113 57.9c0-11.5-.8-18-2.3-19.5-1.6-1.6-1.3-2.3.8-2.3 3.1 0 10.7-1.3 22.7-3.9 12-2.6 18.5-2.9 19.5-.8 1 2.1 1.8 6.2 2.3 12.5.5 6.2.8 29.7.8 70.3l-45.3 7.8v-20.3c20.8-2.1 31.8-4.7 32.8-7.8 1-3.1 0-5.5-3.1-7-3.1-1.6-13 .3-29.7 5.5l1.6-23.4c17.7 0 28.1-2.1 31.2-6.2 3.1-4.2 3.4-6.8.8-7.8-2.7-1.2-13.4-.2-32.1 2.9h0zm-54.7 150c0-13.5-.5-20.3-1.6-20.3 0-1 1.6-1.6 4.7-1.6 4.2-1 10.4-2.6 18.8-4.7 2.1 3.1 3.6 9.9 4.7 20.3 1 10.4 1.6 27.6 1.6 51.6L56.8 261l1.6-18.7c9.4-2.1 14.8-4.9 16.4-8.6 1.6-3.6.2-5.5-3.9-5.5-3.1 0-7.3 1.6-12.5 4.7v-17.2c7.3 0 12.7-1.3 16.4-3.9 3.6-2.6 4.4-4.7 2.3-6.2-2.2-1.6-8.4-.8-18.8 2.3h0zm240.6 57.9c-8.3-3.1-7 2.1 3.9 15.6s21.3 26.6 31.2 39.1c9.9 12.5 15.6 13.3 17.2 2.3s.2-19.3-3.9-25c-4.2-5.7-10.9-11.7-20.3-18-9.3-6.2-18.7-10.9-28.1-14h0zm-39.1-4.7c-9.4-7.3-14.1-7.8-14.1-1.6 0 5.2-6 14.1-18 26.6-12 12.5-23.2 22.1-33.6 28.9-10.4 6.8-9.9 8.6 1.6 5.5 11.5-3.1 21.9-8.1 31.2-14.8 9.4-6.8 17.7-13 25-18.8 7.3-5.7 13-9.9 17.2-12.5 4.3-2.6 1.1-7.1-9.3-13.3h0zm-128.1-84.4c6.2-1 16.7-2.6 31.2-4.7 1 12.5 1.6 27.6 1.6 45.3-5.2 0-13.5.5-25 1.6l1.6-18.8c8.3 0 14.1-1.6 17.2-4.7s2.3-5.2-2.3-6.2c-4.7-1-9.6-.5-14.8 1.6-1.2-5.2-4.3-9.9-9.5-14.1h0zm7.8 50c7.3 2.1 15.6 1 25-3.1v21.9c-10.4 2.1-19.3 4.2-26.6 6.2.1-5.2.6-13.5 1.6-25h0z" stroke="#000" stroke-width="3" stroke-miterlimit="10"/></svg>