<?xml version="1.0" encoding="utf-8"?>
<!-- Generator: Adobe Illustrator 23.0.1, SVG Export Plug-In . SVG Version: 6.00 Build 0)  -->
<svg version="1.1" id="Layer_1" xmlns="http://www.w3.org/2000/svg" xmlns:xlink="http://www.w3.org/1999/xlink" x="0px" y="0px"
	 viewBox="0 0 290.6 148.6" style="enable-background:new 0 0 290.6 148.6;" xml:space="preserve">
<style type="text/css">
	.st0{fill:#FFFFFF;}
</style>
<g>
	<path class="st0" d="M42.6,37.1c-0.2-0.4-0.4-0.8-0.5-1.2c4.9-6.6,9.8-13.2,14.7-19.8c0.9-1.2,2-2.9,1.8-4.3
		C58,7.7,50.9,3.5,47.1,4.1c-1.4,21-16.5,34.2-27.3,49.8c0.4,0.4,0.7,0.8,1.1,1.2c3.3-2.3,6.6-4.7,10.9-7.7c2,7,4,13.8,6,20.8
		c-7.2,0.7-12.9,1.3-19.3,2c5.1,8.7,12.4,6.3,19.5,5.4c0.6,6.6,1.1,12.6,1.6,18.5C27.1,95.2,15.3,96.2,3,97.2
		c3.5,5.9,8.3,7.7,14.6,6.1c23.6-5.8,47.6-7.8,71.8-8.6c15-0.5,30-0.1,45-0.1c1,0,2.3,0.4,2.9-0.1c0.9-0.8,2-2.5,1.7-3.2
		c-1.6-3.9-10.6-7.8-14.8-7.1c-9.3,1.5-18.6,2.8-28.3,4.3C97.1,82,98,75.9,99.3,70c0.2-1,2-2.1,3.1-2.2c4.6-0.6,9.2-0.6,13.8-1.2
		c1.7-0.2,3.3-1.2,5.4-2c-6.2-7.1-13.1-6.6-20.8-4.7c1-4.6,1.4-8.4,2.8-11.9c2.2-5.4,3.3-10.1-4.2-12.8c2.1-0.6,3.4-0.8,4.5-1.4
		c1.4-0.8,2.7-2,4-3c-1.3-1.2-2.5-3.1-3.9-3.3c-3.9-0.6-8-1.2-11.7-0.4c-7.8,1.6-15.4,4.4-23.2,6C60.4,34.9,51.4,35.8,42.6,37.1z
		 M263.3,146.6c6.5-3.9,9.4-10.4,11.7-17.2c4.2-12.6,8.2-25.3,12.5-38.8c-6.4-8.6-16.2-10.2-28.6-5.8c1.6-2.8,2.4-3.7,2.6-4.8
		c0.7-3.2,6.6-4.6,3.6-8.6c-2-2.6-5.4-4.3-8.3-6.1c-1.2-0.8-3-0.8-5.3-1.3c2.4-2.9,4.6-5.1,6.3-7.7c1-1.4,2-3.8,1.4-5.1
		c-1.9-4.3-13.2-7.8-17.8-6.5c-9.5,2.8-19.1,5.5-28.8,7.8c-3.1,0.7-6.6,1.1-9.4-2.1c-1.3-1.5-3.5-2.1-6.5-3.8c0.5,4.2,1.6,7.2,1,9.8
		c-3.9,19.8-9.8,38.9-24,54.2c-2.7,2.9-5,6.1-8.1,9.9c7.8-1.6,14.9-8.2,26.4-24c2.7,0.7,5.2,2.2,7.5,1.9c10.2-1.4,20.3-3.7,30.5-4.8
		c13.1-1.4,26.3-2.1,39.4-2.8c1.1-0.1,3.5,2.3,3.4,3.3c-1.4,9.6-2.9,19.3-5.1,28.8c-0.9,3.8-3.9,5.8-8.5,3.9
		c-3.8-1.6-7.9-2.6-11.8-3.9c-0.2,0.3-0.5,0.7-0.7,1C252.2,131.3,257.6,138.7,263.3,146.6z M198.7,21.5c0.1,0.3,0.1,0.6,0.2,0.9
		c0.6,0.1,1.2,0.2,1.7,0.2c16.2-2,32.5-4,48.7-6.2c3.3-0.5,3.9-3,1.3-5.3c-2.3-2.1-5.1-3.7-7.6-5.6c-2.9-2.2-5.4-3.1-7.1,1.5
		c-0.5,1.3-2.4,2.2-3.9,2.8c-6.7,2.7-13.4,5.4-20.2,7.8C207.6,19.1,203.1,20.2,198.7,21.5z M102.4,105.3c-0.5,0.3-0.9,0.6-1.4,0.9
		c0.3,1.3,0.3,2.9,1.1,3.9c5.8,8,11.8,15.9,17.8,23.8c0.8,1.1,3,2.5,3.4,2.1c1.3-1,2.8-2.6,3-4.1c0.8-6.1-0.8-11.7-6-15.3
		C114.5,112.6,108.4,109.1,102.4,105.3z M31.8,109.1c-0.5-0.1-1.1-0.1-1.6-0.2c-4.5,7-9.2,14-13.5,21.1c-0.8,1.4-0.7,3.6-0.5,5.3
		c0.2,1.5,1.1,3.3,2.2,4c0.7,0.4,2.8-0.6,3.8-1.5c7.4-6.6,10.2-15.2,10.7-24.8C33,111.7,32.2,110.4,31.8,109.1z M238.8,40.9
		c1,0.4,1.4,0.7,1.6,0.6c8-3.3,16-6.6,24-10.1c0.6-0.3,1.2-2.2,0.9-2.7c-1.9-3-3.9-6-6.4-8.5c-0.7-0.7-4.3,0.1-4.4,0.6
		c-1.6,8.2-8.5,11.9-13.6,17.2C240.1,38.8,239.5,39.9,238.8,40.9z M194.1,104.5c-3.9,6.8-7.7,12.5-10.5,18.6c-1,2.3,0.5,5.6,0.9,8.9
		C194.5,127.4,199.1,114.3,194.1,104.5z M193.2,29.6c-0.5,0.3-1,0.7-1.5,1c0.8,1.8,1.2,3.8,2.4,5.3c2.1,2.8,4.3,5.5,6.8,7.9
		c1.6,1.5,3.9,2.4,5.8,3.6c0.5-2.6,1.7-5.3,1.3-7.7c-0.3-1.9-2.5-3.8-4.3-4.9C200.4,32.7,196.7,31.3,193.2,29.6z M77,105.9
		c-0.8,1.4-1.4,2-1.2,2.2c3.1,5.4,6,11.1,9.7,16c1.3,1.8,4.5,0.3,4.4-2.4c-0.2-2.6-0.9-5.8-2.5-7.6C84.5,111,80.8,108.8,77,105.9z
		 M49.3,106.6c-0.2,2.5-0.8,3.8-0.4,4.8c1.7,4.1,3.5,8.2,5.8,12c0.9,1.5,3.3,2,5,2.9c0.7-1.9,1.8-3.8,1.8-5.8
		c0.1-1.5-0.8-3.3-1.9-4.4C56.7,113.1,53.4,110.4,49.3,106.6z M216.3,25.4c-0.3,6.6,3.5,9.8,6,13.3c1.3,1.8,4.4,2.2,6.7,3.3
		c-0.1-2.9,0.8-6.8-0.7-8.5C225.3,30.3,221,28.4,216.3,25.4z M244.6,97.4c-0.6,0.3-1.1,0.6-1.7,0.9c0.7,1.6,1.2,3.3,2.2,4.7
		c1.7,2.4,3.6,4.7,5.7,6.8c1.4,1.4,3.2,2.4,4.8,3.6c0.5-2.3,1.6-4.6,1.3-6.8c-0.2-1.7-1.8-3.6-3.3-4.6
		C250.8,100.2,247.6,98.9,244.6,97.4z M207.4,104.8c-0.8,4.9,0.5,9.3,2.9,13.3c0.8,1.4,2.9,2,4.4,3c0.8-1.7,2.2-3.3,2.3-5
		C217.1,110,212.1,107.7,207.4,104.8z M224.7,102.8c-0.5,0.3-1,0.7-1.5,1c2.2,3.7,4.3,7.4,6.7,10.9c0.7,1,3.1,1.9,3.6,1.5
		c1-0.9,1.9-2.7,1.9-4.1C235.2,107.9,230.9,104.3,224.7,102.8z"/>
	<path d="M42.6,37.1c8.8-1.3,17.8-2.2,26.5-4c7.8-1.6,15.4-4.4,23.2-6c3.7-0.8,7.9-0.2,11.7,0.4c1.4,0.2,2.6,2.2,3.9,3.3
		c-1.3,1-2.6,2.1-4,3c-1.1,0.6-2.4,0.8-4.5,1.4c7.5,2.6,6.4,7.4,4.2,12.8c-1.4,3.5-1.8,7.3-2.8,11.9c7.7-1.9,14.6-2.5,20.8,4.7
		c-2.1,0.8-3.7,1.8-5.4,2c-4.6,0.5-9.2,0.6-13.8,1.2c-1.1,0.1-2.9,1.3-3.1,2.2c-1.3,6-2.2,12-3.4,18.6c9.7-1.5,19-2.8,28.3-4.3
		c4.2-0.7,13.2,3.3,14.8,7.1c0.3,0.8-0.8,2.4-1.7,3.2c-0.6,0.5-1.9,0.1-2.9,0.1c-15,0-30-0.4-45,0.1c-24.1,0.8-48.2,2.8-71.8,8.6
		c-6.3,1.6-11.1-0.2-14.6-6.1c12.3-1,24.1-2.1,36.6-3.1c-0.5-5.9-1-11.9-1.6-18.5c-7,0.9-14.4,3.3-19.5-5.4c6.4-0.7,12.2-1.3,19.3-2
		c-2-7-4-13.7-6-20.8c-4.3,3-7.6,5.3-10.9,7.7c-0.4-0.4-0.7-0.8-1.1-1.2C30.6,38.4,45.8,25.1,47.1,4.1c3.8-0.6,10.9,3.6,11.4,7.7
		c0.2,1.3-0.9,3-1.8,4.3c-4.8,6.7-9.8,13.2-14.7,19.8C42.2,36.3,42.4,36.7,42.6,37.1z M61.2,66.6c3.7-0.4,7-0.6,10.2-1.3
		c1.1-0.2,2.6-1.8,2.7-2.8c0.5-7.4,0.6-14.8-2.8-22.3C66.1,41.1,61,42,54.6,43.1c6.7,2.5,7.9,6.1,6.8,11.6
		C60.6,58.3,61.2,62.3,61.2,66.6z M80.5,63.9c4.7-1,8.7-1.8,13.7-2.9c0-6.2,0.4-12.2-0.2-18.1c-0.3-3.2-0.5-7.9-6.5-5.4
		c-2.7,1.1-5.9,0.9-10.6,1.6c6.6,3,6.4,7.1,5.2,11.9C81.2,54.9,81.1,59.1,80.5,63.9z M33.6,45c9.1,3.4,9.4,3.8,9.4,12.7
		c0,3.6,0,7.2,0,10.6c4.3-0.4,8-0.7,12.1-1c0.1-7.7-1.3-14.9-4.5-21.7c-0.4-0.9-1.9-1.6-3-1.9c-3.4-0.9-6.9-1.5-10.8-2.4
		C36.1,42.1,35.1,43.3,33.6,45z M92.8,68.2c-4.9,0.6-8.9,1.1-13.1,1.7c-0.5,7.1-1,13.8-1.5,20.5c3-0.3,5.6-0.8,8.2-0.7
		c2.8,0.1,3.8-1.1,4-3.7C91,80.5,91.9,74.9,92.8,68.2z M73.9,70.5c-4,0.4-7.5,0.7-11,1.3c-0.7,0.1-1.7,1.3-1.7,2.1
		c-0.1,5.9-0.1,11.8-0.1,17.8c2.2,0,3.2,0,4.2,0c7.2,0,7.6-0.4,7.8-7.4C73.3,79.9,73.6,75.6,73.9,70.5z M55.3,72.9
		c-4.4,0.8-8.1,1.4-11.9,2.1c0.6,6.6,1.1,12.5,1.6,18.7c3.9-0.5,7.2-1,11.2-1.5C56,85.9,55.7,79.7,55.3,72.9z"/>
	<path d="M263.3,146.6c-5.7-7.9-11.1-15.3-16.4-22.7c0.2-0.3,0.5-0.7,0.7-1c3.9,1.3,8,2.2,11.8,3.9c4.5,2,7.6-0.1,8.5-3.9
		c2.2-9.5,3.7-19.1,5.1-28.8c0.1-1-2.2-3.4-3.4-3.3c-13.2,0.7-26.3,1.4-39.4,2.8c-10.2,1.1-20.3,3.4-30.5,4.8
		c-2.3,0.3-4.8-1.2-7.5-1.9c-11.6,15.8-18.6,22.4-26.4,24c3.1-3.8,5.4-7,8.1-9.9c14.2-15.3,20.1-34.4,24-54.2c0.5-2.6-0.5-5.6-1-9.8
		c3,1.7,5.2,2.4,6.5,3.8c2.7,3.1,6.2,2.8,9.4,2.1c9.7-2.3,19.3-5,28.8-7.8c4.6-1.3,15.9,2.2,17.8,6.5c0.6,1.3-0.5,3.7-1.4,5.1
		c-1.7,2.6-3.9,4.8-6.3,7.7c2.3,0.6,4,0.6,5.3,1.3c2.9,1.8,6.3,3.5,8.3,6.1c3,4-2.9,5.4-3.6,8.6c-0.2,1-1,1.9-2.6,4.8
		c12.5-4.4,22.2-2.8,28.6,5.8c-4.3,13.4-8.3,26.1-12.5,38.8C272.7,136.2,269.8,142.7,263.3,146.6z M253.1,70.9
		c-4.5,0-7.7-0.4-10.7,0.1c-13.1,2.1-26.1,4.4-39.1,6.7c-1,0.2-2.4,0.7-2.7,1.5c-2,4.2-3.8,8.6-5.6,12.8c17.7-2.2,35-4.3,52.3-6.5
		c1.1-0.1,2.5-1.3,2.8-2.2C251.2,79.4,252,75.5,253.1,70.9z M242.8,66.6c0.8-3.6,1.7-6.7,2.2-9.8c0.6-3.8-1.3-5.4-5.1-4.6
		c-6.9,1.5-13.7,3.9-20.6,4.1c-9.9,0.4-14.6,5.1-15.8,14.4c0,0.3,0.1,0.5,0.4,1.4C216.8,70.3,229.7,68.5,242.8,66.6z"/>
	<path d="M198.7,21.5c4.4-1.3,8.9-2.4,13.2-3.9c6.8-2.4,13.5-5.1,20.2-7.8c1.5-0.6,3.4-1.5,3.9-2.8c1.7-4.6,4.2-3.7,7.1-1.5
		c2.5,1.9,5.3,3.5,7.6,5.6c2.5,2.3,2,4.9-1.3,5.3c-16.2,2.3-32.5,4.2-48.7,6.2c-0.6,0.1-1.1-0.1-1.7-0.2
		C198.8,22.1,198.7,21.8,198.7,21.5z"/>
	<path d="M102.4,105.3c6,3.7,12.1,7.3,17.9,11.3c5.3,3.6,6.9,9.2,6,15.3c-0.2,1.5-1.7,3.2-3,4.1c-0.4,0.3-2.6-1.1-3.4-2.1
		c-6-7.9-12-15.8-17.8-23.8c-0.7-1-0.7-2.6-1.1-3.9C101.5,105.9,102,105.6,102.4,105.3z"/>
	<path d="M31.8,109.1c0.4,1.3,1.2,2.6,1.1,3.9c-0.4,9.6-3.3,18.2-10.7,24.8c-1,0.9-3.1,1.9-3.8,1.5c-1.1-0.7-2-2.5-2.2-4
		c-0.3-1.7-0.4-3.9,0.5-5.3c4.3-7.1,9-14.1,13.5-21.1C30.7,109,31.3,109,31.8,109.1z"/>
	<path d="M238.8,40.9c0.8-1.1,1.3-2.1,2.1-2.9c5-5.3,12-9,13.6-17.2c0.1-0.5,3.7-1.3,4.4-0.6c2.5,2.5,4.5,5.5,6.4,8.5
		c0.3,0.5-0.3,2.4-0.9,2.7c-8,3.5-16,6.8-24,10.1C240.1,41.6,239.8,41.3,238.8,40.9z"/>
	<path d="M194.1,104.5c5,9.7,0.4,22.8-9.6,27.6c-0.4-3.3-1.9-6.7-0.9-8.9C186.4,117,190.2,111.3,194.1,104.5z"/>
	<path d="M193.2,29.6c3.5,1.7,7.2,3.1,10.5,5.1c1.8,1.1,4,3.1,4.3,4.9c0.4,2.4-0.8,5.1-1.3,7.7c-2-1.2-4.2-2-5.8-3.6
		c-2.5-2.4-4.8-5.1-6.8-7.9c-1.1-1.5-1.6-3.5-2.4-5.3C192.2,30.3,192.7,29.9,193.2,29.6z"/>
	<path d="M77,105.9c3.7,2.9,7.5,5.1,10.3,8.1c1.7,1.8,2.4,5,2.5,7.6c0.2,2.7-3,4.2-4.4,2.4c-3.7-5-6.6-10.6-9.7-16
		C75.7,107.9,76.2,107.3,77,105.9z"/>
	<path d="M49.3,106.6c4.1,3.7,7.4,6.4,10.4,9.5c1.1,1.1,2,2.9,1.9,4.4c-0.1,2-1.2,3.9-1.8,5.8c-1.7-1-4.1-1.5-5-2.9
		c-2.3-3.8-4.1-7.9-5.8-12C48.5,110.4,49,109.1,49.3,106.6z"/>
	<path d="M216.3,25.4c4.7,3.1,9.1,5,12,8.2c1.5,1.6,0.5,5.6,0.7,8.5c-2.3-1.1-5.4-1.5-6.7-3.3C219.8,35.2,216,32,216.3,25.4z"/>
	<path d="M244.6,97.4c3,1.5,6.3,2.8,9.1,4.7c1.5,1,3.1,2.9,3.3,4.6c0.3,2.2-0.8,4.5-1.3,6.8c-1.6-1.2-3.4-2.2-4.8-3.6
		c-2.1-2.1-4-4.4-5.7-6.8c-1-1.4-1.5-3.1-2.2-4.7C243.5,98,244,97.7,244.6,97.4z"/>
	<path d="M207.4,104.8c4.7,2.8,9.7,5.2,9.6,11.3c0,1.7-1.5,3.3-2.3,5c-1.5-1-3.6-1.6-4.4-3C207.9,114.1,206.5,109.7,207.4,104.8z"/>
	<path d="M224.7,102.8c6.2,1.5,10.5,5.1,10.6,9.4c0,1.4-0.8,3.1-1.9,4.1c-0.4,0.4-2.9-0.6-3.6-1.5c-2.4-3.5-4.5-7.3-6.7-10.9
		C223.7,103.5,224.2,103.2,224.7,102.8z"/>
	<path class="st0" d="M61.2,66.6c0-4.4-0.6-8.3,0.1-12c1.1-5.4-0.2-9.1-6.8-11.6c6.4-1.1,11.5-2,16.7-2.9c3.4,7.5,3.3,14.9,2.8,22.3
		c-0.1,1-1.6,2.6-2.7,2.8C68.2,66.1,64.9,66.2,61.2,66.6z"/>
	<path class="st0" d="M80.5,63.9c0.6-4.8,0.7-9,1.7-12.9c1.2-4.8,1.4-8.9-5.2-11.9c4.6-0.6,7.9-0.5,10.6-1.6c6-2.4,6.2,2.3,6.5,5.4
		c0.5,5.9,0.2,11.9,0.2,18.1C89.3,62.1,85.2,62.9,80.5,63.9z"/>
	<path class="st0" d="M33.6,45c1.5-1.6,2.5-2.8,3.3-3.6c3.9,0.8,7.4,1.5,10.8,2.4c1.1,0.3,2.5,1,3,1.9c3.2,6.8,4.6,14,4.5,21.7
		c-4,0.3-7.7,0.6-12.1,1c0-3.4,0-7,0-10.6C43,48.8,42.7,48.3,33.6,45z"/>
	<path class="st0" d="M92.8,68.2C91.9,74.9,91,80.5,90.4,86c-0.3,2.6-1.2,3.8-4,3.7c-2.6-0.1-5.1,0.4-8.2,0.7
		c0.5-6.7,1-13.4,1.5-20.5C83.9,69.4,87.9,68.9,92.8,68.2z"/>
	<path class="st0" d="M73.9,70.5c-0.3,5.1-0.6,9.4-0.8,13.7c-0.2,7-0.6,7.4-7.8,7.4c-1,0-2,0-4.2,0c0-6-0.1-11.9,0.1-17.8
		c0-0.7,1-1.9,1.7-2.1C66.4,71.2,69.9,71,73.9,70.5z"/>
	<path class="st0" d="M55.3,72.9c0.3,6.8,0.6,13,0.9,19.3c-3.9,0.5-7.3,1-11.2,1.5C44.5,87.5,44,81.6,43.4,75
		C47.3,74.3,51,73.7,55.3,72.9z"/>
	<path class="st0" d="M253.1,70.9c-1.1,4.5-1.9,8.5-3.1,12.3c-0.3,1-1.8,2.1-2.8,2.2c-17.3,2.3-34.6,4.4-52.3,6.5
		c1.8-4.2,3.6-8.6,5.6-12.8c0.4-0.8,1.7-1.3,2.7-1.5c13-2.3,26-4.6,39.1-6.7C245.4,70.5,248.6,70.9,253.1,70.9z"/>
	<path class="st0" d="M242.8,66.6c-13.1,1.9-26.1,3.7-38.9,5.6c-0.3-0.9-0.4-1.2-0.4-1.4c1.2-9.3,5.9-14,15.8-14.4
		c6.9-0.3,13.8-2.6,20.6-4.1c3.9-0.8,5.8,0.7,5.1,4.6C244.5,59.9,243.7,62.9,242.8,66.6z"/>
</g>
</svg>
