<svg viewBox="0 0 49 49" xmlns="http://www.w3.org/2000/svg"><path class="quote-box" d="M1.691 1.691h45.618v45.618H1.691z"/><path class="quote-mark" d="M40.815 9.519c.32.267.614.707.88 1.32.267.613.4 1.187.4 1.72-2.666 2.293-4.573 4.48-5.72 6.56-1.146 2.08-1.72 4.347-1.72 6.8 0 1.6.067 2.973.2 4.12.134 1.147.387 2.467.76 3.96a16.5 16.5 0 0 1-4-.64 21.958 21.958 0 0 1-3.48-1.32c-1.04-.507-1.906-1.093-2.6-1.76-.693-.667-1.12-1.32-1.28-1.96 2.507-8.853 8.027-15.12 16.56-18.8zm-16 0c.32.267.614.707.88 1.32.267.613.4 1.187.4 1.72-2.666 2.293-4.573 4.48-5.72 6.56-1.146 2.08-1.72 4.347-1.72 6.8 0 1.6.067 2.973.2 4.12.134 1.147.387 2.467.76 3.96a16.5 16.5 0 0 1-4-.64 21.958 21.958 0 0 1-3.48-1.32c-1.04-.507-1.906-1.093-2.6-1.76-.693-.667-1.12-1.32-1.28-1.96 2.507-8.853 8.027-15.12 16.56-18.8z"/></svg>