<?xml version="1.0" encoding="utf-8"?>
<!-- Generator: Adobe Illustrator 23.0.1, SVG Export Plug-In . SVG Version: 6.00 Build 0)  -->
<svg version="1.1" id="Layer_1" xmlns="http://www.w3.org/2000/svg" xmlns:xlink="http://www.w3.org/1999/xlink" x="0px" y="0px"
	 viewBox="0 0 103.3 84.4" style="enable-background:new 0 0 103.3 84.4;" xml:space="preserve">
<style type="text/css">
	.st0{fill:#231F20;}
</style>
<path class="st0" d="M66,10.8H53c-0.8,0-1.6,0.5-1.9,1.2l-1,2.1h18.7l-1-2.1C67.6,11.3,66.8,10.8,66,10.8z"/>
<path class="st0" d="M75.3,12.2c1.4,2.9,2.9,6,4,8.5c1.6,2.4,4.4,3.9,7.4,3.9h8.4c2.3,0,4.3-1.4,5.2-3.4v-1c0-1.6-0.6-3.1-1.6-4.3
	v0.6c0,2.6-4.9,3.7-9.5,3.7c-4.6,0-9.5-1.2-9.5-3.7v-2.8C78.1,13.5,76.6,13,75.3,12.2z"/>
<path class="st0" d="M100.3,24.5c-1.4,1.3-3.2,2-5.2,2h-8.4c-1.8,0-3.6-0.5-5.2-1.3c0.7,1.4,1.4,3.2,2.3,5.2
	c0.9,0.3,1.9,0.5,2.9,0.5h8.4c2.3,0,4.3-1.4,5.2-3.4V24.5z"/>
<path class="st0" d="M100.3,31c-1.4,1.3-3.2,2-5.2,2h-8.4c-0.7,0-1.4-0.1-2-0.2c1.8,4.9,3.5,10.8,4.2,16.2c0.3,1.8,0.5,3.6,0.5,5.5
	c0,2.8-0.4,5.6-1.2,8.2h6.9c2.3,0,4.3-1.4,5.2-3.4V31z M92.2,40.8c-1.8,0-3.3-1.5-3.3-3.3c0-1.8,1.5-3.3,3.3-3.3
	c1.8,0,3.3,1.5,3.3,3.3C95.5,39.4,94,40.8,92.2,40.8z"/>
<path class="st0" d="M70.3,6.3l-1.3-1.8c-0.9-1.3-2.4-2-3.9-2H53.9c-1.5,0-3,0.8-3.9,2L49,5.8c-2.7,5.7-8.9,18.7-9.6,20.2
	c-0.4,0.7-0.7,1.6-1.2,2.6c5.1-6,12.8-9.8,21.2-9.8c8.6,0,16.3,3.9,21.5,10c-0.4-1.1-0.9-2-1.3-2.8c-0.2-0.5-1-2.2-2.1-4.4
	c-0.3-0.4-0.5-0.8-0.7-1.2l-1.9-4l0.1,0C73.4,12.7,71.6,8.9,70.3,6.3z M70.6,15.3c-0.4,0.6-1,0.9-1.6,0.9H50c-0.7,0-1.3-0.3-1.6-0.9
	C48,14.7,48,14,48.3,13.4l1-2.2C50,9.8,51.5,8.8,53,8.8H66c1.6,0,3.1,0.9,3.7,2.4l1,2.2C71,14,71,14.7,70.6,15.3z"/>
<path class="st0" d="M20.3,33.7c0.9-1.1,2.2-1.9,3.7-2.4c0.8-0.2,1.7-0.4,2.5-0.4h5.7c1.1,0,2.1-0.2,3.1-0.5
	c0.8-2.1,1.6-3.9,2.3-5.3c-1.6,0.9-3.4,1.4-5.3,1.4h-5.7c-1.9,0-3.6,0.7-4.7,2c-0.8,1-3.2,3.1-8.6,3.1c-0.5,0-1,0-1.5-0.1
	C7.9,31.4,5,30.1,3.2,28v4.8c1.8,1.8,4.5,2.9,8.2,3.3C15.8,36.4,19.2,35.1,20.3,33.7z"/>
<path class="st0" d="M11.8,67.8c4.1,0,7.1-0.8,8.4-2.2c1-1,2-1.8,3.2-2.3V37.1c0-0.1,0-2,0.8-3.7c-1,0.3-1.8,0.9-2.4,1.6
	c-1.3,1.5-4.3,3.1-8.9,3.1c-0.6,0-1.1,0-1.8-0.1c-3.3-0.3-6-1.2-8-2.6v29.8C4.3,66.9,7.4,67.8,11.8,67.8z"/>
<path class="st0" d="M11.8,73.4c5.3,0,7.3-1.3,8-2c1.8-2,4.1-3,6.5-3H33c-0.6-1.2-1.1-2.4-1.6-3.6h-5c-1.7,0-3.4,0.8-4.7,2.2
	c-1.8,1.9-5.1,2.8-9.9,2.8c-4.3,0-7-0.8-8.6-1.8v1.9C3.2,72,6.5,73.4,11.8,73.4z"/>
<path class="st0" d="M92.2,36.3c-0.7,0-1.3,0.6-1.3,1.3c0,0.7,0.6,1.3,1.3,1.3c0.7,0,1.3-0.6,1.3-1.3C93.5,36.9,92.9,36.3,92.2,36.3
	z"/>
<path class="st0" d="M11.9,29.6c5.7,0.4,7.9-1.7,8.5-2.3c1.5-1.7,3.7-2.7,6.2-2.7h5.7c3.4,0,6.5-1.9,8-4.9c1.1-2.3,2.4-5,3.6-7.6
	c-1.6,1.1-3.5,1.7-5.4,1.7H19.6c1,0.9,1.6,2.1,1.6,3.3v3.3c0,3-3.5,5.4-8,5.4c-4.5,0-8-2.4-8-5.4V18c-1.1,1.5-1.8,3.3-2,5.2
	C3.7,27,6.7,29.3,11.9,29.6z M28.2,15.6c1.9,0,3.4,1.1,3.4,2.5c0,1.4-1.5,2.5-3.4,2.5c-1.9,0-3.4-1.1-3.4-2.5
	C24.8,16.7,26.3,15.6,28.2,15.6z"/>
<path class="st0" d="M7.2,20.7c0.3,1.7,2.9,3.1,6,3.1c3,0,5.6-1.4,6-3.1c-1.5,1.1-3.6,1.8-6,1.8C10.8,22.5,8.7,21.8,7.2,20.7z"/>
<path class="st0" d="M28.2,18.6c0.9,0,1.3-0.4,1.4-0.5c0-0.1-0.5-0.5-1.4-0.5c-0.9,0-1.3,0.4-1.4,0.5C26.8,18.2,27.3,18.6,28.2,18.6
	z"/>
<path class="st0" d="M100.3,63.2v-0.5c-1.4,1.3-3.2,2-5.2,2h-7.5c-0.5,1.2-1,2.4-1.6,3.6h9.1C98,68.3,100.3,66,100.3,63.2z"/>
<path class="st0" d="M34.5,32.8C33.7,32.9,33,33,32.3,33h-4.2c-0.7,0-1.2,0.2-1.6,0.7c-0.9,0.9-1.1,2.8-1.1,3.4v25.7
	c0.3,0,0.6-0.1,1-0.1h4.3c-0.7-2.6-1.2-5.4-1.2-8.2c0-2.5,0.3-4.9,0.9-7.2C31.3,42.4,32.8,37.2,34.5,32.8z"/>
<path class="st0" d="M96.5,13.7c-0.2,0.1-0.5,0.2-0.8,0.3c-1.8,0.6-4.2,0.9-6.6,0.9c-2.6,0-5.4-0.4-7.3-1.2c0,0-0.1,0-0.1,0l-0.1,0
	l-0.1,0.1v2.6c0.1,0.5,2.7,1.7,7.5,1.7s7.4-1.3,7.5-1.8l0-2.1l0-0.5L96.5,13.7z"/>
<path class="st0" d="M89.2,9.5c-3.6,0-5.9,0.7-6.9,1.3c-0.3,0.2-0.5,0.4-0.6,0.5c0,0.1,0.1,0.1,0.2,0.2c0.2,0.2,0.6,0.4,1.1,0.6
	c0.2,0.1,0.4,0.1,0.6,0.2c1.3,0.4,3.1,0.7,5.6,0.7c2.4,0,4.2-0.3,5.4-0.7c0.3-0.1,0.5-0.2,0.8-0.3c0.5-0.2,0.9-0.4,1.1-0.6
	c0.1-0.1,0.2-0.2,0.2-0.2c-0.6-0.2-1.2-0.3-1.9-0.4c0.6,0.1,1.3,0.2,1.8,0.4C96.5,10.7,93.9,9.5,89.2,9.5z"/>
<path class="st0" d="M13.2,20.5c2.7,0,5-1,5.7-2.4c0.2-0.3,0.3-0.7,0.3-1s-0.1-0.7-0.3-1c-0.6-1.1-2.3-2-4.3-2.3
	c-0.5-0.1-0.9-0.1-1.4-0.1c-2.1,0-4,0.7-5.1,1.6c-0.3,0.2-0.5,0.5-0.7,0.8c-0.2,0.3-0.3,0.7-0.3,1s0.1,0.7,0.3,1
	C8.2,19.5,10.6,20.5,13.2,20.5z"/>
<path class="st0" d="M59.5,24.6c9.7,0,18.4,4.7,23.9,11.9c-4-9.2-13.2-15.7-23.9-15.7c-10.7,0-19.9,6.5-23.9,15.7
	C41.1,29.3,49.8,24.6,59.5,24.6z"/>
<path class="st0" d="M34.6,64.7c0.5,1.3,1.1,2.5,1.8,3.6c0.3,0.5,0.6,1,1,1.5c0.4,0.5,0.7,1,1.1,1.5c4.9,6.2,12.5,10.1,21,10.1
	c8.5,0,16.1-4,21-10.1c0.4-0.5,0.8-1,1.1-1.5c0.3-0.5,0.7-1,1-1.5c0.7-1.1,1.3-2.4,1.8-3.6c0.3-0.7,0.5-1.3,0.7-2
	c0.8-2.6,1.3-5.3,1.3-8.2c0,0,0-0.1,0-0.1c0-1.2-0.1-2.4-0.2-3.5c-0.2-1.2-0.4-2.3-0.7-3.5c-3.1-11.4-13.6-19.8-26-19.8
	c-12.4,0-22.9,8.4-26,19.8c-0.3,1.1-0.5,2.3-0.7,3.5c-0.2,1.1-0.2,2.3-0.2,3.5c0,0,0,0.1,0,0.1c0,2.9,0.5,5.6,1.3,8.2
	C34.1,63.4,34.3,64.1,34.6,64.7z M35.4,56.5c-0.1-0.7-0.1-1.3-0.1-2c0-13.3,10.8-24.2,24.2-24.2c13.3,0,24.2,10.8,24.2,24.2
	c0,0.7,0,1.3-0.1,2c-0.1,1.2-0.3,2.3-0.5,3.4c-0.2,1-0.5,1.9-0.8,2.8c-0.1,0.2-0.2,0.5-0.3,0.7c-0.2,0.4-0.4,0.9-0.5,1.3
	c-0.6,1.3-1.3,2.5-2.1,3.6c-0.4,0.5-0.7,1-1.1,1.5c-0.4,0.5-0.9,1-1.3,1.5c-4.4,4.5-10.6,7.4-17.4,7.4c-6.8,0-13-2.8-17.4-7.4
	c-0.5-0.5-0.9-1-1.3-1.5c-0.4-0.5-0.8-1-1.1-1.5c-0.8-1.1-1.5-2.3-2.1-3.6c-0.2-0.4-0.4-0.8-0.5-1.3c-0.1-0.2-0.2-0.5-0.3-0.7
	c-0.3-0.9-0.6-1.8-0.8-2.8C35.7,58.8,35.5,57.7,35.4,56.5z"/>
<path class="st0" d="M38.9,62.7c0.3,0.7,0.6,1.4,0.9,2c0.2,0.4,0.4,0.8,0.7,1.2c0.5,0.8,1.1,1.6,1.7,2.4c0.3,0.4,0.6,0.7,0.9,1.1
	c0.1,0.1,0.3,0.3,0.4,0.4c0.5,0.5,1,1,1.6,1.5c3.9,3.3,8.9,5.4,14.4,5.4c5.5,0,10.6-2,14.4-5.4c0.6-0.5,1.1-1,1.6-1.5
	c0.1-0.1,0.3-0.3,0.4-0.4c0.3-0.4,0.6-0.7,0.9-1.1c0.6-0.8,1.2-1.6,1.7-2.4c0.2-0.4,0.5-0.8,0.7-1.2c0.3-0.6,0.6-1.3,0.9-2
	c0-0.1,0.1-0.2,0.1-0.3c0.9-2.5,1.5-5.1,1.5-7.9c0-12.2-9.9-22.2-22.2-22.2c-12.2,0-22.2,9.9-22.2,22.2c0,2.8,0.5,5.5,1.5,7.9
	C38.8,62.6,38.9,62.6,38.9,62.7z M59.5,36.4c10,0,18.1,8.1,18.1,18.1c0,3-0.7,5.7-2,8.2c-0.4,0.7-0.7,1.4-1.2,2
	c-0.9,1.3-2,2.6-3.3,3.6c-0.6,0.5-1.3,1-2.1,1.5c-0.9,0.6-1.9,1.1-2.9,1.5c-2.1,0.8-4.3,1.3-6.7,1.3c-2.4,0-4.6-0.5-6.7-1.3
	c-1-0.4-2-0.9-2.9-1.5c-0.7-0.5-1.4-1-2.1-1.5c-1.2-1.1-2.3-2.3-3.3-3.6c-0.4-0.6-0.8-1.3-1.2-2c-1.3-2.5-2-5.2-2-8.2
	C41.4,44.5,49.5,36.4,59.5,36.4z"/>
<path class="st0" d="M48.4,64.7c1.4,1.5,3.1,2.8,5,3.6c1.9,0.8,3.9,1.3,6.1,1.3c2.2,0,4.2-0.5,6.1-1.3c1.9-0.8,3.6-2.1,5-3.6
	c0.6-0.6,1.1-1.3,1.6-2c1.5-2.4,2.4-5.2,2.4-8.2c0-8.3-6.8-15.1-15.1-15.1c-8.3,0-15.1,6.8-15.1,15.1c0,3,0.9,5.8,2.4,8.2
	C47.3,63.4,47.8,64.1,48.4,64.7z M59.5,42.2c6.8,0,12.4,5.5,12.4,12.4c0,3.1-1.1,5.9-3.1,8.2c-0.2,0.2-0.3,0.4-0.5,0.5
	c-0.3,0.3-0.7,0.4-1.1,0.4c-0.4,0-0.8-0.1-1.1-0.4c-0.2-0.2-0.3-0.3-0.3-0.5c-0.2-0.5-0.1-1.1,0.3-1.6c1.8-1.8,2.7-4.1,2.7-6.6
	c0-5.2-4.2-9.4-9.4-9.4c-0.8,0-1.5-0.7-1.5-1.5C58,42.8,58.7,42.2,59.5,42.2z"/>
</svg>
