<?xml version="1.0" encoding="utf-8"?>
<!-- Generator: Adobe Illustrator 23.0.1, SVG Export Plug-In . SVG Version: 6.00 Build 0)  -->
<svg version="1.1" id="Ebene_1" xmlns="http://www.w3.org/2000/svg" xmlns:xlink="http://www.w3.org/1999/xlink" x="0px" y="0px"
	 viewBox="0 0 771.5 359.9" style="enable-background:new 0 0 771.5 359.9;" xml:space="preserve">
<style type="text/css">
	.st0{stroke:#000000;stroke-width:3;stroke-miterlimit:10;}
</style>
<g>
	<path class="st0" d="M275.9,164.3c4.2-16.7,7.8-27.3,10.9-32s2.1-8.8-3.1-12.5c-5.2-3.6-12.3-6.8-21.1-9.4c-8.9-2.6-11.2-0.5-7,6.2
		c4.2,6.8,4.2,23.7,0,50.8l-40.6,4.7c2.1-14.6,4.2-23.7,6.2-27.3c2.1-3.6,1.6-7-1.6-10.2s-9.6-6-19.5-8.6c-9.9-2.6-13-1-9.4,4.7
		c3.6,5.7,4.9,20.6,3.9,44.5l-32.8,3.1c0-13.5,1.3-22.4,3.9-26.6c2.6-4.2,0.8-7.3-5.5-9.4c-6.2-2.1-12.5-3.6-18.8-4.7
		c-6.2-1-7.6,1-3.9,6.2c3.6,5.2,5.7,11.5,6.2,18.8c0.5,7.3,0.8,13,0.8,17.2l-32.8,3.1c0-9.4,0.5-16.9,1.6-22.7
		c1-5.7-0.3-9.4-3.9-10.9c-3.7-1.6-10.2-3.4-19.5-5.5c-9.4-2.1-12.5-1-9.4,3.1c3.1,4.2,6,9.4,8.6,15.6c2.6,6.2,4.4,13.5,5.5,21.9
		c-17.7,2.1-29.2,3.1-34.4,3.1c-4.2,0-3.4,2.6,2.3,7.8c5.7,5.2,11.2,7.6,16.4,7c5.2-0.5,11.5-1.8,18.8-3.9c1,8.3,2.6,21.9,4.7,40.6
		c-5.2,0-19,1.6-41.4,4.7c-22.4,3.1-38,4.4-46.9,3.9c-8.9-0.5-11.2,1-7,4.7c4.2,3.7,9.1,6.8,14.8,9.4c5.7,2.6,14.6,3.1,26.6,1.6
		c12-1.6,28.4-3.9,49.2-7c20.8-3.1,39.3-5.2,55.5-6.3c16.1-1,34.4-2.1,54.7-3.1c20.3-1,42.4-1.6,66.4-1.6c25,0,43,1,53.9,3.1
		c10.9,2.1,19.5,3.1,25.8,3.1s8.8-2.1,7.8-6.2c-1-4.2-4.7-8.6-10.9-13.3s-14.6-7-25-7c-10.4,0-19,0.3-25.8,0.8
		c-6.8,0.5-20.1,1.3-39.8,2.3l12.5-46.9c16.7-1,28.4-1.8,35.2-2.3c6.8-0.5,9.9-2.3,9.4-5.5c-0.5-3.1-3.7-6-9.4-8.6
		c-5.7-2.6-11.2-3.6-16.4-3.1C286.3,162.5,281.1,163.3,275.9,164.3L275.9,164.3L275.9,164.3z M147.8,89.3
		c9.4-14.6,17.2-27.1,23.4-37.5c6.2-10.4,11.2-17.7,14.8-21.9c3.6-4.2,2.6-8.3-3.1-12.5c-5.7-4.2-12.5-7.3-20.3-9.4
		c-7.8-2.1-10.7,0.3-8.6,7c2.1,6.8-1,19.5-9.4,38.3c-8.3,18.8-15.9,32.8-22.7,42.2c-6.8,9.4-14.1,18.2-21.9,26.6
		c-7.8,8.3-6,9.9,5.5,4.7c11.5-5.2,23.4-15.1,35.9-29.7c17.7,4.2,34.9,5.2,51.6,3.1c16.7-2.1,29.4-4.2,38.3-6.2
		c8.8-2.1,16.1-4.2,21.9-6.2c5.7-2.1,9.9-4.9,12.5-8.6c2.6-3.6,0.2-6.8-7-9.4c-7.3-2.6-15.1-2.6-23.4,0c-8.3,2.6-18.5,5.7-30.5,9.4
		C192.8,82.9,173.8,86.2,147.8,89.3L147.8,89.3L147.8,89.3z M272.8,275.3c-9.4-3.1-12-0.8-7.8,7c4.2,7.8,9.4,16.4,15.6,25.8
		s12.7,18.2,19.5,26.6c6.8,8.3,11.7,11.4,14.8,9.4c3.1-2.1,4.7-7.3,4.7-15.6c0-8.3-1.8-15.6-5.5-21.9c-3.7-6.2-8.9-12.2-15.6-18
		C291.8,282.9,283.2,278.4,272.8,275.3L272.8,275.3L272.8,275.3z M213.4,186.2l40.6-3.1l-9.4,45.3l-37.5,3.1L213.4,186.2
		L213.4,186.2z M74.3,283.1c-2.1-4.2-3.7-4.9-4.7-2.3c-1,2.6-3.9,8.3-8.6,17.2c-4.7,8.9-8.3,15.4-10.9,19.5
		c-2.6,4.2-3.4,10.7-2.3,19.5c1,8.8,2.9,14.1,5.5,15.6c2.6,1.6,6.2-0.5,10.9-6.2c4.7-5.7,8.1-12.8,10.2-21.1
		c2.1-8.3,3.1-16.7,3.1-25C77.5,292,76.4,286.2,74.3,283.1L74.3,283.1L74.3,283.1z M161.8,192.5l32.8-3.1l-3.1,42.2l-31.2,3.1
		L161.8,192.5L161.8,192.5z M113.4,197.2l31.2-3.1v40.6l-29.7,3.1L113.4,197.2L113.4,197.2z M199.3,278.4c-6.2-1-6.5,3.7-0.8,14.1
		c5.7,10.4,11.5,19.3,17.2,26.6c5.7,7.3,9.9,9.1,12.5,5.5c2.6-3.6,4.2-7.8,4.7-12.5c0.5-4.7,0-9.1-1.6-13.3
		c-1.6-4.2-5.5-8.3-11.7-12.5C213.4,282.1,206.6,279.5,199.3,278.4L199.3,278.4L199.3,278.4z M127.5,286.2c-3.1,0-2.6,4.2,1.6,12.5
		c4.2,8.3,8.8,15.9,14.1,22.7c5.2,6.8,9.4,9.4,12.5,7.8s5.5-5.5,7-11.7s0.2-12-3.9-17.2c-4.2-5.2-9.6-9.1-16.4-11.7
		C135.5,286,130.6,285.2,127.5,286.2L127.5,286.2L127.5,286.2z M640,151.8c5.2,9.4,9.1,12.3,11.7,8.6c2.6-3.6,5.5-11.5,8.6-23.4
		c3.1-12,5.7-24.7,7.8-38.3c2.1-13.5,4.9-24.5,8.6-32.8c3.6-8.3,7.8-15.1,12.5-20.3c4.7-5.2,2.9-10.2-5.5-14.8
		c-8.3-4.7-15.9-7.8-22.7-9.4c-6.8-1.6-12.3-0.5-16.4,3.1c-4.2,3.7-14.3,8.9-30.5,15.6c-16.2,6.8-29.4,8.6-39.8,5.5
		c-10.4-3.1-14.6-2.1-12.5,3.1c2.1,5.2,4.4,13.5,7,25c2.6,11.5,3.9,38.5,3.9,81.2c0,42.7-1.3,76-3.9,100c-2.6,24-6.5,39.8-11.7,47.7
		c-5.2,7.8-3.7,18.5,4.7,32c8.3,13.5,14.6,16.4,18.8,8.6c4.2-7.8,13.3-21.9,27.3-42.2s22.9-33.3,26.6-39.1c3.6-5.7,0-4.7-10.9,3.1
		s-20.3,15.1-28.1,21.9c-7.8,6.8-11.7,5.5-11.7-3.9l1.6-29.7c1-10.4,1.6-33.3,1.6-68.8c16.7,12.5,35.4,30.2,56.2,53.1
		c20.8,22.9,34.9,37.5,42.2,43.8c7.3,6.2,16.9,8.6,28.9,7c12-1.6,23.2-3.4,33.6-5.5c10.4-2.1,16.4-3.9,18-5.5s-6.2-4.7-23.4-9.4
		s-34.9-12.5-53.1-23.4c-18.2-10.9-34.1-21.6-47.7-32c8.3-4.2,18.2-10.4,29.7-18.8c11.5-8.3,20.6-14.1,27.3-17.2
		c6.8-3.1,8.8-6.8,6.2-10.9c-2.6-4.2-8.1-8.6-16.4-13.3c-8.3-4.7-12.8-5.7-13.3-3.1c-0.5,2.6-1.8,7-3.9,13.3
		c-2.1,6.2-7.3,13.5-15.6,21.9l-21.9,21.9c-11.5-10.4-19.8-18-25-22.7c-5.2-4.7-12.5-7.5-21.9-8.6v-12.5c10.4-2.1,20-3.9,28.9-5.5
		C624.6,155.8,632.7,153.9,640,151.8L640,151.8L640,151.8z M493.1,165.9c-12.5,1-21.1,2.1-25.8,3.1c-4.7,1,0,4.7,14.1,10.9
		s24,11.7,29.7,16.4c5.7,4.7,10.7,4.4,14.8-0.8c4.2-5.2,4.2-13.8,0-25.8c-4.2-12-10.2-23.7-18-35.2c-7.8-11.5-7-25.2,2.3-41.4
		c9.4-16.1,17.4-26.6,24.2-31.2c6.8-4.7,6.8-9.1,0-13.3c-6.8-4.2-13.5-7.3-20.3-9.4c-6.8-2.1-12-1.6-15.6,1.6
		c-3.7,3.1-8.6,6.2-14.8,9.4S471,56,464.2,58.1c-6.8,2.1-12.8,3.1-18,3.1c-12.5-1-18.2,0.3-17.2,3.9c1,3.7,2.9,7.6,5.5,11.7
		c2.6,4.2,4.4,13,5.5,26.6c1,13.5,1.6,28.1,1.6,43.7V194c0,15.6-0.3,31.5-0.8,47.7c-0.5,16.2-2.3,28.9-5.5,38.3s-1.8,21.9,3.9,37.5
		c5.7,15.6,10.4,19.3,14.1,10.9c3.6-8.3,5.7-22.7,6.2-43c0.5-20.3,0.5-47.7,0-82c-0.5-34.4-1.3-77.6-2.3-129.7
		c15.6-6.2,26.8-9.9,33.6-10.9c6.8-1,7.8,4.7,3.1,17.2s-6.5,24.2-5.5,35.2c1,10.9,3.1,21.6,6.2,32
		C497.8,157.6,497.2,163.8,493.1,165.9L493.1,165.9L493.1,165.9z M586.8,108.1c14.6-1,26-2.9,34.4-5.5c8.3-2.6,10.7-6,7-10.2
		c-3.7-4.2-9.4-4.9-17.2-2.3c-7.8,2.6-15.9,5-24.2,7V59.7c27.1-7.3,44.8-11.7,53.1-13.3c8.3-1.6,11.7,5.5,10.2,21.1
		s-3.4,32-5.5,49.2c-2.1,17.2-4.7,25-7.8,23.4s-9.1-0.8-18,2.3c-8.9,3.1-19.5,5.7-32,7.8V108.1L586.8,108.1z"/>
</g>
</svg>
