<?xml version="1.0" encoding="utf-8"?>
<!-- Generator: Adobe Illustrator 23.0.1, SVG Export Plug-In . SVG Version: 6.00 Build 0)  -->
<svg version="1.1" id="Ebene_1" xmlns="http://www.w3.org/2000/svg" xmlns:xlink="http://www.w3.org/1999/xlink" x="0px" y="0px"
	 viewBox="0 0 738.1 354.7" style="enable-background:new 0 0 738.1 354.7;" xml:space="preserve">
<style type="text/css">
	.st0{stroke:#000000;stroke-width:3;stroke-miterlimit:10;}
</style>
<g>
	<path class="st0" d="M124.9,50.4c19.8-5.2,34.9-9.6,45.3-13.3c10.4-3.6,13.3-7.8,8.6-12.5s-10.9-6-18.8-3.9
		c-7.8,2.1-21.6,5.5-41.4,10.2c-19.8,4.7-33.3,7.3-40.6,7.8c-7.3,0.5-7.3,2.9,0,7C85.3,49.9,97.3,52,114,52
		c5.2,10.4,8.1,19.5,8.6,27.3c0.5,7.8,0.8,20.6,0.8,38.3c-15.6,3.1-26.8,5.5-33.6,7c-6.8,1.6-13,2.9-18.8,3.9
		c-5.7,1-7.8-2.3-6.2-10.2c1.6-7.8,3.9-14.1,7-18.8s2.3-8.6-2.3-11.7s-10.2-5.7-16.4-7.8c-6.2-2.1-8.3,0.5-6.2,7.8
		c2.1,7.3,2.6,15.4,1.6,24.2c-1,8.9-4.7,15.6-10.9,20.3c-6.3,4.7-7.6,11.2-3.9,19.5c3.6,8.3,8.6,10.4,14.8,6.2
		c6.2-4.2,15.1-8.6,26.6-13.3c11.5-4.7,23.4-8.6,35.9-11.7c-10.4,22.9-25.3,44.8-44.5,65.6c-19.3,20.8-35.9,36.2-50,46.1
		c-14.1,9.9-12.3,11.5,5.5,4.7c17.7-6.8,35.9-19.5,54.7-38.3s34.4-38.5,46.9-59.4v50c0,12.5-0.5,25.8-1.6,39.8
		c-1,14.1-4.2,21.1-9.4,21.1c-5.2,0-12.3-0.5-21.1-1.6c-8.9-1-8.9,1.6,0,7.8c8.8,6.2,15.9,14.3,21.1,24.2
		c5.2,9.9,10.7,11.2,16.4,3.9c5.7-7.3,9.6-16.1,11.7-26.6c2.1-10.4,2.9-22.4,2.3-35.9c-0.5-13.5-1.3-49.5-2.3-107.8
		c19.8-3.1,35.2-5.5,46.1-7s12.5-4.7,4.7-9.4s-15.4-6-22.7-3.9c-7.3,2.1-16.7,4.2-28.1,6.2c1-21.9,2.1-35.7,3.1-41.4
		C144.7,65.8,138.5,58.8,124.9,50.4L124.9,50.4L124.9,50.4z M274.9,111.4c8.3-12.5,17.7-25,28.1-37.5c10.4-12.5,19.8-20.6,28.1-24.2
		c8.3-3.6,8.8-8.1,1.6-13.3c-7.3-5.2-14.3-9.6-21.1-13.3c-6.8-3.6-12-3.9-15.6-0.8c-3.7,3.1-10.7,6.5-21.1,10.2
		c-10.4,3.7-20.1,6.5-28.9,8.6c-8.9,2.1-16.2,2.1-21.9,0c-5.7-2.1-12-3.4-18.8-3.9c-6.8-0.5-7,3.7-0.8,12.5
		c6.2,8.9,9.4,25.8,9.4,50.8v196.9c0,38.5,2.1,55.7,6.2,51.6c4.2-4.2,7.8-28.1,10.9-71.9c3.1-43.8,3.1-118.2,0-223.4
		c22.9-5.2,38-8.6,45.3-10.2c7.3-1.6,11.7-1.3,13.3,0.8c1.6,2.1-1.6,11.7-9.4,28.9s-13.5,28.4-17.2,33.6c-3.7,5.2-0.5,11.7,9.4,19.5
		c9.9,7.8,18.8,20.6,26.6,38.3c7.8,17.7,8.3,27.3,1.6,28.9c-6.8,1.6-17.5,1.6-32,0c-14.6-1.6-13.5,1.3,3.1,8.6
		c16.7,7.3,29.2,16.9,37.5,28.9c8.3,12,15.9,9.4,22.7-7.8c6.8-17.2,5.5-34.9-3.9-53.1C318.7,151.8,301,132.2,274.9,111.4
		L274.9,111.4L274.9,111.4z M601.5,30.1c15.6-3.1,27.6-5.2,35.9-6.2c8.3-1,15.6-2.9,21.9-5.5c6.2-2.6,5.2-6-3.1-10.2
		c-8.3-4.2-19.8-4.7-34.4-1.6c-14.6,3.1-34.4,6.5-59.4,10.2c-25,3.7-44.8,5.5-59.4,5.5c-13.5,0-17.5,2.3-11.7,7
		c5.7,4.7,15.4,8.1,28.9,10.2c5.2,9.4,7.3,25,6.2,46.9c-28.1,5.2-44.3,7.3-48.4,6.2c-4.2-1-9.9-1.6-17.2-1.6c-6.2,0-6.8,2.3-1.6,7
		c5.2,4.7,8.3,13.3,9.4,25.8c1,12.5,1,21.4,0,26.6c-1,5.2,0.2,10.2,3.9,14.8c3.6,4.7,7,5,10.2,0.8c3.1-4.2,8.3-7.5,15.6-10.2
		c7.3-2.6,13.5-4.2,18.8-4.7c5.2-0.5,7.3,12.3,6.2,38.3c-36.5,7.3-59.9,10.9-70.3,10.9c-10.4,0-14.1,1.6-10.9,4.7s7.8,6.2,14.1,9.4
		s13.3,3.4,21.1,0.8c7.8-2.6,21.1-5.5,39.8-8.6s46.3-7,82.8-11.7c36.5-4.7,60.9-6.5,73.4-5.5c12.5,1,19.3-0.2,20.3-3.9
		c1-3.6-1.8-7.5-8.6-11.7c-6.8-4.2-16.2-4.9-28.1-2.3c-12,2.6-30,5-53.9,7c0-10.4,0.5-24.5,1.6-42.2c32.3-4.2,50.2-7.3,53.9-9.4
		c3.6-2.1,2.9-6.2-2.3-12.5c5.2-13.5,11.5-22.9,18.8-28.1c7.3-5.2,7.8-10.2,1.6-14.8s-12.8-8.3-19.5-10.9
		c-6.8-2.6-11.7-2.3-14.8,0.8s-9.6,6.2-19.5,9.4c-9.9,3.1-14.6,1.3-14.1-5.5c0.5-6.8,2.1-12.7,4.7-18
		C615.8,42.1,611.9,36.4,601.5,30.1L601.5,30.1L601.5,30.1z M535.9,37.9c27.1-3.1,45.3-5.2,54.7-6.2c2.1,8.3,3.1,16.7,3.1,25
		c0,7.3-1.3,13.5-3.9,18.8c-2.6,5.2-2.1,9.9,1.6,14.1c3.6,4.2,7.3,4.7,10.9,1.6c3.6-3.1,8.6-5.7,14.8-7.8c6.2-2.1,12.2-3.4,18-3.9
		c5.7-0.5,8.8,1.3,9.4,5.5c0.5,4.2-0.8,15.1-3.9,32.8c-9.4,2.1-17.5,3.9-24.2,5.5c-6.8,1.6-14.8,1-24.2-1.6
		c-9.4-2.6-12.8-0.8-10.2,5.5c2.6,6.2,4.4,24,5.5,53.1c-16.7,3.1-33.3,5.7-50,7.8c1-20.8,3.4-33.3,7-37.5c3.6-4.2,1-8.6-7.8-13.3
		c-8.9-4.7-15.1-5.2-18.8-1.6c-3.7,3.7-14.8,7-33.6,10.2v-42.2c27.1-3.1,46.1-5.2,57-6.2c10.9-1,10.7-5.7-0.8-14.1
		c1-13.5,2.1-22.9,3.1-28.1C544.7,49.9,542.1,44.2,535.9,37.9L535.9,37.9L535.9,37.9z M506.2,247.3c-7.3-14.6-11.5-20-12.5-16.4
		c-1,3.7,0.5,11.5,4.7,23.4c4.2,12,11.2,24.2,21.1,36.7c9.9,12.5,23.2,21.6,39.8,27.3c16.7,5.7,35.9,8.6,57.8,8.6s40.9-1.8,57-5.5
		c16.1-3.7,25.2-8.1,27.3-13.3c2.1-5.2-1.8-10.2-11.7-14.8c-9.9-4.7-22.1-15.6-36.7-32.8c-14.6-17.2-20.1-20.8-16.4-10.9
		c3.6,9.9,8.1,19.5,13.3,28.9c5.2,9.4,6,15.4,2.3,18c-3.7,2.6-14.6,4.2-32.8,4.7c-18.2,0.5-33.9-0.2-46.9-2.3
		c-13-2.1-25.3-7.5-36.7-16.4C524.4,273.6,514.5,261.9,506.2,247.3L506.2,247.3L506.2,247.3z M667.1,206.7c-11.5,0-13,2.6-4.7,7.8
		c8.3,5.2,16.7,11.5,25,18.8c8.3,7.3,15.9,13,22.7,17.2c6.8,4.2,11.7,6,14.8,5.5c3.1-0.5,5.2-3.1,6.2-7.8c1-4.7-1.3-11.7-7-21.1
		c-5.7-9.4-13.5-15.1-23.4-17.2C690.8,207.7,679.6,206.7,667.1,206.7L667.1,206.7L667.1,206.7z M454.6,228.6c-1-5.2-3.9-2.3-8.6,8.6
		s-10.4,20.3-17.2,28.1c-6.8,7.8-10.9,14.6-12.5,20.3c-1.6,5.7-1,10.9,1.6,15.6c2.6,4.7,6.5,5.5,11.7,2.3
		c5.2-3.1,10.9-9.4,17.2-18.7s9.4-19.8,9.4-31.3C456.2,242.1,455.6,233.8,454.6,228.6L454.6,228.6L454.6,228.6z M576.5,217.6
		c-8.3-2.1-15.4-2.9-21.1-2.3c-5.7,0.5-4.2,4.7,4.7,12.5c8.8,7.8,16.7,14.1,23.4,18.8c6.8,4.7,12,5.5,15.6,2.3
		c3.6-3.1,4.9-7,3.9-11.7c-1-4.7-3.7-8.8-7.8-12.5C591.1,221,584.8,218.7,576.5,217.6L576.5,217.6L576.5,217.6z"/>
</g>
</svg>
