<?xml version="1.0" encoding="utf-8"?>
<!-- Generator: Adobe Illustrator 23.0.1, SVG Export Plug-In . SVG Version: 6.00 Build 0)  -->
<svg version="1.1" id="Layer_1" xmlns="http://www.w3.org/2000/svg" xmlns:xlink="http://www.w3.org/1999/xlink" x="0px" y="0px"
	 viewBox="0 0 1428.3 1277.4" style="enable-background:new 0 0 1428.3 1277.4;" xml:space="preserve">
<g>
	<g>
		<path d="M1412.3,854.3c0-1.5-0.3-3-0.9-4.4l-213-479c31.3-7.3,37.6-26.5,34.9-39.2c-4.5-21.6-28.7-27.3-39-20.5
			c-16.3,10.9,22.6,45.1-43.1,25.3c-47.6-14.4-159.9-77.3-276.2-112.8c-51.3-15.7-99.4-20-129.9-20.9v-22.1c6,0,10.9-4.9,10.9-10.9
			c0-6-4.9-10.9-10.9-10.9l-17.6-35.2c22.8-6.6,39.5-27.4,39.5-52.3c0-30.2-24.5-54.7-54.7-54.7c-30.2,0-54.7,24.5-54.7,54.7
			c0,24.9,16.7,45.7,39.5,52.3l-17.6,35.2c-6,0-10.9,4.9-10.9,10.9c0,6,4.9,10.9,10.9,10.9v22.1c-30.4,1-78.6,5.3-129.9,20.9
			c-116.2,35.5-228.6,98.4-276.2,112.8c-65.6,19.8-26.7-14.4-43.1-25.3c-10.3-6.8-34.4-1.1-39,20.5c-2.7,12.7,3.6,31.9,34.9,39.2
			l-213,479c-0.6,1.5-0.9,3-0.9,4.4h0c0,0,0,0.1,0.1,0.1c0.2,0.4,1.8,3.8,5.3,9.1c17,26,77.3,98,224.3,98c147,0,207.3-72,224.3-98
			c3.5-5.3,5.1-8.7,5.3-9.1c0,0,0.1-0.1,0.1-0.1h0c0-1.5-0.3-3-0.9-4.4L258.6,372.8c48.8-5.6,131.7-45.9,247.7-71.2
			c84.9-18.5,141.2-23,173.2-23.6v22.9c-6,0-10.9,4.9-10.9,10.9c0,6,4.9,10.9,10.9,10.9v667.4c-13.2,10-21.9,25.7-21.9,43.5
			c0,17.3,8.2,32.6,20.8,42.6c-2.3,33.9-8.3,74.9-23.6,92.8c-36.6,42.9-135.3,47.4-154.1,50.5h-50.9c-24.1,0-43.8,11.8-43.8,26.3
			c0,9.6,9.8,17.5,21.9,17.5h251.6h65.6h251.6c12,0,21.9-7.9,21.9-17.5c0-14.4-19.7-26.3-43.8-26.3h-49.9
			c-17.2-3.2-117.8-7.3-154.8-50.6c-15.3-17.9-21.3-58.9-23.6-92.9c12.4-10,20.5-25.2,20.5-42.4c0-17.8-8.7-33.5-21.9-43.5V322.8
			c6,0,10.9-4.9,10.9-10.9c0-6-4.9-10.9-10.9-10.9V278c32,0.6,88.3,5.1,173.2,23.6c116,25.3,198.9,65.6,247.7,71.2L953.9,849.9
			c-0.6,1.5-0.9,3-0.9,4.4h0c0,0,0,0.1,0.1,0.1c0.2,0.4,1.8,3.8,5.3,9.1c17,26,77.3,98,224.3,98c147,0,207.3-72,224.3-98
			c3.5-5.3,5.1-8.7,5.3-9.1C1412.3,854.4,1412.3,854.3,1412.3,854.3L1412.3,854.3L1412.3,854.3z M35.2,854.3l206.8-465l206.8,465
			H35.2z M975.8,854.3l206.8-465l206.8,465H975.8z"/>
	</g>
</g>
</svg>
