<?xml version="1.0" encoding="utf-8"?>
<!-- Generator: Adobe Illustrator 23.0.1, SVG Export Plug-In . SVG Version: 6.00 Build 0)  -->
<svg version="1.1" id="Layer_1" xmlns="http://www.w3.org/2000/svg" xmlns:xlink="http://www.w3.org/1999/xlink" x="0px" y="0px"
	 viewBox="0 0 68.6 63.3" style="enable-background:new 0 0 68.6 63.3;" xml:space="preserve">
<style type="text/css">
	.st0{fill:#010101;}
</style>
<g>
	<path class="st0" d="M0.7,62.6v-3.9V13.6V8.9l5.9,0V6.7c0,0,2.4,0.2,3.1,0C18.5,4.6,22.8,0.8,32,0.8c0.1,0,0.2,0,0.3,0v61.8H0.7z
		 M29.7,13.2H10v1.1h19.6V13.2z M29.7,19.2H10v1.1h19.6V19.2z M29.7,25.1H10v1.1h19.6V25.1z M29.7,31.1H10v1.1h19.6V31.1z
		 M29.7,37.1H10v1.1h19.6V37.1z M29.7,43.1H10v1.1h19.6V43.1z M29.7,49.1H10v1.1h19.6V49.1z M29.7,55H10v1.1h19.6V55z"/>
	<path class="st0" d="M36.5,62.6V0.8c0.1,0,0.2,0,0.3,0c9.2,0,13.6,3.8,22.4,5.9c0.7,0.2,3.1,0,3.1,0v2.2l5.5,0v4.7v45.1v3.9H36.5z
		 M58.6,13.2H39v1.1h19.6V13.2z M58.6,19.2H39v1.1h19.6V19.2z M58.6,25.1H39v1.1h19.6V25.1z M58.6,31.1H39v1.1h19.6V31.1z
		 M58.6,37.1H39v1.1h19.6V37.1z M58.6,43.1H39v1.1h19.6V43.1z M58.6,49.1H39v1.1h19.6V49.1z M58.6,55H39v1.1h19.6V55z"/>
</g>
</svg>
