<svg viewBox="0 0 50 50" xmlns="http://www.w3.org/2000/svg" data-icon="close">
    <path d="M12.147,18.368c-1.474,-1.473 -2.317,-2.995 -2.531,-4.566c-0.213,-1.571 0.281,-2.957 1.484,-4.159c0.194,-0.194 0.543,-0.446 1.047,-0.757c0.504,-0.31 0.892,-0.523 1.163,-0.639c0.698,0.93 1.396,1.783 2.094,2.559c0.698,0.776 1.61,1.726 2.734,2.851c2.444,2.443 4.8,4.682 7.068,6.718c2.269,2.036 4.353,3.849 6.254,5.439c1.9,1.59 3.529,2.948 4.886,4.072c1.358,1.125 2.366,2.017 3.025,2.676c0.892,0.892 1.251,2.143 1.076,3.752c-0.174,1.61 -0.94,3.403 -2.298,5.381c-1.085,-1.318 -1.987,-2.375 -2.704,-3.17c-0.718,-0.795 -1.368,-1.483 -1.949,-2.065c-2.094,-2.094 -4.111,-3.936 -6.05,-5.526c-1.939,-1.591 -3.791,-3.074 -5.555,-4.451c-1.765,-1.376 -3.471,-2.714 -5.12,-4.013c-1.648,-1.3 -3.189,-2.667 -4.624,-4.102Z" />
    <path d="M31.632,12.089c1.473,-1.474 2.995,-2.318 4.566,-2.531c1.571,-0.213 2.957,0.281 4.159,1.483c0.194,0.194 0.446,0.543 0.757,1.048c0.31,0.504 0.523,0.892 0.639,1.163c-0.93,0.698 -1.783,1.396 -2.559,2.094c-0.776,0.698 -1.726,1.61 -2.851,2.734c-2.443,2.443 -4.682,4.799 -6.718,7.068c-2.036,2.269 -3.849,4.353 -5.439,6.254c-1.59,1.9 -2.948,3.529 -4.072,4.886c-1.125,1.357 -2.017,2.366 -2.676,3.025c-0.892,0.892 -2.143,1.251 -3.752,1.076c-1.61,-0.174 -3.403,-0.94 -5.381,-2.298c1.318,-1.086 2.375,-1.987 3.17,-2.705c0.795,-0.717 1.483,-1.367 2.065,-1.948c2.094,-2.095 3.936,-4.111 5.526,-6.05c1.591,-1.939 3.074,-3.791 4.451,-5.556c1.376,-1.764 2.714,-3.471 4.013,-5.119c1.3,-1.648 2.667,-3.19 4.102,-4.624Z" />
</svg>
