<svg viewBox="0 0 50 50" xmlns="http://www.w3.org/2000/svg" data-icon="nav-icon">
    <path d="M11.015,14.335c-2.085,0 -3.757,-0.48 -5.019,-1.44c-1.261,-0.96 -1.892,-2.29 -1.892,-3.99c0,-0.274 0.069,-0.699 0.206,-1.275c0.137,-0.576 0.26,-1.001 0.37,-1.275c1.152,0.165 2.249,0.274 3.291,0.329c1.042,0.055 2.358,0.082 3.949,0.082c3.455,0 6.704,-0.082 9.748,-0.246c3.044,-0.165 5.8,-0.357 8.268,-0.576c2.468,-0.22 4.58,-0.412 6.335,-0.576c1.755,-0.165 3.098,-0.247 4.031,-0.247c1.261,0 2.399,0.631 3.414,1.892c1.014,1.262 1.741,3.071 2.18,5.43c-1.7,-0.165 -3.085,-0.274 -4.155,-0.329c-1.069,-0.055 -2.015,-0.083 -2.838,-0.083c-2.961,0 -5.69,0.124 -8.185,0.371c-2.496,0.246 -4.854,0.507 -7.075,0.781c-2.222,0.274 -4.374,0.535 -6.458,0.782c-2.084,0.247 -4.141,0.37 -6.17,0.37Z" />
    <path d="M11.015,29.607c-2.085,0 -3.757,-0.48 -5.019,-1.44c-1.261,-0.959 -1.892,-2.289 -1.892,-3.99c0,-0.274 0.069,-0.699 0.206,-1.275c0.137,-0.576 0.26,-1.001 0.37,-1.275c1.152,0.165 2.249,0.274 3.291,0.329c1.042,0.055 2.358,0.082 3.949,0.082c3.455,0 6.704,-0.082 9.748,-0.246c3.044,-0.165 5.8,-0.357 8.268,-0.576c2.468,-0.22 4.58,-0.412 6.335,-0.576c1.755,-0.165 3.098,-0.247 4.031,-0.247c1.261,0 2.399,0.631 3.414,1.892c1.014,1.262 1.741,3.071 2.18,5.43c-1.7,-0.165 -3.085,-0.274 -4.155,-0.329c-1.069,-0.055 -2.015,-0.083 -2.838,-0.083c-2.961,0 -5.69,0.124 -8.185,0.371c-2.496,0.246 -4.854,0.507 -7.075,0.781c-2.222,0.274 -4.374,0.535 -6.458,0.782c-2.084,0.247 -4.141,0.37 -6.17,0.37Z" />
    <path d="M11.015,44.879c-2.085,0 -3.757,-0.48 -5.019,-1.44c-1.261,-0.959 -1.892,-2.289 -1.892,-3.99c0,-0.274 0.069,-0.699 0.206,-1.275c0.137,-0.576 0.26,-1.001 0.37,-1.275c1.152,0.165 2.249,0.274 3.291,0.329c1.042,0.055 2.358,0.082 3.949,0.082c3.455,0 6.704,-0.082 9.748,-0.246c3.044,-0.165 5.8,-0.357 8.268,-0.576c2.468,-0.22 4.58,-0.412 6.335,-0.576c1.755,-0.165 3.098,-0.247 4.031,-0.247c1.261,0 2.399,0.631 3.414,1.892c1.014,1.262 1.741,3.072 2.18,5.43c-1.7,-0.165 -3.085,-0.274 -4.155,-0.329c-1.069,-0.055 -2.015,-0.082 -2.838,-0.082c-2.961,0 -5.69,0.123 -8.185,0.37c-2.496,0.247 -4.854,0.507 -7.075,0.781c-2.222,0.275 -4.374,0.535 -6.458,0.782c-2.084,0.247 -4.141,0.37 -6.17,0.37Z" />
</svg>
