<?xml version="1.0" encoding="UTF-8" standalone="no"?>
<!DOCTYPE svg PUBLIC "-//W3C//DTD SVG 1.1//EN" "http://www.w3.org/Graphics/SVG/1.1/DTD/svg11.dtd">
<svg width="100%" height="100%" viewBox="0 0 50 50" version="1.1" xmlns="http://www.w3.org/2000/svg" xmlns:xlink="http://www.w3.org/1999/xlink" xml:space="preserve" xmlns:serif="http://www.serif.com/" style="fill-rule:evenodd;clip-rule:evenodd;stroke-linejoin:round;stroke-miterlimit:1.41421;">
    <g transform="matrix(1,0,0,1,0,2.77017)">
        <g transform="matrix(2.2852,0,0,2.2852,-7.0842,-123.682)">
            <path d="M7.92,59.184C7.008,59.184 6.276,58.974 5.724,58.554C5.172,58.134 4.896,57.552 4.896,56.808C4.896,56.688 4.926,56.502 4.986,56.25C5.046,55.998 5.1,55.812 5.148,55.692C5.652,55.764 6.132,55.812 6.588,55.836C7.044,55.86 7.62,55.872 8.316,55.872C9.828,55.872 11.25,55.836 12.582,55.764C13.914,55.692 15.12,55.608 16.2,55.512C17.28,55.416 18.204,55.332 18.972,55.26C19.74,55.188 20.328,55.152 20.736,55.152C21.288,55.152 21.786,55.428 22.23,55.98C22.674,56.532 22.992,57.324 23.184,58.356C22.44,58.284 21.834,58.236 21.366,58.212C20.898,58.188 20.484,58.176 20.124,58.176C18.828,58.176 17.634,58.23 16.542,58.338C15.45,58.446 14.418,58.56 13.446,58.68C12.474,58.8 11.532,58.914 10.62,59.022C9.708,59.13 8.808,59.184 7.92,59.184Z" style="fill-rule:nonzero;"/>
        </g>
        <g transform="matrix(2.2852,0,0,2.2852,-7.0842,-108.41)">
            <path d="M7.92,59.184C7.008,59.184 6.276,58.974 5.724,58.554C5.172,58.134 4.896,57.552 4.896,56.808C4.896,56.688 4.926,56.502 4.986,56.25C5.046,55.998 5.1,55.812 5.148,55.692C5.652,55.764 6.132,55.812 6.588,55.836C7.044,55.86 7.62,55.872 8.316,55.872C9.828,55.872 11.25,55.836 12.582,55.764C13.914,55.692 15.12,55.608 16.2,55.512C17.28,55.416 18.204,55.332 18.972,55.26C19.74,55.188 20.328,55.152 20.736,55.152C21.288,55.152 21.786,55.428 22.23,55.98C22.674,56.532 22.992,57.324 23.184,58.356C22.44,58.284 21.834,58.236 21.366,58.212C20.898,58.188 20.484,58.176 20.124,58.176C18.828,58.176 17.634,58.23 16.542,58.338C15.45,58.446 14.418,58.56 13.446,58.68C12.474,58.8 11.532,58.914 10.62,59.022C9.708,59.13 8.808,59.184 7.92,59.184Z" style="fill-rule:nonzero;"/>
        </g>
        <g transform="matrix(2.2852,0,0,2.2852,-7.0842,-93.1384)">
            <path d="M7.92,59.184C7.008,59.184 6.276,58.974 5.724,58.554C5.172,58.134 4.896,57.552 4.896,56.808C4.896,56.688 4.926,56.502 4.986,56.25C5.046,55.998 5.1,55.812 5.148,55.692C5.652,55.764 6.132,55.812 6.588,55.836C7.044,55.86 7.62,55.872 8.316,55.872C9.828,55.872 11.25,55.836 12.582,55.764C13.914,55.692 15.12,55.608 16.2,55.512C17.28,55.416 18.204,55.332 18.972,55.26C19.74,55.188 20.328,55.152 20.736,55.152C21.288,55.152 21.786,55.428 22.23,55.98C22.674,56.532 22.992,57.324 23.184,58.356C22.44,58.284 21.834,58.236 21.366,58.212C20.898,58.188 20.484,58.176 20.124,58.176C18.828,58.176 17.634,58.23 16.542,58.338C15.45,58.446 14.418,58.56 13.446,58.68C12.474,58.8 11.532,58.914 10.62,59.022C9.708,59.13 8.808,59.184 7.92,59.184Z" style="fill-rule:nonzero;"/>
        </g>
    </g>
</svg>
