<svg data-icon="paging" viewBox="0 0 50 50" xmlns="http://www.w3.org/2000/svg"><path class="icon-square" d="M50,50l-50,0l0,-50l50,0c0,16.667 0,33.333 0,50Zm-46,-4l42,0l0,-42l-42,0c0,14 0,28 0,42Z" /><path class="icon-pointing" d="M16.59,24.259c2.224,-0.808 4.124,-1.544 5.702,-2.207c1.578,-0.664 2.921,-1.311 4.029,-1.943c1.109,-0.632 2.014,-1.247 2.715,-1.845c0.702,-0.598 1.283,-1.255 1.743,-1.97c0.038,-0.011 0.085,0.079 0.14,0.271l0.067,0.231c0.321,1.114 -0.108,2.477 -1.288,4.087c-1.18,1.61 -2.795,3.19 -4.846,4.739c1.787,0.567 3.338,1.254 4.654,2.061c1.315,0.807 2.095,1.633 2.338,2.479c0.167,0.576 0.19,1.163 0.071,1.759c-0.119,0.597 -0.343,1.192 -0.671,1.786c-1.267,-1.216 -2.795,-2.254 -4.582,-3.112c-1.788,-0.858 -3.944,-1.547 -6.467,-2.068l-1.375,0.646c-0.76,-0.613 -1.367,-1.708 -1.822,-3.284c-0.133,-0.461 -0.23,-0.797 -0.291,-1.008c-0.061,-0.212 -0.1,-0.419 -0.117,-0.622Z" /></svg>
