<svg version="1.1" id="Layer_1" xmlns="http://www.w3.org/2000/svg" x="0" y="0" viewBox="0 0 103.3 84.4" xml:space="preserve"><style>.st0{fill:#231f20}</style><path class="st0" d="M66 10.8H53c-.8 0-1.6.5-1.9 1.2l-1 2.1h18.7l-1-2.1c-.2-.7-1-1.2-1.8-1.2zm9.3 1.4c1.4 2.9 2.9 6 4 8.5 1.6 2.4 4.4 3.9 7.4 3.9h8.4c2.3 0 4.3-1.4 5.2-3.4v-1c0-1.6-.6-3.1-1.6-4.3v.6c0 2.6-4.9 3.7-9.5 3.7s-9.5-1.2-9.5-3.7v-2.8c-1.6-.2-3.1-.7-4.4-1.5zm25 12.3c-1.4 1.3-3.2 2-5.2 2h-8.4c-1.8 0-3.6-.5-5.2-1.3.7 1.4 1.4 3.2 2.3 5.2.9.3 1.9.5 2.9.5h8.4c2.3 0 4.3-1.4 5.2-3.4v-3zm0 6.5c-1.4 1.3-3.2 2-5.2 2h-8.4c-.7 0-1.4-.1-2-.2 1.8 4.9 3.5 10.8 4.2 16.2.3 1.8.5 3.6.5 5.5 0 2.8-.4 5.6-1.2 8.2h6.9c2.3 0 4.3-1.4 5.2-3.4V31zm-8.1 9.8c-1.8 0-3.3-1.5-3.3-3.3 0-1.8 1.5-3.3 3.3-3.3 1.8 0 3.3 1.5 3.3 3.3 0 1.9-1.5 3.3-3.3 3.3z"/><path class="st0" d="M70.3 6.3L69 4.5c-.9-1.3-2.4-2-3.9-2H53.9c-1.5 0-3 .8-3.9 2l-1 1.3c-2.7 5.7-8.9 18.7-9.6 20.2-.4.7-.7 1.6-1.2 2.6 5.1-6 12.8-9.8 21.2-9.8 8.6 0 16.3 3.9 21.5 10-.4-1.1-.9-2-1.3-2.8-.2-.5-1-2.2-2.1-4.4-.3-.4-.5-.8-.7-1.2l-1.9-4h.1c-1.6-3.7-3.4-7.5-4.7-10.1zm.3 9c-.4.6-1 .9-1.6.9H50c-.7 0-1.3-.3-1.6-.9-.4-.6-.4-1.3-.1-1.9l1-2.2c.7-1.4 2.2-2.4 3.7-2.4h13c1.6 0 3.1.9 3.7 2.4l1 2.2c.3.6.3 1.3-.1 1.9zM20.3 33.7c.9-1.1 2.2-1.9 3.7-2.4.8-.2 1.7-.4 2.5-.4h5.7c1.1 0 2.1-.2 3.1-.5.8-2.1 1.6-3.9 2.3-5.3-1.6.9-3.4 1.4-5.3 1.4h-5.7c-1.9 0-3.6.7-4.7 2-.8 1-3.2 3.1-8.6 3.1-.5 0-1 0-1.5-.1-3.9-.1-6.8-1.4-8.6-3.5v4.8c1.8 1.8 4.5 2.9 8.2 3.3 4.4.3 7.8-1 8.9-2.4z"/><path class="st0" d="M11.8 67.8c4.1 0 7.1-.8 8.4-2.2 1-1 2-1.8 3.2-2.3V37.1c0-.1 0-2 .8-3.7-1 .3-1.8.9-2.4 1.6-1.3 1.5-4.3 3.1-8.9 3.1-.6 0-1.1 0-1.8-.1-3.3-.3-6-1.2-8-2.6v29.8c1.2 1.7 4.3 2.6 8.7 2.6z"/><path class="st0" d="M11.8 73.4c5.3 0 7.3-1.3 8-2 1.8-2 4.1-3 6.5-3H33c-.6-1.2-1.1-2.4-1.6-3.6h-5c-1.7 0-3.4.8-4.7 2.2-1.8 1.9-5.1 2.8-9.9 2.8-4.3 0-7-.8-8.6-1.8v1.9c0 2.1 3.3 3.5 8.6 3.5zm80.4-37.1c-.7 0-1.3.6-1.3 1.3 0 .7.6 1.3 1.3 1.3.7 0 1.3-.6 1.3-1.3 0-.7-.6-1.3-1.3-1.3zm-80.3-6.7c5.7.4 7.9-1.7 8.5-2.3 1.5-1.7 3.7-2.7 6.2-2.7h5.7c3.4 0 6.5-1.9 8-4.9 1.1-2.3 2.4-5 3.6-7.6-1.6 1.1-3.5 1.7-5.4 1.7H19.6c1 .9 1.6 2.1 1.6 3.3v3.3c0 3-3.5 5.4-8 5.4s-8-2.4-8-5.4V18c-1.1 1.5-1.8 3.3-2 5.2.5 3.8 3.5 6.1 8.7 6.4zm16.3-14c1.9 0 3.4 1.1 3.4 2.5s-1.5 2.5-3.4 2.5-3.4-1.1-3.4-2.5 1.5-2.5 3.4-2.5z"/><path class="st0" d="M7.2 20.7c.3 1.7 2.9 3.1 6 3.1 3 0 5.6-1.4 6-3.1-1.5 1.1-3.6 1.8-6 1.8s-4.5-.7-6-1.8zm21-2.1c.9 0 1.3-.4 1.4-.5 0-.1-.5-.5-1.4-.5-.9 0-1.3.4-1.4.5 0 .1.5.5 1.4.5zm72.1 44.6v-.5c-1.4 1.3-3.2 2-5.2 2h-7.5c-.5 1.2-1 2.4-1.6 3.6h9.1c2.9 0 5.2-2.3 5.2-5.1zM34.5 32.8c-.8.1-1.5.2-2.2.2h-4.2c-.7 0-1.2.2-1.6.7-.9.9-1.1 2.8-1.1 3.4v25.7c.3 0 .6-.1 1-.1h4.3c-.7-2.6-1.2-5.4-1.2-8.2 0-2.5.3-4.9.9-7.2.9-4.9 2.4-10.1 4.1-14.5zm62-19.1c-.2.1-.5.2-.8.3-1.8.6-4.2.9-6.6.9-2.6 0-5.4-.4-7.3-1.2h-.2l-.1.1v2.6c.1.5 2.7 1.7 7.5 1.7s7.4-1.3 7.5-1.8v-2.6zm-7.3-4.2c-3.6 0-5.9.7-6.9 1.3-.3.2-.5.4-.6.5 0 .1.1.1.2.2.2.2.6.4 1.1.6.2.1.4.1.6.2 1.3.4 3.1.7 5.6.7 2.4 0 4.2-.3 5.4-.7.3-.1.5-.2.8-.3.5-.2.9-.4 1.1-.6l.2-.2c-.6-.2-1.2-.3-1.9-.4.6.1 1.3.2 1.8.4-.1-.5-2.7-1.7-7.4-1.7zm-76 11c2.7 0 5-1 5.7-2.4.2-.3.3-.7.3-1s-.1-.7-.3-1c-.6-1.1-2.3-2-4.3-2.3-.5-.1-.9-.1-1.4-.1-2.1 0-4 .7-5.1 1.6-.3.2-.5.5-.7.8-.2.3-.3.7-.3 1s.1.7.3 1c.8 1.4 3.2 2.4 5.8 2.4zm46.3 4.1c9.7 0 18.4 4.7 23.9 11.9-4-9.2-13.2-15.7-23.9-15.7s-19.9 6.5-23.9 15.7c5.5-7.2 14.2-11.9 23.9-11.9z"/><path class="st0" d="M34.6 64.7c.5 1.3 1.1 2.5 1.8 3.6.3.5.6 1 1 1.5s.7 1 1.1 1.5c4.9 6.2 12.5 10.1 21 10.1s16.1-4 21-10.1c.4-.5.8-1 1.1-1.5.3-.5.7-1 1-1.5.7-1.1 1.3-2.4 1.8-3.6.3-.7.5-1.3.7-2 .8-2.6 1.3-5.3 1.3-8.2v-.1c0-1.2-.1-2.4-.2-3.5-.2-1.2-.4-2.3-.7-3.5-3.1-11.4-13.6-19.8-26-19.8s-22.9 8.4-26 19.8c-.3 1.1-.5 2.3-.7 3.5-.2 1.1-.2 2.3-.2 3.5v.1c0 2.9.5 5.6 1.3 8.2.2.7.4 1.4.7 2zm.8-8.2c-.1-.7-.1-1.3-.1-2 0-13.3 10.8-24.2 24.2-24.2 13.3 0 24.2 10.8 24.2 24.2 0 .7 0 1.3-.1 2-.1 1.2-.3 2.3-.5 3.4-.2 1-.5 1.9-.8 2.8-.1.2-.2.5-.3.7-.2.4-.4.9-.5 1.3-.6 1.3-1.3 2.5-2.1 3.6-.4.5-.7 1-1.1 1.5-.4.5-.9 1-1.3 1.5-4.4 4.5-10.6 7.4-17.4 7.4-6.8 0-13-2.8-17.4-7.4-.5-.5-.9-1-1.3-1.5s-.8-1-1.1-1.5c-.8-1.1-1.5-2.3-2.1-3.6-.2-.4-.4-.8-.5-1.3-.1-.2-.2-.5-.3-.7-.3-.9-.6-1.8-.8-2.8-.4-1.1-.6-2.2-.7-3.4z"/><path class="st0" d="M38.9 62.7c.3.7.6 1.4.9 2 .2.4.4.8.7 1.2.5.8 1.1 1.6 1.7 2.4.3.4.6.7.9 1.1l.4.4c.5.5 1 1 1.6 1.5 3.9 3.3 8.9 5.4 14.4 5.4s10.6-2 14.4-5.4c.6-.5 1.1-1 1.6-1.5l.4-.4c.3-.4.6-.7.9-1.1.6-.8 1.2-1.6 1.7-2.4.2-.4.5-.8.7-1.2.3-.6.6-1.3.9-2 0-.1.1-.2.1-.3.9-2.5 1.5-5.1 1.5-7.9 0-12.2-9.9-22.2-22.2-22.2-12.2 0-22.2 9.9-22.2 22.2 0 2.8.5 5.5 1.5 7.9 0 .2.1.2.1.3zm20.6-26.3c10 0 18.1 8.1 18.1 18.1 0 3-.7 5.7-2 8.2-.4.7-.7 1.4-1.2 2-.9 1.3-2 2.6-3.3 3.6-.6.5-1.3 1-2.1 1.5-.9.6-1.9 1.1-2.9 1.5-2.1.8-4.3 1.3-6.7 1.3-2.4 0-4.6-.5-6.7-1.3-1-.4-2-.9-2.9-1.5l-2.1-1.5c-1.2-1.1-2.3-2.3-3.3-3.6-.4-.6-.8-1.3-1.2-2-1.3-2.5-2-5.2-2-8.2.2-10 8.3-18.1 18.3-18.1z"/><path class="st0" d="M48.4 64.7c1.4 1.5 3.1 2.8 5 3.6 1.9.8 3.9 1.3 6.1 1.3 2.2 0 4.2-.5 6.1-1.3 1.9-.8 3.6-2.1 5-3.6.6-.6 1.1-1.3 1.6-2 1.5-2.4 2.4-5.2 2.4-8.2 0-8.3-6.8-15.1-15.1-15.1s-15.1 6.8-15.1 15.1c0 3 .9 5.8 2.4 8.2.5.7 1 1.4 1.6 2zm11.1-22.5c6.8 0 12.4 5.5 12.4 12.4 0 3.1-1.1 5.9-3.1 8.2-.2.2-.3.4-.5.5-.3.3-.7.4-1.1.4-.4 0-.8-.1-1.1-.4-.2-.2-.3-.3-.3-.5-.2-.5-.1-1.1.3-1.6 1.8-1.8 2.7-4.1 2.7-6.6 0-5.2-4.2-9.4-9.4-9.4-.8 0-1.5-.7-1.5-1.5.1-.9.8-1.5 1.6-1.5z"/></svg>