<svg xmlns="http://www.w3.org/2000/svg" viewBox="0 0 147.1 80"><path d="M95.5 24.7l3.8 16.6-5.9-15s0 0 0 0L87 12.9c-.3 3.5.4 8 3.2 13.9-.1-.1-.1-.2-.2-.2-5.2-6.2-6.7-10.8-6.3-14.5.1-1.4.5-2.7 1.1-3.9l-.2-.3c-5-4.9-7.9-3.6-10.5-1.3 2.1 1.9 5 3.5 5 3.6.8 1.7-4.5-.5-8.5-3C63.8 4.2 57.4 3.8 51 3c-10.9.4-9.9 10.5-12.1 18 4.9 3 10.3 6.6 15.4 13.3 4.9 6.5 8.9 11.6 12.3 15.7 10 .5 29.8 1.2 34.5-6.6 2.4 4.8 1.8 5.1 3 7.1-8.3 6.4-15 6.9-30.9 6.9 4.3 4.4 7.9 7.4 12.4 10.1C73.8 62.4 66.5 54.2 52.9 36c-4.3-5.8-10.5-10.3-15-12.1 0 0 0 0 0 0-.2-.1-.3-.2-.5-.2-.1 0-.2-.1-.3-.1h0C18.8 15.8 1 29.4 4.5 41.6 26.4 45.1 42.7 55 66.2 62l-6.8-7.9 12.4 10.7c8.6 6.1 14.4 13.7 39.6 12 13.1-.9 28.1-5.5 31-24.2 2.8-18.2-18.5-48.7-46.9-27.9zM61.8 9.2c4.9 1.7 10.6 1.7 14.4 5.3 2.7 2.6 4.5 7 4.7 15.1v.3C75.2 9.5 63 15.2 61.8 9.2z" fill="#010101" stroke="#010101" stroke-width=".155" stroke-miterlimit="282"/></svg>