<?xml version="1.0" encoding="utf-8"?>
<!-- Generator: Adobe Illustrator 23.0.1, SVG Export Plug-In . SVG Version: 6.00 Build 0)  -->
<svg version="1.1" id="Layer_1" xmlns="http://www.w3.org/2000/svg" xmlns:xlink="http://www.w3.org/1999/xlink" x="0px" y="0px"
	 viewBox="0 0 147.1 80" style="enable-background:new 0 0 147.1 80;" xml:space="preserve">
<style type="text/css">
	.st0{fill:#010101;stroke:#010101;stroke-width:0.1552;stroke-miterlimit:282;}
</style>
<path class="st0" d="M95.5,24.7l3.8,16.6l-5.9-15c0,0,0,0,0,0L87,12.9c-0.3,3.5,0.4,8,3.2,13.9c-0.1-0.1-0.1-0.2-0.2-0.2
	c-5.2-6.2-6.7-10.8-6.3-14.5c0.1-1.4,0.5-2.7,1.1-3.9l-0.2-0.3c-5-4.9-7.9-3.6-10.5-1.3c2.1,1.9,5,3.5,5,3.6c0.8,1.7-4.5-0.5-8.5-3
	c-6.8-3-13.2-3.4-19.6-4.2C40.1,3.4,41.1,13.5,38.9,21c4.9,3,10.3,6.6,15.4,13.3c4.9,6.5,8.9,11.6,12.3,15.7
	c10,0.5,29.8,1.2,34.5-6.6c2.4,4.8,1.8,5.1,3,7.1c-8.3,6.4-15,6.9-30.9,6.9c4.3,4.4,7.9,7.4,12.4,10.1
	c-11.8-5.1-19.1-13.3-32.7-31.5c-4.3-5.8-10.5-10.3-15-12.1c0,0,0,0,0,0c-0.2-0.1-0.3-0.2-0.5-0.2c-0.1,0-0.2-0.1-0.3-0.1l0,0
	c-18.3-7.8-36.1,5.8-32.6,18C26.4,45.1,42.7,55,66.2,62l-6.8-7.9l12.4,10.7c8.6,6.1,14.4,13.7,39.6,12c13.1-0.9,28.1-5.5,31-24.2
	C145.2,34.4,123.9,3.9,95.5,24.7z M61.8,9.2c4.9,1.7,10.6,1.7,14.4,5.3c2.7,2.6,4.5,7,4.7,15.1c0,0.1,0,0.2,0,0.3
	C75.2,9.5,63,15.2,61.8,9.2z"/>
</svg>
