<svg xmlns="http://www.w3.org/2000/svg" viewBox="0 0 705.3 338.1"><path d="M148.3 228.4c30.2-4.2 50.8-7.8 61.7-10.9s14.3-6.5 10.2-10.2c-4.2-3.6-9.6-6-16.4-7-6.8-1-17.5.3-32 3.9-14.6 3.7-28.4 6.8-41.4 9.4-13 2.6-25.5 4.7-37.5 6.2-12 1.6-14.1 4.4-6.2 8.6 7.8 4.2 21.1 5.2 39.8 3.1 5.2 6.2 7.8 14.6 7.8 25v42.2c-26 3.1-49.2 5.7-69.5 7.8-20.3 2.1-36.5 2.9-48.4 2.3-12-.5-12.5 2.9-1.6 10.2 10.9 7.3 23.2 9.9 36.7 7.8 13.5-2.1 31.5-4.4 53.9-7 22.4-2.6 44-4.9 64.8-7 20.8-2.1 44.8-1.8 71.9.8 27.1 2.6 43.5 2.6 49.2 0 5.7-2.6 4.9-7-2.3-13.3-7.3-6.2-15.9-9.9-25.8-10.9s-20.3-.8-31.2.8-37.3 3.9-78.9 7c2.1-27.1 4.4-42.7 7-46.9 2.5-4.2-1.4-11.5-11.8-21.9zM48.3 84.6c-4.2-20.8-7.8-28.9-10.9-24.2-3.1 4.7-6.5 12-10.2 21.9-3.7 9.9-8.9 18.2-15.6 25-6.8 6.8-8.3 16.4-4.7 28.9 3.6 12.5 10.4 12 20.3-1.6 9.9-13.5 16.9-27.1 21.1-40.6 5.2 1 27.6-.5 67.2-4.7s70.3-7.8 92.2-10.9 34.4-3.6 37.5-1.6c3.1 2.1 2.9 6.8-.8 14.1s-8.6 15.9-14.8 25.8c-6.2 9.9-1.8 10.7 13.3 2.3 15.1-8.3 31-12.7 47.7-13.3 16.7-.5 19.5-6 8.6-16.4-11-10.4-22.7-19.5-35.2-27.3-12.5-7.8-23.2-9.6-32-5.5-8.9 4.2-31.8 9.1-68.8 14.8-37 5.8-75.3 10.2-114.9 13.3zm134.4 65.7c10.4 9.4 22.1 18.5 35.2 27.3 13 8.9 19.5 6 19.5-8.6s-6.8-25.8-20.3-33.6c-13.5-7.8-27.9-13-43-15.6-15.1-2.6-19.8-.8-14.1 5.5 5.8 6.2 13.3 14.6 22.7 25zm-98.4-23.5c1 7.3-2.9 17.5-11.7 30.5-8.9 13-20.1 26-33.6 39.1-13.5 13-11.5 15.1 6.2 6.2 17.7-8.8 32.8-20.3 45.3-34.4 12.5-14.1 21.3-22.4 26.6-25 5.2-2.6 4.7-6.8-1.6-12.5-6.2-5.7-13-9.9-20.3-12.5-7.3-2.6-10.9.3-10.9 8.6zm37.5-106.2c8.3 10.4 17.4 19 27.3 25.8 9.9 6.8 15.6 4.4 17.2-7 1.6-11.5-2.1-19.5-10.9-24.2-8.9-4.7-18.5-7.5-28.9-8.6-10.5-1.1-12 3.6-4.7 14zm443.7 12.5c0-4.2.2-7.8.8-10.9.5-3.1-.3-5.7-2.3-7.8-2.1-2.1-6.5-4.2-13.3-6.2-6.8-2.1-12.3-2.6-16.4-1.6-4.2 1-2.9 5.7 3.9 14.1 6.8 8.3 10.2 29.2 10.2 62.5-39.6 6.2-64.1 8.3-73.4 6.2-9.4-2.1-16.2-3.1-20.3-3.1-3.1 0-3.1 1.8 0 5.5s3.9 16.2 2.3 37.5c-1.6 21.4-4.7 41.7-9.4 60.9-4.7 19.3-10.2 38.5-16.4 57.8-6.2 19.3-15.1 35.4-26.6 48.4-11.5 13-19.3 22.1-23.4 27.3-4.2 5.2-2.6 6 4.7 2.3 7.3-3.7 16.1-10.4 26.6-20.3 10.4-9.9 19.5-21.3 27.3-34.4 7.8-13 15.6-33.3 23.4-60.9 7.8-27.6 13.8-63.3 18-107 19.8-1 38.5-3.1 56.3-6.2 6.2 9.4 8.8 20.3 7.8 32.8-14.6 4.2-28.4 7.3-41.4 9.4-13 2.1-16.9 4.7-11.7 7.8 5.2 3.1 10.9 4.7 17.2 4.7 6.3 0 18.2-2.1 35.9-6.2 0 14.6 1.6 24.5 4.7 29.7 3.1 5.2 10.4 8.3 21.9 9.4 11.5 1 23.2 1.3 35.2.8 12-.5 22.9-2.1 32.8-4.7 9.9-2.6 14.8-5.5 14.8-8.6 0-4.2-1.3-7.3-3.9-9.4-2.6-2.1-5.5-8.8-8.6-20.3-3.1-11.5-5.2-15.6-6.2-12.5-1 3.1-2.3 8.3-3.9 15.6-1.6 7.3-3.4 12.3-5.5 14.8-2.1 2.6-6.2 4.7-12.5 6.2-6.2 1.6-15.6 2.3-28.1 2.3-11.5 0-18.5-1.3-21.1-3.9-2.6-2.6-4.4-10.7-5.5-24.2 11.5-2.1 22.7-4.9 33.6-8.6 10.9-3.6 16.4-6.5 16.4-8.6 0-3.1-2.9-4.9-8.6-5.5-5.7-.5-10.9 0-15.6 1.6-4.7 1.6-13.3 3.9-25.8 7 0-5.2 1-10.9 3.1-17.2 2.1-6.2 0-12-6.2-17.2 38.5-6.2 61.2-9.6 68-10.2 6.8-.5 10.7 1.6 11.7 6.2 1 4.7-2.1 12.5-9.4 23.4-7.3 10.9-6.5 14.1 2.3 9.4 8.8-4.7 18-9.1 27.3-13.3 9.4-4.2 17.7-6.8 25-7.8 7.3-1 10.4-2.9 9.4-5.5s-5.5-6.5-13.3-11.7c-7.8-5.2-16.2-9.9-25-14.1-8.9-4.2-18.5-4.2-28.9 0C613 73 593.2 76.6 564 79.7l1.6-35.9c26 0 44-1.3 53.9-3.9 9.9-2.6 17.7-5.5 23.4-8.6 5.7-3.1 7.3-5.7 4.7-7.8-2.6-2.1-12.5-2.1-29.7 0-17.2 2.3-34.7 5.4-52.4 9.6zm-15.6 275c1-26 2.1-45.8 3.1-59.4 1-13.5 2.3-22.4 3.9-26.6 1.6-4.2 1.3-7.5-.8-10.2-2.1-2.6-6.2-4.7-12.5-6.2-6.2-1.6-12-2.3-17.2-2.3-4.2 0-3.7 3.1 1.6 9.4 5.2 6.2 7.8 24 7.8 53.1l-34.4 3.1c0-14.6.8-23.2 2.3-25.8 1.6-2.6.2-5.5-3.9-8.6-4.2-3.1-9.4-5.2-15.6-6.2-6.2-1-8.1 1.3-5.5 7 2.6 5.7 3.9 11.7 3.9 18 0 5.2-.5 10.2-1.6 14.8-1 4.7 1 9.4 6.2 14.1 5.2 4.7 10.2 5.7 14.8 3.1 4.7-2.6 15.9-4.4 33.6-5.5v29.7c-40.6 5.2-67.7 7.5-81.3 7-13.5-.5-15.1 1.8-4.7 7 9.4 6.2 16.1 9.1 20.3 8.6 4.2-.5 13.5-1.8 28.1-3.9 90.6-8.3 146.3-11.5 167.2-9.4 13.5 2.1 23.7 2.3 30.5.8 6.8-1.6 6-5.5-2.3-11.7-8.3-7.3-19-10.4-32-9.4s-34.1 2.6-63.3 4.7l1.6-29.7c22.9-2.1 37.7-3.4 44.5-3.9 6.8-.5 14.6-1.3 23.4-2.3 8.8-1 9.1-5.2.8-12.5 1-16.7 3.1-26.3 6.2-28.9 3.1-2.6-1-6.5-12.5-11.7-11.5-5.2-16.2-4.9-14.1.8 2.1 5.7 3.1 11.7 3.1 18 0 5.2-.5 13-1.6 23.4-18.8 2.1-34.9 3.1-48.4 3.1 0-4.2 1-17.2 3.1-39.1 3.1-8.3 4.9-13.5 5.5-15.6.5-2.1-5-5.2-16.4-9.4-11.5-5.2-16.2-5.2-14.1 0 2.1 5.2 3.6 11.7 4.7 19.5 1 7.8 1.3 17.5.8 28.9-.5 11.5-1.3 31.8-2.3 60.9l-32.5 3.3z" stroke="#000" stroke-width="3" stroke-miterlimit="10"/></svg>