<svg xmlns="http://www.w3.org/2000/svg" viewBox="0 0 738.1 354.7"><path d="M124.9 50.4c19.8-5.2 34.9-9.6 45.3-13.3 10.4-3.6 13.3-7.8 8.6-12.5s-10.9-6-18.8-3.9c-7.8 2.1-21.6 5.5-41.4 10.2-19.8 4.7-33.3 7.3-40.6 7.8-7.3.5-7.3 2.9 0 7 7.3 4.2 19.3 6.3 36 6.3 5.2 10.4 8.1 19.5 8.6 27.3.5 7.8.8 20.6.8 38.3-15.6 3.1-26.8 5.5-33.6 7-6.8 1.6-13 2.9-18.8 3.9-5.7 1-7.8-2.3-6.2-10.2 1.6-7.8 3.9-14.1 7-18.8s2.3-8.6-2.3-11.7-10.2-5.7-16.4-7.8c-6.2-2.1-8.3.5-6.2 7.8 2.1 7.3 2.6 15.4 1.6 24.2-1 8.9-4.7 15.6-10.9 20.3-6.3 4.7-7.6 11.2-3.9 19.5 3.6 8.3 8.6 10.4 14.8 6.2 6.2-4.2 15.1-8.6 26.6-13.3 11.5-4.7 23.4-8.6 35.9-11.7-10.4 22.9-25.3 44.8-44.5 65.6-19.3 20.8-35.9 36.2-50 46.1-14.1 9.9-12.3 11.5 5.5 4.7 17.7-6.8 35.9-19.5 54.7-38.3s34.4-38.5 46.9-59.4v50c0 12.5-.5 25.8-1.6 39.8-1 14.1-4.2 21.1-9.4 21.1s-12.3-.5-21.1-1.6c-8.9-1-8.9 1.6 0 7.8 8.8 6.2 15.9 14.3 21.1 24.2 5.2 9.9 10.7 11.2 16.4 3.9 5.7-7.3 9.6-16.1 11.7-26.6 2.1-10.4 2.9-22.4 2.3-35.9-.5-13.5-1.3-49.5-2.3-107.8 19.8-3.1 35.2-5.5 46.1-7s12.5-4.7 4.7-9.4-15.4-6-22.7-3.9c-7.3 2.1-16.7 4.2-28.1 6.2 1-21.9 2.1-35.7 3.1-41.4.9-5.3-5.3-12.3-18.9-20.7h0zm150 61c8.3-12.5 17.7-25 28.1-37.5 10.4-12.5 19.8-20.6 28.1-24.2 8.3-3.6 8.8-8.1 1.6-13.3-7.3-5.2-14.3-9.6-21.1-13.3-6.8-3.6-12-3.9-15.6-.8-3.7 3.1-10.7 6.5-21.1 10.2-10.4 3.7-20.1 6.5-28.9 8.6-8.9 2.1-16.2 2.1-21.9 0-5.7-2.1-12-3.4-18.8-3.9-6.8-.5-7 3.7-.8 12.5 6.2 8.9 9.4 25.8 9.4 50.8v196.9c0 38.5 2.1 55.7 6.2 51.6 4.2-4.2 7.8-28.1 10.9-71.9 3.1-43.8 3.1-118.2 0-223.4 22.9-5.2 38-8.6 45.3-10.2 7.3-1.6 11.7-1.3 13.3.8 1.6 2.1-1.6 11.7-9.4 28.9s-13.5 28.4-17.2 33.6c-3.7 5.2-.5 11.7 9.4 19.5 9.9 7.8 18.8 20.6 26.6 38.3 7.8 17.7 8.3 27.3 1.6 28.9-6.8 1.6-17.5 1.6-32 0-14.6-1.6-13.5 1.3 3.1 8.6 16.7 7.3 29.2 16.9 37.5 28.9s15.9 9.4 22.7-7.8c6.8-17.2 5.5-34.9-3.9-53.1-9.3-18.3-27-37.9-53.1-58.7h0zm326.6-81.3c15.6-3.1 27.6-5.2 35.9-6.2 8.3-1 15.6-2.9 21.9-5.5 6.2-2.6 5.2-6-3.1-10.2-8.3-4.2-19.8-4.7-34.4-1.6-14.6 3.1-34.4 6.5-59.4 10.2-25 3.7-44.8 5.5-59.4 5.5-13.5 0-17.5 2.3-11.7 7 5.7 4.7 15.4 8.1 28.9 10.2 5.2 9.4 7.3 25 6.2 46.9-28.1 5.2-44.3 7.3-48.4 6.2-4.2-1-9.9-1.6-17.2-1.6-6.2 0-6.8 2.3-1.6 7 5.2 4.7 8.3 13.3 9.4 25.8 1 12.5 1 21.4 0 26.6-1 5.2.2 10.2 3.9 14.8 3.6 4.7 7 5 10.2.8 3.1-4.2 8.3-7.5 15.6-10.2 7.3-2.6 13.5-4.2 18.8-4.7 5.2-.5 7.3 12.3 6.2 38.3-36.5 7.3-59.9 10.9-70.3 10.9-10.4 0-14.1 1.6-10.9 4.7s7.8 6.2 14.1 9.4 13.3 3.4 21.1.8c7.8-2.6 21.1-5.5 39.8-8.6s46.3-7 82.8-11.7c36.5-4.7 60.9-6.5 73.4-5.5 12.5 1 19.3-.2 20.3-3.9 1-3.6-1.8-7.5-8.6-11.7-6.8-4.2-16.2-4.9-28.1-2.3-12 2.6-30 5-53.9 7 0-10.4.5-24.5 1.6-42.2 32.3-4.2 50.2-7.3 53.9-9.4 3.6-2.1 2.9-6.2-2.3-12.5 5.2-13.5 11.5-22.9 18.8-28.1 7.3-5.2 7.8-10.2 1.6-14.8s-12.8-8.3-19.5-10.9c-6.8-2.6-11.7-2.3-14.8.8s-9.6 6.2-19.5 9.4c-9.9 3.1-14.6 1.3-14.1-5.5s2.1-12.7 4.7-18c2.4-5.2-1.5-10.9-11.9-17.2h0zm-65.6 7.8c27.1-3.1 45.3-5.2 54.7-6.2 2.1 8.3 3.1 16.7 3.1 25 0 7.3-1.3 13.5-3.9 18.8-2.6 5.2-2.1 9.9 1.6 14.1 3.6 4.2 7.3 4.7 10.9 1.6 3.6-3.1 8.6-5.7 14.8-7.8 6.2-2.1 12.2-3.4 18-3.9 5.7-.5 8.8 1.3 9.4 5.5.5 4.2-.8 15.1-3.9 32.8-9.4 2.1-17.5 3.9-24.2 5.5-6.8 1.6-14.8 1-24.2-1.6-9.4-2.6-12.8-.8-10.2 5.5 2.6 6.2 4.4 24 5.5 53.1-16.7 3.1-33.3 5.7-50 7.8 1-20.8 3.4-33.3 7-37.5 3.6-4.2 1-8.6-7.8-13.3-8.9-4.7-15.1-5.2-18.8-1.6-3.7 3.7-14.8 7-33.6 10.2v-42.2c27.1-3.1 46.1-5.2 57-6.2 10.9-1 10.7-5.7-.8-14.1 1-13.5 2.1-22.9 3.1-28.1 1.1-5.4-1.5-11.1-7.7-17.4h0zm-29.7 209.4c-7.3-14.6-11.5-20-12.5-16.4-1 3.7.5 11.5 4.7 23.4 4.2 12 11.2 24.2 21.1 36.7 9.9 12.5 23.2 21.6 39.8 27.3 16.7 5.7 35.9 8.6 57.8 8.6s40.9-1.8 57-5.5 25.2-8.1 27.3-13.3c2.1-5.2-1.8-10.2-11.7-14.8-9.9-4.7-22.1-15.6-36.7-32.8-14.6-17.2-20.1-20.8-16.4-10.9 3.6 9.9 8.1 19.5 13.3 28.9 5.2 9.4 6 15.4 2.3 18-3.7 2.6-14.6 4.2-32.8 4.7-18.2.5-33.9-.2-46.9-2.3-13-2.1-25.3-7.5-36.7-16.4-11.4-8.9-21.3-20.6-29.6-35.2h0zm160.9-40.6c-11.5 0-13 2.6-4.7 7.8 8.3 5.2 16.7 11.5 25 18.8 8.3 7.3 15.9 13 22.7 17.2 6.8 4.2 11.7 6 14.8 5.5 3.1-.5 5.2-3.1 6.2-7.8 1-4.7-1.3-11.7-7-21.1-5.7-9.4-13.5-15.1-23.4-17.2-9.9-2.2-21.1-3.2-33.6-3.2h0zm-212.5 21.9c-1-5.2-3.9-2.3-8.6 8.6s-10.4 20.3-17.2 28.1c-6.8 7.8-10.9 14.6-12.5 20.3-1.6 5.7-1 10.9 1.6 15.6 2.6 4.7 6.5 5.5 11.7 2.3 5.2-3.1 10.9-9.4 17.2-18.7s9.4-19.8 9.4-31.3c0-11.4-.6-19.7-1.6-24.9h0zm121.9-11c-8.3-2.1-15.4-2.9-21.1-2.3-5.7.5-4.2 4.7 4.7 12.5 8.8 7.8 16.7 14.1 23.4 18.8 6.8 4.7 12 5.5 15.6 2.3 3.6-3.1 4.9-7 3.9-11.7-1-4.7-3.7-8.8-7.8-12.5-4.1-3.7-10.4-6-18.7-7.1h0z" stroke="#000" stroke-width="3" stroke-miterlimit="10"/></svg>