<svg xmlns="http://www.w3.org/2000/svg" viewBox="0 0 740 378.9"><path d="M177.6 62.3c19.8-5.2 31.8-7.8 35.9-7.8 5.2 0 6.5 13.5 3.9 40.6s-.8 49 5.5 65.6c6.2 16.7 14.1 29.7 23.4 39.1s21.3 15.9 35.9 19.5c14.6 3.7 19.8.3 15.6-10.2-4.2-10.4-5.2-25.5-3.1-45.3 2.1-19.8.8-24.5-3.9-14.1s-8.6 19-11.7 25.8c-3.1 6.8-6.8 10.2-10.9 10.2-4.2 0-10.4-4.4-18.8-13.3-8.3-8.8-13.5-24-15.6-45.3-2.1-21.3.2-38 7-50s12.7-19.8 18-23.4c5.2-3.6 4.9-7.5-.8-11.7-5.7-4.2-11.7-7.8-18-10.9s-12-2.3-17.2 2.3c-5.2 4.7-14.3 8.9-27.3 12.5-13 3.7-21.9 4.7-26.6 3.1s-9.1-2.3-13.3-2.3c-4.2 0-4.7 3.1-1.6 9.4s5.2 14.3 6.2 24.2c1 9.9.8 23.7-.8 41.4s-6.2 34.4-14.1 50-20.3 28.7-37.5 39.1c-17.2 10.4-15.6 12.5 4.7 6.2s35.7-17.2 46.1-32.8c10.4-15.6 16.7-36.5 18.8-62.5l18.8 18.7c7.3 7.3 12.5 6.8 15.6-1.6 3.1-8.3.5-14.6-7.8-18.7-8.3-4.2-17.2-6.2-26.6-6.2 1.2-15.6 1.2-32.8.2-51.6h0zm-59.4 245.4c-14.6-10.4-26-23.9-34.4-40.6-8.3-16.7-10.4-15.1-6.2 4.7s14.3 37 30.5 51.6c16.1 14.6 43.8 22.4 82.8 23.4 39.1 1 66.9-3.1 83.6-12.5 16.6-9.4 18.2-16.1 4.7-20.3-13.5-4.2-28.7-16.1-45.3-35.9-16.7-19.8-21.4-22.4-14.1-7.8l17.2 34.4c4.2 8.3 2.1 14.1-6.2 17.2-8.3 3.1-25.3 4.2-50.8 3.1-25.6-1.2-46.2-6.9-61.8-17.3h0zM83.8 74.8c16.7-3.1 28.6-6.5 35.9-10.2 7.3-3.6 8.1-7.3 2.3-10.9-5.7-3.6-11.7-4.4-18-2.3-6.2 2.1-15.6 4.7-28.1 7.8s-23.4 5.5-32.8 7-10.9 4.2-4.7 7.8c6.2 3.7 12.2 5.2 18 4.7 5.7-.5 10.2 1.8 13.3 7v73.4c-27.1 13.5-45.1 20.6-53.9 21.1-8.9.5-9.6 3.7-2.3 9.4s13.5 10.2 18.7 13.3c5.2 3.1 10.2 1.6 14.8-4.7s15.6-15.4 32.8-27.3c17.2-12 33.6-23.7 49.2-35.2 15.6-11.5 18.2-15.1 7.8-10.9-10.4 4.2-27.1 12.5-50 25 1-35.4 3.4-54.7 7-57.8 3.8-3.1.4-8.8-10-17.2h0zm204.7 165.7c-10.4-2.1-19.8-3.4-28.1-3.9s-6.5 4.2 5.5 14.1c12 9.9 24.7 19.5 38.3 28.9 13.5 9.4 21.1 9.4 22.7 0s-1.8-18-10.2-25.8c-8.4-7.9-17.8-12.3-28.2-13.3h0zM33.8 253c-7.3 14.6-13.8 26-19.5 34.4-5.7 8.3-6.2 18-1.6 28.9s11.7 8.1 21.1-8.6c9.4-16.6 13.5-33.8 12.5-51.6-1-17.7-5.2-18.8-12.5-3.1h0zm125-25c-6.2-2.1-13.3-3.4-21.1-3.9-7.8-.5-6.8 4.7 3.1 15.6 9.9 10.9 18.5 18.5 25.8 22.7 7.3 4.2 12.2 2.3 14.8-5.5 2.6-7.8 1.3-14.3-3.9-19.5-5.2-5.3-11.4-8.4-18.7-9.4h0zm393.8-40.7l14.1-18.8c3.1-4.2 3.1-7.8 0-10.9s-8.1-5.7-14.8-7.8c-6.8-2.1-9.4-.8-7.8 3.9s-1.6 12.3-9.4 22.7c-7.8 10.4-14.8 19.3-21.1 26.6-6.3 7.3-12.8 13.8-19.5 19.5-6.8 5.7-10.2 9.1-10.2 10.2 0 1 4.2 0 12.5-3.1s23.4-14.1 45.3-32.8c4.2 2.1 6.2 14.6 6.2 37.5s-.5 42.2-1.6 57.8c-1 15.6-3.4 28.1-7 37.5-3.7 9.4-2.6 19.8 3.1 31.2 5.7 11.5 9.9 14.6 12.5 9.4 2.6-5.2 4.4-11.7 5.5-19.5 1-7.8 1.6-23.7 1.6-47.7 12.5 1 27.9.5 46.1-1.6 18.2-2.1 34.4-3.6 48.4-4.7 14.1-1 29.9-1.6 47.7-1.6 18.8 0 28.6-1.8 29.7-5.5 1-3.6-2.1-7.3-9.4-10.9-7.3-3.6-16.4-4.7-27.3-3.1s-27.9 3.9-50.8 7v-23.4c28.1-4.2 43.8-8.3 46.9-12.5 3.1-4.2 1.8-7.5-3.9-10.2-5.7-2.6-20.1-.8-43 5.5v-25c21.9-3.1 35.2-6.8 39.8-10.9 4.7-4.2 4.4-7-.8-8.6-5.2-1.6-18.2-.8-39.1 2.3v-23.4c28.1-5.2 46.1-9.1 53.9-11.7 7.8-2.6 9.4-5.7 4.7-9.4-4.7-3.6-10.2-5.5-16.4-5.5s-21.4 3.1-45.3 9.4c1-7.3 0-12.2-3.1-14.8-3.1-2.6-10.2-4.9-21.1-7-10.9-2.1-14.1-.2-9.4 5.5 4.7 5.7 11.2 12.3 19.5 19.5-17.7 4.2-32.6 7.3-44.5 9.4-12 2.1-14.3 4.4-7 7 7.3 2.6 24.5 2.9 51.6.8v25c-17.7 4.2-31 7-39.8 8.6-8.9 1.6-9.1 3.9-.8 7 8.3 3.1 22.4 3.1 42.2 0v25c-18.8 4.2-32.6 6.5-41.4 7-8.9.5-10.4 2.3-4.7 5.5 5.7 3.1 12.7 4.7 21.1 4.7 9.4 0 17.7-.5 25-1.6v23.4c-27.1 2.1-50 5.7-68.8 10.9 0-24-.3-41.4-.8-52.3-.5-10.9-.8-21.6-.8-32 0-10.4-2.6-18.2-7.8-23.5h0zm123.4-64c8.3 11.5 14.3 13.3 18 5.5 3.6-7.8 6.8-19 9.4-33.6 2.6-14.6 4.7-26.3 6.2-35.2 1.6-8.8 3.1-15.6 4.7-20.3s3.9-8.6 7-11.7 1-6.8-6.2-10.9c-7.3-4.2-13.8-7.3-19.5-9.4-5.7-2.1-11.2-1.6-16.4 1.6-5.2 3.1-12 5.7-20.3 7.8-8.3 2.1-15.1 3.1-20.3 3.1-5.2 0-10.4-.5-15.6-1.6-5.2-1-6.5.8-3.9 5.5s4.9 11.2 7 19.5c2.1 8.3 3.1 17.2 3.1 26.6V103c0 11.5.8 19.8 2.3 25 1.6 5.2 3.4 6.8 5.5 4.7 2.1-2.1 3.6-5.2 4.7-9.4H676zm-134.4 20.3c11.5-1 22.4-2.6 32.8-4.7 7.3 9.4 12.2 12.3 14.8 8.6 2.6-3.6 4.7-9.4 6.2-17.2s2.3-21.1 2.3-39.8.8-30.7 2.3-35.9c1.6-5.2 3.4-9.9 5.5-14.1 2.1-4.2 1-7.8-3.1-10.9-4.2-3.1-9.1-5.7-14.8-7.8-5.7-2.1-10.2-1.8-13.3.8-3.1 2.6-8.3 4.7-15.6 6.2-7.3 1.6-13.8 3.1-19.5 4.7-5.7 1.6-12.5 2.1-20.3 1.6-7.8-.5-9.4 2.3-4.7 8.6 4.7 6.2 7.8 13.3 9.4 21.1s2.9 19.3 3.9 34.4c1 15.1 1.3 25.8.8 32-.5 6.2.8 12.8 3.9 19.5 3.2 6.7 6.3 4.4 9.4-7.1h0zM472.9 103V67c0-13.5 1.8-22.1 5.5-25.8 3.6-3.6 2.6-7.5-3.1-11.7-5.7-4.2-13.5-8.1-23.4-11.7-9.9-3.6-13-2.3-9.4 3.9 3.6 6.2 6.5 14.6 8.6 25 2.1 10.4 3.1 28.7 3.1 54.7 0 25-.3 49.5-.8 73.4-.5 24-1.6 45.8-3.1 65.6-1.6 19.8-3.7 33.6-6.2 41.4-2.6 7.8-2.6 17.5 0 28.9 2.6 11.5 5.5 17.7 8.6 18.8 3.1 1 6.5-4.4 10.2-16.4 3.6-12 5.7-33.1 6.2-63.3.5-30.2.8-53.1.8-68.8s.5-39.1 1.6-70.3c10.4 12.5 18.2 20.3 23.4 23.4 5.2 3.1 9.1 2.1 11.7-3.1 2.6-5.2 1.3-10.4-3.9-15.6-5.4-5.1-15.2-9.3-29.8-12.4h0zm168.7-75c15.6-3.1 26.8-4.9 33.6-5.5 6.8-.5 10.7.5 11.7 3.1s1.6 8.1 1.6 16.4c0 8.3-2.1 31.8-6.2 70.3-14.6 0-28.7 1-42.2 3.1v-25c20.8 0 32.5-1 35.2-3.1 2.6-2.1 2.1-4.4-1.6-7-3.7-2.6-14.8-2.3-33.6.8V60.8c14.6 0 25.2-1 32-3.1 6.8-2.1 8.1-4.4 3.9-7-4.2-2.6-15.6-1.8-34.4 2.3V28h0zM533.8 45.2c20.8-6.2 33.1-9.6 36.7-10.2 3.6-.5 6.2 1.6 7.8 6.2s1.8 34.1.8 88.3c-9.4 0-22.4 2.1-39.1 6.2 0-8.3-.5-16.7-1.6-25 16.7-1 26.6-2.9 29.7-5.5 3.1-2.6 3.6-5.2 1.6-7.8-2.1-2.6-12.5-1.3-31.2 3.9 0-7.3-.5-15.6-1.6-25 17.7-1 28.4-3.1 32-6.2 3.6-3.1 3.6-5.7 0-7.8-3.7-2.1-14.8 0-33.6 6.2.1-9.3-.5-17.1-1.5-23.3h0zm-117.2 78.1c-5.2-11.5-8.1-13.5-8.6-6.2s-3.9 18.7-10.2 34.4-8.9 27.1-7.8 34.4c1 7.3 3.4 12 7 14.1 3.6 2.1 6.8 1 9.4-3.1 2.6-4.2 6.5-14.8 11.7-32 5.3-17.4 4.8-31.2-1.5-41.6h0z" stroke="#000" stroke-width="3" stroke-miterlimit="10"/></svg>