<?xml version="1.0" encoding="utf-8"?>
<!-- Generator: Adobe Illustrator 23.0.1, SVG Export Plug-In . SVG Version: 6.00 Build 0)  -->
<svg version="1.1" id="Ebene_1" xmlns="http://www.w3.org/2000/svg" xmlns:xlink="http://www.w3.org/1999/xlink" x="0px" y="0px"
	 viewBox="0 0 766 348" style="enable-background:new 0 0 766 348;" xml:space="preserve">
<style type="text/css">
	.st0{stroke:#000000;stroke-width:3;stroke-miterlimit:10;}
</style>
<g>
	<path class="st0" d="M326.4,224.3c12.5-32.3,23.2-51.8,32-58.6c8.8-6.8,9.6-12.7,2.3-18c-7.3-5.2-16.4-10.2-27.3-14.8
		s-19.8-4.9-26.6-0.8c-6.8,4.2-22.7,8.9-47.7,14.1c-21.9,3.1-34.9,3.7-39.1,1.6c-4.2-2.1-10.2-3.6-18-4.7c-7.8-1-9.6,2.3-5.5,10.2
		c4.2,7.8,7.8,20.6,10.9,38.3c3.1,17.7,6,36.7,8.6,57c2.6,20.3,5.7,29.7,9.4,28.1c3.6-1.6,6-10.2,7-25.8c29.2-3.1,51.3-4.9,66.4-5.5
		c15.1-0.5,27.3-1,36.7-1.6C345.1,243.4,342,236.8,326.4,224.3L326.4,224.3L326.4,224.3z M121.7,180.6c0,37.5-0.8,65.4-2.3,83.6
		c-1.6,18.2-3.4,31.2-5.5,39.1c-2.1,7.8,0.2,17.7,7,29.7c6.8,12,11.7,10.4,14.8-4.7s4.7-35.7,4.7-61.7v-70.3
		c15.6,18.8,28.1,30,37.5,33.6c9.4,3.7,13.5,0.5,12.5-9.4c-1-9.9-5.5-16.9-13.3-21.1c-7.8-4.2-20.1-8.3-36.7-12.5v-48.4
		c19.8-4.2,35.2-7.3,46.1-9.4c10.9-2.1,13.3-6,7-11.7c-6.2-5.7-13.3-7-21.1-3.9s-19,6.2-33.6,9.4c0-17.7,1-29.2,3.1-34.4
		c2.1-5.2-5.2-11.5-21.9-18.8c13.5-5.2,26.8-10.4,39.8-15.6c13-5.2,23.4-8.8,31.2-10.9c7.8-2.1,8.8-6,3.1-11.7
		c-5.7-5.7-13.3-10.2-22.7-13.3s-14.8-2.3-16.4,2.3c-1.6,4.7-5.2,9.9-10.9,15.6c-5.7,5.7-14.1,12-25,18.8
		c-10.9,6.8-21.9,12.8-32.8,18c-10.9,5.2-12.8,7.8-5.5,7.8c8.3,0,18.8-1.6,31.2-4.7c3.1,8.3,5.2,16.4,6.2,24.2
		c1,7.8,1.6,17.5,1.6,28.9c-25,7.3-45.3,12.8-60.9,16.4c-15.6,3.7-29.7,5.7-42.2,6.2c-12.5,0.5-13.3,4.4-2.3,11.7
		c10.9,7.3,21.6,9.4,32,6.2l31.2-10.9c10.4-4.2,22.4-8.3,35.9-12.5c-7.3,21.9-20.6,45.8-39.8,71.9c-19.3,26-35.9,45.8-50,59.4
		c-14.1,13.5-11.2,14.3,8.6,2.3c19.8-12,37.7-27.9,53.9-47.7C102.7,212.4,114.4,195.2,121.7,180.6L121.7,180.6L121.7,180.6z
		 M232.6,235.3c-1-14.6-2.6-38.5-4.7-71.9c22.9-3.1,41.7-5.7,56.2-7.8c14.6-2.1,24-2.1,28.1,0c4.2,2.1,5.2,11.2,3.1,27.3
		c-2.1,16.2-4.2,30.5-6.2,43C281.1,230.1,255.5,233.2,232.6,235.3L232.6,235.3L232.6,235.3z"/>
	<path class="st0" d="M445.1,266.5c15.6-2.1,26-3.4,31.2-3.9c5.2-0.5,9.1,2.1,11.7,7.8c2.6,5.7,5.5,12.3,8.6,19.5
		c3.1,7.3,7,4.4,11.7-8.6c4.7-13,6.5-34.1,5.5-63.3c-1-29.2-1-56.2,0-81.2c1-25,3.9-40.6,8.6-46.9s4.4-11.2-0.8-14.8
		c-5.2-3.6-10.9-6.5-17.2-8.6c-6.2-2.1-12.3-1.3-18,2.3c-5.7,3.7-14.3,6.8-25.8,9.4c-11.5,2.6-21.6,2.6-30.5,0
		c-8.9-2.6-10.7,0.5-5.5,9.4c5.2,8.9,7.5,32.8,7,71.9c-0.5,39.1-2.6,66.4-6.2,82c-3.7,15.6-2.6,30.2,3.1,43.8
		C434.4,298.8,439.9,292.6,445.1,266.5L445.1,266.5L445.1,266.5z M620.1,107.2v31.2c-42.7,9.4-70.8,14.1-84.4,14.1
		c-12.5,0-13.5,3.1-3.1,9.4c10.4,6.2,20.8,8.1,31.2,5.5c10.4-2.6,23.4-5.7,39.1-9.4c15.6-3.6,34.6-6.8,57-9.4
		c22.4-2.6,39.1-4.4,50-5.5c10.9-1,19.3-2.6,25-4.7c5.7-2.1,3.9-5.7-5.5-10.9c-9.4-5.2-20.6-6.2-33.6-3.1
		c-13,3.1-32.6,6.8-58.6,10.9c0-8.3,0.5-19.3,1.6-32.8c25-4.2,41.4-7.8,49.2-10.9s8.1-6.8,0.8-10.9c-7.3-4.2-13.8-5.5-19.5-3.9
		c-5.7,1.6-15.4,3.9-28.9,7c1-17.7,2.1-30.5,3.1-38.3c1-7.8,2.3-14.6,3.9-20.3c1.6-5.7-0.5-9.9-6.2-12.5c-5.7-2.6-13.5-4.7-23.4-6.3
		c-9.9-1.6-11.7,1.8-5.5,10.2c6.2,8.3,8.8,32.3,7.8,71.9c-17.7,4.2-30.7,6.8-39.1,7.8c-8.3,1-10.2,3.1-5.5,6.2s10.4,5.2,17.2,6.2
		C599.5,109.8,608.7,109.3,620.1,107.2L620.1,107.2L620.1,107.2z M642,246.2c1-9.4,2.9-17.2,5.5-23.4c2.6-6.2-3.1-10.9-17.2-14.1
		s-19-1.6-14.8,4.7c4.2,6.2,6.8,18.8,7.8,37.5c-17.7,4.2-32,7-43,8.6s-12.5,4.2-4.7,7.8c7.8,3.7,15.4,5.5,22.7,5.5
		c7.3,0,15.6-1,25-3.1v32.8c-29.2,5.2-50.5,8.6-64.1,10.2c-13.5,1.6-25.5,2.3-35.9,2.3c-10.4,0-10.7,3.4-0.8,10.2
		c9.9,6.8,22.1,8.3,36.7,4.7c14.6-3.7,38-7.6,70.3-11.7c32.3-4.2,55.7-6,70.3-5.5c14.6,0.5,27.3,1.3,38.3,2.3
		c10.9,1,17.2,0.3,18.8-2.3c1.6-2.6-2.6-7.3-12.5-14.1c-9.9-6.8-22.4-9.1-37.5-7c-15.1,2.1-37.3,5.2-66.4,9.4
		c0-11.4,0.5-23.4,1.6-35.9c13.5-3.1,25.8-6.8,36.7-10.9c10.9-4.2,14.3-8.1,10.2-11.7c-4.2-3.6-9.9-4.7-17.2-3.1
		C664.4,240.7,654.5,243.1,642,246.2L642,246.2L642,246.2z M448.2,191.5v-42.2c9.4,2.1,18.2,1.8,26.6-0.8c8.3-2.6,10.2-6,5.5-10.2
		c-4.7-4.2-9.6-5.2-14.8-3.1c-5.2,2.1-10.9,3.7-17.2,4.7V90c16.7-3.1,27.9-4.9,33.6-5.5c5.7-0.5,9.4,1.6,10.9,6.2s2.6,13,3.1,25
		c0.5,12,0.5,34.4,0,67.2c-0.5,32.8-1.8,56-3.9,69.5c-8.3-4.2-14.8-5.2-19.5-3.1c-4.7,2.1-13.8,4.2-27.3,6.2l3.1-54.7
		c9.4,2.1,18.2,1.3,26.6-2.3c8.3-3.6,9.9-6.8,4.7-9.4c-5.2-2.6-10.2-3.4-14.8-2.3C460,187.9,454.5,189.5,448.2,191.5L448.2,191.5
		L448.2,191.5z M601.4,177.5c-11.5-6.2-16.9-6.5-16.4-0.8c0.5,5.7-2.1,14.1-7.8,25c-5.7,10.9-16.4,23.2-32,36.7
		c-15.6,13.5-14.8,15.6,2.3,6.2s31.5-19.8,43-31.2l23.4-23.4C617,186.8,612.8,182.7,601.4,177.5L601.4,177.5L601.4,177.5z
		 M665.4,169.7c-13.5-2.1-12.8,2.6,2.3,14.1c15.1,11.5,28.6,20.6,40.6,27.3c12,6.8,17.2,4.4,15.6-7c-1.6-11.5-8.1-19.5-19.5-24.2
		C693,175.1,680,171.8,665.4,169.7L665.4,169.7L665.4,169.7z"/>
</g>
</svg>
