<?xml version="1.0" encoding="utf-8"?>
<!-- Generator: Adobe Illustrator 23.0.1, SVG Export Plug-In . SVG Version: 6.00 Build 0)  -->
<svg version="1.1" id="Layer_1" xmlns="http://www.w3.org/2000/svg" xmlns:xlink="http://www.w3.org/1999/xlink" x="0px" y="0px"
	 viewBox="0 0 657.3 630.3" style="enable-background:new 0 0 657.3 630.3;" xml:space="preserve">
<path d="M631,516.6c9.7-104.2-27.5-146.7-48.4-203.2c-20.8-56.6-113.2-60.3-113.2-73.7s-24.6-23.1-24.6-23.1s0,0-5.2-0.7
	c-5.2-0.7,2.2-48.4,2.2-48.4s0,0,4.5,2.2c4.5,2.2,16.4-21.6,16.4-21.6s0,0,1.9-18.6c1.9-18.6-11.6-12.7-11.6-12.7
	s17.1-29.8,9.7-55.1c-7.4-25.3-36.5-42.4-36.5-42.4c-35-35.7-95.3,4.5-95.3,4.5c-36.5,17.1-15.8,81.3-17.9,83.4
	c-6,6-51.4,17.1-51.4,17.1l-63.3,30.5L185,142.2l-98.3,76.7c-84.9,51.4-81.9,128-81.9,128c35,69.2,216.6,80.4,216.6,80.4s0,0-10.4,3
	c-10.4,3,0.7,94.5,5.2,107.2c4.5,12.7-5.2,87.1-5.2,87.1h323.8l2.2-54.3l13.4,54.3h101.2L631,516.6z M328.3,219.6
	c-7.4,0.7-11.2,18.6-11.2,18.6c-22.3,0.7-40.2,25.3-40.2,25.3h-61.8c-8.2,11.2-54.7,10.4-54.7,10.4c21.6-3,13-32,13-32
	c13.4-1.5,53.6-41.7,53.6-41.7H242l19.4-20.1c29-9.7,23.1-27.5,23.1-27.5l21.6-11.2c-4.5,8.9,12.7,23.8,12.7,23.8
	c-2.2,4.5,9.7,30.5,9.7,30.5V219.6z"/>
</svg>
