<svg xmlns="http://www.w3.org/2000/svg" viewBox="0 0 68.6 63.3"><path d="M.7 62.6V8.9h5.9V6.7s2.4.2 3.1 0C18.5 4.6 22.8.8 32 .8h.3v61.8H.7zm29-49.4H10v1.1h19.6v-1.1zm0 6H10v1.1h19.6v-1.1zm0 5.9H10v1.1h19.6v-1.1zm0 6H10v1.1h19.6v-1.1zm0 6H10v1.1h19.6v-1.1zm0 6H10v1.1h19.6v-1.1zm0 6H10v1.1h19.6v-1.1zm0 5.9H10v1.1h19.6V55zm6.8 7.6V.8h.3c9.2 0 13.6 3.8 22.4 5.9.7.2 3.1 0 3.1 0v2.2h5.5v53.7H36.5zm22.1-49.4H39v1.1h19.6v-1.1zm0 6H39v1.1h19.6v-1.1zm0 5.9H39v1.1h19.6v-1.1zm0 6H39v1.1h19.6v-1.1zm0 6H39v1.1h19.6v-1.1zm0 6H39v1.1h19.6v-1.1zm0 6H39v1.1h19.6v-1.1zm0 5.9H39v1.1h19.6V55z" fill="#010101"/></svg>