<?xml version="1.0" encoding="utf-8"?>
<!-- Generator: Adobe Illustrator 23.0.1, SVG Export Plug-In . SVG Version: 6.00 Build 0)  -->
<svg version="1.1" id="Layer_1" xmlns="http://www.w3.org/2000/svg" xmlns:xlink="http://www.w3.org/1999/xlink" x="0px" y="0px"
	 viewBox="0 0 159.2 99.5" style="enable-background:new 0 0 159.2 99.5;" xml:space="preserve">
<style type="text/css">
	.st0{fill:#010101;stroke:#010101;stroke-width:0.1552;stroke-miterlimit:282;}
	.st1{fill:#FFFFFF;}
</style>
<g>
	<path class="st0" d="M154.5,86.2l-0.7,1.7l-0.9-2.1l-0.9,2.1l-0.9-2.1l-0.9,2.1l-0.9-2.1l-0.9,2.1l-0.9-2.1l-0.9,2.1l-0.9-2.1
		l-0.9,2.1l-0.9-2.1l-0.9,2.1l-0.9-2.1l-0.9,2.1l-0.9-2.1l-0.9,2.1l-0.9-2.1l-0.9,2.1l-0.9-2.1l-0.9,2.1l-0.9-2.1l-0.9,2.1l-0.9-2.1
		h1.8h1.8h1.8h1.8h1.8h1.8h1.8h1.8h1.8h1.8h1.8h1.1c-9-8.9-14.4-23.9-20.2-38.7l-0.4,1l-1.1-2.5l-1.1,2.5l-1.1-2.5l-1.1,2.5
		l-1.1-2.5L127,48l-1.1-2.5l-1.1,2.5l-1.1-2.5l-1.1,2.5l-1.1-2.5l-1.1,2.5l-1.1-2.5l-1.1,2.5l-1.1-2.5l-1.1,2.5l-1.1-2.5l-1.1,2.5
		l-0.8-1.9c-5.8,13.9-11.4,27.6-20.5,39.2h1h1.8h1.8h1.8h1.8h1.8h1.8h1.8h1.8h1.8h1.8h1.8l-0.9,2.1l-0.9-2.1l-0.9,2.1l-0.9-2.1
		l-0.9,2.1l-0.9-2.1l-0.9,2.1l-0.9-2.1l-0.9,2.1l-0.9-2.1l-0.9,2.1l-0.9-2.1l-0.9,2.1l-0.9-2.1l-0.9,2.1l-0.9-2.1l-0.9,2.1l-0.9-2.1
		l-0.9,2.1l-0.9-2.1l-0.9,2.1l-0.9-2.1l-0.9,2.1L92.3,86c-0.8,0.9-1.5,1.8-2.3,2.7H112l11.2-26.4l11.2,26.4h23
		C156.4,87.9,155.4,87.1,154.5,86.2z"/>
	<path class="st0" d="M119.5,45.5h2.1h2.1h2.1h2.1h2.1h2.1h0.9c-2.8-7.1-5.6-14.1-9-20.4h0.2c0.2,0,0.4-0.2,0.4-0.5
		c0-0.2-0.1-0.3-0.2-0.4c0.1-0.1,0.2-0.2,0.2-0.4c0-0.3-0.2-0.5-0.4-0.5h0l1.6-3.9h-1.2L124,22l-0.1-2.6H121l1.6,3.9h0
		c-0.2,0-0.4,0.2-0.4,0.5c0,0.2,0.1,0.4,0.2,0.4c-0.1,0.1-0.2,0.2-0.2,0.4c0,0.3,0.2,0.5,0.4,0.5h0.1c-3.4,6.7-6.3,13.6-9.1,20.4
		h1.6h2.1H119.5z"/>
	<path class="st0" d="M66,86.2l-0.7,1.7l-0.9-2.1l-0.9,2.1l-0.9-2.1l-0.9,2.1l-0.9-2.1L60,87.9l-0.9-2.1l-0.9,2.1l-0.9-2.1l-0.9,2.1
		l-0.9-2.1l-0.9,2.1l-0.9-2.1l-0.9,2.1L52,85.8l-0.9,2.1l-0.9-2.1l-0.9,2.1l-0.9-2.1l-0.9,2.1l-0.9-2.1l-0.9,2.1l-0.9-2.1h1.8h1.8
		h1.8H52h1.8h1.8h1.8h1.8h1.8h1.8h1.8h1.1c-9-8.9-14.4-23.9-20.2-38.7l-0.4,1l-1.1-2.5L42.8,48l-1.1-2.5L40.6,48l-1.1-2.5L38.5,48
		l-1.1-2.5L36.3,48l-1.1-2.5L34.2,48l-1.1-2.5L32,48L31,45.5L29.9,48l-1.1-2.5L27.7,48l-1.1-2.5L25.6,48l-0.8-1.9
		C19,60.1,13.4,73.8,4.3,85.3h1H7h1.8h1.8h1.8h1.8h1.8h1.8h1.8h1.8H23h1.8l-0.9,2.1L23,85.3l-0.9,2.1l-0.9-2.1l-0.9,2.1l-0.9-2.1
		l-0.9,2.1l-0.9-2.1l-0.9,2.1l-0.9-2.1L15,87.4l-0.9-2.1l-0.9,2.1l-0.9-2.1l-0.9,2.1l-0.9-2.1l-0.9,2.1l-0.9-2.1l-0.9,2.1L7,85.3
		l-0.9,2.1l-0.9-2.1l-0.9,2.1L3.8,86c-0.8,0.9-1.5,1.8-2.3,2.7h22.1l11.2-26.4L46,88.7h23C67.9,87.9,66.9,87.1,66,86.2z"/>
	<path class="st0" d="M31,45.5h2.1h2.1h2.1h2.1h2.1h2.1h0.9c-2.8-7.1-5.6-14.1-9-20.4h0.2c0.2,0,0.4-0.2,0.4-0.5
		c0-0.2-0.1-0.3-0.2-0.4c0.1-0.1,0.2-0.2,0.2-0.4c0-0.3-0.2-0.5-0.4-0.5h0l1.6-3.9h-1.2L35.5,22l-0.1-2.6h-2.9l1.6,3.9h0
		c-0.2,0-0.4,0.2-0.4,0.5c0,0.2,0.1,0.4,0.2,0.4c-0.1,0.1-0.2,0.2-0.2,0.4c0,0.3,0.2,0.5,0.4,0.5h0.1c-3.4,6.7-6.3,13.6-9.1,20.4
		h1.6h2.1H31z"/>
	<path class="st1" d="M125.7,92.5c-1.2-0.9-2.4-1.9-3.6-3l-0.1-0.1l-0.4-0.4c-9.4-9.3-15.8-24.4-21.1-37.7l-0.3-0.7l-0.4-0.9
		c-0.4-0.9-0.7-1.8-1.1-2.7l-0.2-0.5l-1.9-5h0l-1-2.5L95,37h0l-0.4-1l-1.2-3.2l0,0l-0.3-0.7h0c-0.1-0.4-0.3-0.7-0.4-1.1L92.2,30h0
		l-1.7-4c-2.2-5.1-4.3-9.6-6.3-13.6c0.1-0.4,0.2-0.8,0.2-1.2c0-0.2,0-0.4,0-0.6c0-0.2,0-0.4,0-0.6c0-0.4-0.1-0.8-0.2-1.1l3.2-7.5
		H72.2L75.3,9c-0.1,0.3-0.2,0.7-0.2,1.1c0,0.2,0,0.4,0,0.6c0,0.2,0,0.4,0,0.6c0,0.3,0,0.7,0.1,1c-2,4.1-4.1,8.6-6.4,13.7l-1.7,4h0
		l-0.5,1.1c-0.1,0.1-0.2,0.4-0.3,0.8l0,0L65,35.4c-0.4,0.9-0.7,1.6-0.7,1.6h0l-0.7,1.6c-0.8,1.8-1.5,3.7-2.3,5.5l-0.2,0.6l-0.3,0.6
		c-0.6,1.5-1.3,3.1-2,4.6l-0.4,0.9l-0.1,0.3c-0.9,2.2-1.8,4.2-2.7,6.2l0,0L54,61c-4.2,8.9-8.3,16.2-12.7,22.6L41,83l-0.9,2
		c-0.8,1.1-1.7,2.2-2.5,3.3l-0.8,1c-1.1,1.3-2,2.5-2.9,3.5l-4.3,4.8h37.1l12.7-30l12.7,30h40.5L125.7,92.5z"/>
	<path class="st0" d="M96.4,51.2c-0.4-0.9-0.7-1.8-1.1-2.7c0,0.2-0.1,0.4-0.1,0.6C95.2,49.9,95.7,50.7,96.4,51.2z"/>
	<path class="st0" d="M89.2,32.8H68.6c-0.3,0.6-0.5,1.3-0.8,1.9h22.1C89.7,34.1,89.4,33.4,89.2,32.8z"/>
	<path class="st0" d="M87.1,27.7c-2.2-5.3-4.6-10.4-7.2-15.2h0.3c0.3,0,0.6-0.3,0.6-0.7c0-0.2-0.1-0.5-0.3-0.6
		c0.2-0.1,0.3-0.3,0.3-0.6c0-0.4-0.2-0.7-0.6-0.7h0l2.1-5h-1.5l-1.1,3.4L79.5,5h-3.8l2.1,5h0c-0.3,0-0.6,0.3-0.6,0.7
		c0,0.2,0.1,0.5,0.3,0.6c-0.2,0.1-0.3,0.3-0.3,0.6c0,0.4,0.3,0.7,0.6,0.7h0.1c-2.5,5-4.9,10.1-7.1,15.2H87.1z"/>
	<path class="st0" d="M73.7,39.1h2.8h2.8h2.8h2.8h2.8h2.8h1.2c-0.4-1.1-0.9-2.3-1.3-3.4H67.4c-0.5,1.1-1,2.3-1.4,3.4h2.1h2.8H73.7z"
		/>
	<path class="st0" d="M87.6,49.9c0.5,0,0.8-0.4,0.8-0.8s-0.4-0.8-0.8-0.8c-0.5,0-0.8,0.4-0.8,0.8S87.1,49.9,87.6,49.9z"/>
	<path class="st0" d="M63.6,49c0-0.8-0.4-1.6-1-2c-0.6,1.6-1.3,3.1-2,4.6c0.1,0,0.2,0,0.3,0C62.5,51.7,63.6,50.5,63.6,49z"/>
	<path class="st0" d="M119.3,92.1l-0.9,2.2l-1.2-2.7l-1.2,2.7l-1.2-2.7l-1.2,2.7l-1.2-2.7l-1.2,2.7l-1.2-2.7l-1.2,2.7l-1.2-2.7
		l-1.2,2.7l-1.2-2.7l-1.2,2.7l-1.2-2.7l-1.2,2.7l-1.2-2.7l-1.2,2.7l-1.2-2.7l-1.2,2.7l-1.2-2.7l-1.2,2.7l-1.2-2.7l-1.2,2.7l-1.2-2.7
		h2.3h2.3h2.3h2.3h2.3h2.3h2.3h2.3h2.3h2.3h2.3h1.5C109.4,82.3,103,68,97,52.8c-1.7-0.4-3-1.9-3-3.8c0-0.8,0.3-1.6,0.7-2.2
		c-0.7-1.9-1.5-3.9-2.2-5.8l-0.6,1.3l-1.4-3.3l-1.4,3.3l-1.4-3.3l-1.4,3.3l-1.4-3.3l-1.4,3.3l-1.4-3.3l-1.4,3.3l-1.4-3.3l-1.4,3.3
		l-1.4-3.3l-1.4,3.3l-1.4-3.3l-1.4,3.3l-1.4-3.3l-1.4,3.3l-1.4-3.3l-1.4,3.3l-1-2.5c-0.8,2-1.6,4-2.5,5.9c1,0.7,1.7,1.9,1.7,3.2
		c0,2.1-1.7,3.9-3.9,3.9c-0.3,0-0.6,0-0.8-0.1c-0.9,2.1-1.8,4.2-2.8,6.3c0.3-0.3,0.7-0.5,1.2-0.7c0.2-0.1,0.4,0,0.5,0.1
		c0.1,0.1,0.1,0.3-0.1,0.5c-1.2,1.1-1.7,2.1-1.6,2.8c0.1,0.8,1,1.2,1.7,1.5c0.1,0,0.3,0,0.4,0c0.7,0,1.4,0.1,1.8,0.7l0.2,0.1
		c0,0,0,0,0.1,0l0.1-0.1c0.1,0,0.2-0.1,0.3-0.1c0.2-0.1,0.5-0.2,0.8-0.2c0.1,0,0.2,0,0.3,0c0.1,0,0.1,0,0.2,0c0,0,0,0,0.1,0
		c0.3,0,0.5,0.2,0.7,0.3c0,0,0.1,0.1,0.1,0.1l0.3,0c0.5-0.4,1-0.4,1.4-0.4c0.2,0,0.5,0,0.7,0c0.1,0,0.3,0,0.4,0
		c1.6-0.3,2.7-0.9,3.3-1.8c0.4-0.7,0.5-1.5,0.2-2.4c0-0.2,0-0.3,0.2-0.4c0.1-0.1,0.3-0.1,0.4,0c0.6,0.6,0.9,1.3,0.8,2.2
		c-0.1,1.4-1.3,2.9-1.9,3.2c-1.9,1.1-3.5,1.4-4.9,1.5c0,0,0,0,0,0c0.2,0.3,0.1,0.6-0.1,0.8c0,0.1-0.1,0.1-0.1,0.2
		c-0.1,0.2-0.2,0.4-0.4,0.6c-0.1,0.1-0.2,0.1-0.3,0.2c-0.4,0.2-0.9,0.4-1.1,1c0,0.4-0.2,0.6-0.7,0.8c-0.2,0.3-0.3,0.6-0.4,0.9
		c-0.2,0.6-0.4,1-0.9,1.3L61,72.1c-0.2,0.3-0.4,0.4-0.6,0.4c-0.1,0-0.1,0-0.2,0c-0.1,0-0.1,0-0.2,0c0,0-0.1,0-0.1,0l-0.1,0l0,0
		c0.4-0.3,0.4-0.4,0.3-0.6c0,0,0-0.1-0.1-0.1c0,0-0.1,0.1-0.2,0.1c-0.2,0.2-0.4,0.3-0.2,0.6l0,0l0,0c-0.1,0-0.2,0-0.2,0
		c-0.2,0-0.3,0-0.4-0.1c-0.1-0.1-0.1-0.2-0.1-0.3l0,0l0.2-0.4c-0.3-0.3-0.2-0.7,0-1.3c0.1-0.2,0.2-0.5,0.3-0.9
		c-0.1-0.1-0.2-0.2-0.2-0.3c0-0.1,0-0.3,0.2-0.5c0.3-0.6-0.1-0.9-0.3-1.1c-0.1-0.1-0.2-0.1-0.2-0.2c-0.1-0.2,0-0.4,0-0.6
		c0-0.1,0-0.1,0.1-0.2c0.1-0.3,0.1-0.5,0.4-0.7c0,0,0,0,0,0c-1.1-0.3-2.5-0.8-3.5-2.1c-0.1-0.2-0.2-0.5-0.2-0.8
		c-4.7,10-10,19.5-16.8,28.2h1.3h2.3h2.3h2.3h2.3h2.3h2.3h2.3h2.3H61h2.3h2.3l-1.2,2.7l-1.2-2.7l-1.2,2.7L61,90.9l-1.2,2.7l-1.2-2.7
		l-1.2,2.7l-1.2-2.7l-1.2,2.7l-1.2-2.7l-1.2,2.7l-1.2-2.7l-1.2,2.7l-1.2-2.7l-1.2,2.7l-1.2-2.7L46,93.7l-1.2-2.7l-1.2,2.7l-1.2-2.7
		l-1.2,2.7l-1.2-2.7L39,93.7l-0.8-1.9c-1,1.2-2,2.4-3,3.6h28.8l13.9-32.8h-0.4c-0.3,0-0.6-0.3-0.6-0.7c0-0.2,0.1-0.5,0.3-0.6
		c-0.2-0.1-0.3-0.3-0.3-0.6c0-0.4,0.2-0.7,0.6-0.7h2.4c0.3,0,0.6,0.3,0.6,0.7c0,0.2-0.1,0.5-0.3,0.6c0.2,0.1,0.3,0.3,0.3,0.6
		c0,0.4-0.2,0.7-0.6,0.7h-0.5l13.9,32.8h29.9C121.8,94.4,120.6,93.3,119.3,92.1z M68.7,51.1c-1.1,0-2.1-0.9-2.1-2.1
		c0-1.1,0.9-2.1,2.1-2.1c1.1,0,2.1,0.9,2.1,2.1C70.8,50.2,69.9,51.1,68.7,51.1z M78.6,52.9c-2.1,0-3.9-1.7-3.9-3.9
		c0-2.1,1.7-3.9,3.9-3.9c2.1,0,3.9,1.7,3.9,3.9C82.5,51.2,80.7,52.9,78.6,52.9z M87.6,47c1.1,0,2.1,0.9,2.1,2.1
		c0,1.1-0.9,2.1-2.1,2.1c-1.1,0-2.1-0.9-2.1-2.1C85.5,47.9,86.4,47,87.6,47z M91.2,67.1c0-0.1-0.1-0.1-0.1-0.2
		c-0.1-0.3-0.3-0.5-0.1-0.8c0,0,0,0-0.1,0c-1.3-0.1-3-0.4-4.9-1.5c-0.6-0.4-1.8-1.8-1.9-3.2c-0.1-0.9,0.2-1.6,0.8-2.2
		c0.1-0.1,0.3-0.1,0.4,0c0.1,0.1,0.2,0.2,0.2,0.4c-0.3,0.9-0.2,1.7,0.2,2.4c0.5,0.9,1.7,1.5,3.3,1.8c0.1,0,0.3,0,0.4,0
		c0.2,0,0.5,0,0.7,0c0.3,0,0.9,0,1.4,0.4l0.3,0c0,0,0.1,0,0.1-0.1c0.2-0.1,0.4-0.2,0.7-0.3c0.1,0,0.2,0,0.2,0c0.1,0,0.2,0,0.3,0
		c0.3,0,0.5,0.1,0.8,0.2c0.1,0,0.2,0.1,0.3,0.1l0,0l0,0l0.1,0.1c0,0,0,0,0.1,0l0.2-0.1c0.4-0.6,1.1-0.6,1.8-0.7c0.1,0,0.3,0,0.4,0
		c0.7-0.3,1.5-0.7,1.7-1.5C98.7,61,98.2,60,97,59c-0.1-0.1-0.2-0.3-0.1-0.5c0.1-0.1,0.3-0.2,0.4-0.1c1.9,0.9,2.6,2.3,2.8,3.1
		c0.2,0.8,0.2,1.7-0.1,2.1c-1,1.3-2.4,1.8-3.5,2.1c0,0,0,0,0,0c0.3,0.3,0.4,0.5,0.4,0.7c0,0.1,0,0.1,0.1,0.2c0.1,0.2,0.1,0.4,0,0.6
		c0,0.1-0.1,0.1-0.2,0.2c-0.3,0.2-0.6,0.5-0.3,1.1c0.1,0.2,0.2,0.4,0.2,0.5c0,0.1-0.1,0.2-0.2,0.3c0.1,0.3,0.2,0.6,0.3,0.9
		c0.2,0.6,0.3,1,0,1.3l0.2,0.4c0,0.1,0,0.2-0.1,0.3c-0.1,0.1-0.3,0.1-0.4,0.1c-0.1,0-0.2,0-0.2,0l0,0l0,0c0.2-0.3,0.1-0.4-0.2-0.6
		c-0.1,0-0.1-0.1-0.2-0.1c0,0,0,0.1-0.1,0.1c-0.1,0.2-0.1,0.3,0.3,0.6l0,0l-0.1,0c0,0,0,0-0.1,0c-0.1,0-0.1,0-0.2,0
		c-0.1,0-0.1,0-0.2,0c-0.2,0-0.4,0-0.6-0.4l0,0L95,71.7c-0.5-0.3-0.7-0.7-0.9-1.3c-0.1-0.3-0.2-0.5-0.4-0.9
		c-0.4-0.2-0.7-0.4-0.7-0.8c-0.2-0.6-0.7-0.8-1.1-1c-0.1-0.1-0.3-0.1-0.3-0.2C91.3,67.5,91.2,67.3,91.2,67.1z"/>
	<path class="st0" d="M78.6,46.4c-1.4,0-2.6,1.2-2.6,2.6c0,1.4,1.2,2.6,2.6,2.6c1.4,0,2.6-1.2,2.6-2.6C81.2,47.6,80,46.4,78.6,46.4z
		"/>
	<path class="st0" d="M68.7,48.2c-0.5,0-0.8,0.4-0.8,0.8s0.4,0.8,0.8,0.8s0.8-0.4,0.8-0.8S69.2,48.2,68.7,48.2z"/>
</g>
</svg>
