<?xml version="1.0" encoding="utf-8"?>
<!-- Generator: Adobe Illustrator 23.0.1, SVG Export Plug-In . SVG Version: 6.00 Build 0)  -->
<svg version="1.1" id="Ebene_1" xmlns="http://www.w3.org/2000/svg" xmlns:xlink="http://www.w3.org/1999/xlink" x="0px" y="0px"
	 viewBox="0 0 372.6 337.3" style="enable-background:new 0 0 372.6 337.3;" xml:space="preserve">
<style type="text/css">
	.st0{stroke:#000000;stroke-width:3;stroke-miterlimit:10;}
</style>
<g>
	<path class="st0" d="M267.7,68.9c13.5-1,32.3-3.9,56.2-8.6c24-4.7,37.7-8.3,41.4-10.9c3.6-2.6,2.3-5.7-3.9-9.4
		c-6.2-3.6-15.4-3.9-27.3-0.8c-12,3.1-27.6,6.8-46.9,10.9c-19.3,4.2-37,7-53.1,8.6c-16.2,1.6-19.5,4.4-10.2,8.6
		c9.4,4.2,19.8,5.7,31.2,4.7c1,13.5-1.6,28.7-7.8,45.3c-8.3-1-14.6-1.6-18.8-1.6c-4.2,0-5.2,1.6-3.1,4.7c2.1,3.1,3.9,9.4,5.5,18.8
		s1.8,22.9,0.8,40.6c-1,17.7-2.3,33.3-3.9,46.9c-1.6,13.5-0.3,23.7,3.9,30.5c4.2,6.8,7.3,3.4,9.4-10.2c19.8-2.1,45.8-3.6,78.1-4.7
		c6.2,16.7,10.9,25.5,14.1,26.6c3.1,1,6-3.6,8.6-14.1c2.6-10.4,3.4-22.1,2.3-35.2c-1-13-2.1-31-3.1-53.9c-1-22.9,0.5-37,4.7-42.2
		c4.2-5.2,3.9-9.9-0.8-14.1c-4.7-4.2-10.9-7.5-18.8-10.2c-7.8-2.6-14.8-1.6-21.1,3.1c-6.2,4.7-21.4,9.1-45.3,13.3
		c7.3-14.6,12.7-24.7,16.4-30.5C279.9,79.6,277,74.1,267.7,68.9L267.7,68.9L267.7,68.9z M161.4,157.9c-17.7,4.2-30.7,6.8-39.1,7.8
		c-8.3,1-10.7,2.9-7,5.5c3.6,2.6,7.5,4.4,11.7,5.5c1,21.9,1.6,34.9,1.6,39.1c0,4.2-0.5,16.7-1.6,37.5c-6.2,2.1-11.5,3.4-15.6,3.9
		c-4.2,0.5-3.4,2.3,2.3,5.5c5.7,3.1,11.5,3.9,17.2,2.3c5.7-1.6,16.9-3.9,33.6-7c-1,20.8-2.3,35.7-3.9,44.5c-1.6,8.9,0.2,17.2,5.5,25
		c5.2,7.8,8.3,6.5,9.4-3.9c1-10.4,1.6-19.8,1.6-28.1c0-9.4,0.5-22.9,1.6-40.6c11.5-2.1,21.1-3.6,28.9-4.7c7.8-1,9.9-3.4,6.2-7
		c-3.7-3.6-7.6-5.5-11.7-5.5c-4.2,0-12,1.6-23.4,4.7c0-37.5,0.8-57.5,2.3-60.2c1.6-2.6,0.2-7-3.9-13.3c25-4.2,36.5-8.1,34.4-11.7
		c-2.1-3.6-5.5-5.7-10.2-6.2c-4.7-0.5-15.9,1.3-33.6,5.5c2.1-10.4,3.1-21.3,3.1-32.8c13.5-3.1,23.7-5.2,30.5-6.2
		c6.8-1,8.6-3.4,5.5-7c-3.1-3.6-8.3-4.7-15.6-3.1c-7.3,1.6-14.1,2.9-20.3,3.9c0-40.6,1-63.5,3.1-68.8c2.1-5.2-1.6-10.4-10.9-15.6
		c19.8-5.2,31-9.1,33.6-11.7c2.6-2.6,1.3-5.5-3.9-8.6c-5.2-3.1-12-3.4-20.3-0.8c-8.3,2.6-22.4,6.5-42.2,11.7
		c-19.8,5.2-33.6,8.3-41.4,9.4c-7.8,1-12.3,2.6-13.3,4.7c-1,2.1,5.2,4.2,18.8,6.2c4.2,22.9,5.7,52.1,4.7,87.5
		c-30.2,5.2-49.5,7.3-57.8,6.2c-8.3-1-8.6,2.1-0.8,9.4c7.8,7.3,14.8,9.6,21.1,7c6.2-2.6,17.4-5.7,33.6-9.4
		c16.1-3.6,36.2-7.5,60.2-11.7C154.1,142.3,156.2,152.7,161.4,157.9L161.4,157.9L161.4,157.9z M245.8,126.7
		c37.5-6.2,58.8-8.8,64.1-7.8c5.2,1,8.6,8.3,10.2,21.9c1.6,13.5,2.3,30.2,2.3,50v35.9c0,4.2-1.8,5.5-5.5,3.9
		c-3.7-1.6-10.7-2.1-21.1-1.6c-10.4,0.5-28.7,3.4-54.7,8.6l1.6-32.8c15.6,0,28.1-0.5,37.5-1.6c9.4-1,15.9-2.6,19.5-4.7
		c3.6-2.1,3.9-4.7,0.8-7.8s-9.9-3.4-20.3-0.8c-10.4,2.6-22.9,5-37.5,7l1.6-26.6c14.6,0,27.6-1.3,39.1-3.9
		c11.5-2.6,16.9-5.5,16.4-8.6c-0.5-3.1-3.1-4.9-7.8-5.5c-4.7-0.5-12,0.8-21.9,3.9c-9.9,3.1-18,4.7-24.2,4.7V126.7L245.8,126.7z
		 M94.2,178.3c7.3-2.1,12.5-4.2,15.6-6.2c3.1-2.1,3.1-4.9,0-8.6c-3.1-3.6-13.8-2.3-32,3.9c-18.2,6.2-33.1,10.2-44.5,11.7
		c-11.5,1.6-7.8,6,10.9,13.3c1,20.8,1.6,34.9,1.6,42.2v29.7c-14.6,4.2-26,6.2-34.4,6.2c-7.3,0-9.1,2.1-5.5,6.2
		c3.6,4.2,7.5,7.6,11.7,10.2c4.2,2.6,9.9,2.1,17.2-1.6c7.3-3.6,24.5-10.7,51.6-21.1c-1,27.1,0,43.7,3.1,50s5.5,2.1,7-12.5
		s2.3-28.6,2.3-42.2c11.5-4.2,16.9-7.5,16.4-10.2c-0.5-2.6-6-2.3-16.4,0.8c0-35.4,0.5-54.9,1.6-58.6
		C101.5,187.9,99.4,183.5,94.2,178.3L94.2,178.3L94.2,178.3z M113,57.9c0-11.5-0.8-18-2.3-19.5c-1.6-1.6-1.3-2.3,0.8-2.3
		c3.1,0,10.7-1.3,22.7-3.9c12-2.6,18.5-2.9,19.5-0.8c1,2.1,1.8,6.2,2.3,12.5c0.5,6.2,0.8,29.7,0.8,70.3l-45.3,7.8v-20.3
		c20.8-2.1,31.8-4.7,32.8-7.8c1-3.1,0-5.5-3.1-7c-3.1-1.6-13,0.3-29.7,5.5l1.6-23.4c17.7,0,28.1-2.1,31.2-6.2
		c3.1-4.2,3.4-6.8,0.8-7.8C142.4,53.8,131.7,54.8,113,57.9L113,57.9L113,57.9z M58.3,207.9c0-13.5-0.5-20.3-1.6-20.3
		c0-1,1.6-1.6,4.7-1.6c4.2-1,10.4-2.6,18.8-4.7c2.1,3.1,3.6,9.9,4.7,20.3c1,10.4,1.6,27.6,1.6,51.6l-29.7,7.8l1.6-18.7
		c9.4-2.1,14.8-4.9,16.4-8.6c1.6-3.6,0.2-5.5-3.9-5.5c-3.1,0-7.3,1.6-12.5,4.7v-17.2c7.3,0,12.7-1.3,16.4-3.9
		c3.6-2.6,4.4-4.7,2.3-6.2C74.9,204,68.7,204.8,58.3,207.9L58.3,207.9L58.3,207.9z M298.9,265.8c-8.3-3.1-7,2.1,3.9,15.6
		c10.9,13.5,21.3,26.6,31.2,39.1c9.9,12.5,15.6,13.3,17.2,2.3s0.2-19.3-3.9-25c-4.2-5.7-10.9-11.7-20.3-18
		C317.7,273.6,308.3,268.9,298.9,265.8L298.9,265.8L298.9,265.8z M259.8,261.1c-9.4-7.3-14.1-7.8-14.1-1.6c0,5.2-6,14.1-18,26.6
		c-12,12.5-23.2,22.1-33.6,28.9c-10.4,6.8-9.9,8.6,1.6,5.5c11.5-3.1,21.9-8.1,31.2-14.8c9.4-6.8,17.7-13,25-18.8
		c7.3-5.7,13-9.9,17.2-12.5C273.4,271.8,270.2,267.3,259.8,261.1L259.8,261.1L259.8,261.1z M131.7,176.7c6.2-1,16.7-2.6,31.2-4.7
		c1,12.5,1.6,27.6,1.6,45.3c-5.2,0-13.5,0.5-25,1.6l1.6-18.8c8.3,0,14.1-1.6,17.2-4.7s2.3-5.2-2.3-6.2c-4.7-1-9.6-0.5-14.8,1.6
		C140,185.6,136.9,180.9,131.7,176.7L131.7,176.7L131.7,176.7z M139.5,226.7c7.3,2.1,15.6,1,25-3.1v21.9
		c-10.4,2.1-19.3,4.2-26.6,6.2C138,246.5,138.5,238.2,139.5,226.7L139.5,226.7L139.5,226.7z"/>
</g>
</svg>
