<?xml version="1.0" encoding="utf-8"?>
<!-- Generator: Adobe Illustrator 23.0.1, SVG Export Plug-In . SVG Version: 6.00 Build 0)  -->
<svg version="1.1" id="Ebene_1" xmlns="http://www.w3.org/2000/svg" xmlns:xlink="http://www.w3.org/1999/xlink" x="0px" y="0px"
	 viewBox="0 0 783.9 336" style="enable-background:new 0 0 783.9 336;" xml:space="preserve">
<style type="text/css">
	.st0{stroke:#000000;stroke-width:3;stroke-miterlimit:10;}
</style>
<g>
	<path class="st0" d="M274.3,69.3c8.3-16.7,16.9-27.1,25.8-31.2c8.8-4.2,10.2-9.1,3.9-14.8c-6.2-5.7-14.1-10.4-23.4-14.1
		C271.2,5.5,264.7,5,261,7.6c-3.7,2.6-12.3,6.2-25.8,10.9c-13.6,4.7-30.5,8.3-50.8,10.9c-20.3,2.6-33.9,3.1-40.6,1.6
		c-6.8-1.6-13.8-3.1-21.1-4.7c-7.3-1.6-9.1,1.8-5.5,10.2c3.6,8.3,3.6,25.8,0,52.3c-3.7,26.6-10.9,54.7-21.9,84.4
		s-23.2,56.5-36.7,80.5c-13.6,24-27.6,44.5-42.2,61.7c-14.6,17.2-14.1,20.3,1.6,9.4s32.3-28.1,50-51.6
		c17.7-23.4,32.8-51.3,45.3-83.6c12.5-32.3,21.3-61.5,26.6-87.5c12.5,2.1,27.6,1.6,45.3-1.6c17.7-3.1,34.1-6,49.2-8.6
		c15.1-2.6,27.6-4.7,37.5-6.2c9.9-1.6,13.8-3.9,11.7-7C281.6,75.6,278.5,72.5,274.3,69.3L274.3,69.3L274.3,69.3z M233.7,281.8
		c1-31.2,2.1-58.8,3.1-82.8c15.6-3.1,34.9-6.8,57.8-10.9c1,18.8,4.4,25.8,10.2,21.1c5.7-4.7,10.2-14.8,13.3-30.5s6.8-26.3,10.9-32
		c4.2-5.7-1.6-12.7-17.2-21.1c-15.6-8.3-21.1-6.5-16.4,5.5c4.7,12,4.4,27.3-0.8,46.1c-32.3,4.2-51.6,6.8-57.8,7.8
		c2.1-29.2,4.4-47.7,7-55.5c2.6-7.8-4.2-14.8-20.3-21.1c-16.2-6.2-21.6-4.4-16.4,5.5c5.2,9.9,8.3,20.1,9.4,30.5
		c1,10.4,1.6,25.5,1.6,45.3c-17.7,3.1-30.7,5.2-39.1,6.2c-8.4,1-12.5,0.5-12.5-1.6v-12.5c0-5.2,0.5-9.6,1.6-13.3
		c1-3.6-3.9-7.5-14.8-11.7c-10.9-4.2-14.6-3.1-10.9,3.1c3.6,6.2,5.5,13.5,5.5,21.9c0,7.3-1.6,13.3-4.7,18
		c-3.1,4.7-2.6,11.2,1.6,19.5c4.1,8.3,9.6,9.4,16.4,3.1c6.8-6.2,25.8-12.5,57-18.8c-1.1,38.5-1.6,65.1-1.6,79.7
		c-34.4,5.2-53.1,7.8-56.3,7.8c-2.1,0-2.3-3.1-0.8-9.4s3.9-12.5,7-18.8c3.1-6.2-1.1-12-12.5-17.2c-11.5-5.2-15.6-4.2-12.5,3.1
		c3.1,7.3,3.9,16.2,2.3,26.6c-1.6,10.4-5.7,18.2-12.5,23.4c-6.8,5.2-8.6,12.7-5.5,22.7c3.1,9.9,8.3,11.7,15.6,5.5
		c7.3-6.2,17.4-12,30.5-17.2c13-5.2,56-13.5,128.9-25c2.1,13.5,3.9,23.2,5.5,28.9c1.6,5.7,3.6,9.9,6.2,12.5c2.6,2.6,4.9,0,7-7.8
		c2.1-7.8,3.4-16.1,3.9-25c0.5-8.8,1.6-18.5,3.1-28.9c1.6-10.4-5.5-18.5-21.1-24.2c-15.6-5.7-21.4-5.2-17.2,1.6
		c4.1,6.8,7.8,17.5,10.9,32C269.1,278.2,247.2,280.8,233.7,281.8L233.7,281.8L233.7,281.8z M141.5,91.2c2.1-17.7,3.6-33.3,4.7-46.9
		c30.2-3.1,54.2-6.2,71.9-9.4c17.7-3.1,29.1-4.7,34.4-4.7c5.2,0,7.8,2.1,7.8,6.3c0,3.1-0.5,7.8-1.6,14.1c-1.1,6.2-2.6,13.5-4.7,21.9
		c-29.2,6.2-52.9,10.9-71.1,14.1C164.7,89.6,150.9,91.2,141.5,91.2L141.5,91.2L141.5,91.2z M597.8,45.9c26-7.3,43.5-12,52.3-14.1
		c8.8-2.1,13,2.6,12.5,14.1c-0.5,11.5-2.6,20.1-6.2,25.8c-3.7,5.7-12.5,6.5-26.6,2.3c-14.1-4.2-15.6-1.8-4.7,7
		c10.9,8.9,17.4,18,19.5,27.3c2.1,9.4,6.2,12,12.5,7.8c6.2-4.2,11.5-9.9,15.6-17.2c4.2-7.3,6.8-15.1,7.8-23.4
		c1-8.3,3.1-16.1,6.2-23.4c3.1-7.3,7-13,11.7-17.2c4.7-4.2,3.1-8.8-4.7-14.1c-7.8-5.2-14.8-9.1-21.1-11.7
		c-6.2-2.6-12.5-1.3-18.8,3.9c-6.2,5.2-18,10.2-35.2,14.8s-28.4,6.3-33.6,4.7c-5.2-1.6-10.7-2.6-16.4-3.1c-5.7-0.5-6,3.1-0.8,10.9
		c5.2,7.8,8.8,18.2,10.9,31.2c2.1,13,2.9,46.1,2.3,99.2c-0.5,53.1-2.6,85.9-6.2,98.4c-3.7,12.5-4.4,23.4-2.3,32.8
		c2.1,9.4,5.2,17.4,9.4,24.2c4.2,6.8,7.8-0.5,10.9-21.9c3.1-21.3,4.7-66.4,4.7-135.2c9.4,4.2,19.3,4.2,29.7,0
		c10.4-4.2,19.8-7,28.1-8.6c8.3-1.6,12.7,1,13.3,7.8c0.5,6.8-0.5,16.7-3.1,29.7c-2.6,13-5.5,23.7-8.6,32
		c-14.6-17.7-24.2-30.5-28.9-38.3s-11.7-11.7-21.1-11.7c-8.3,0-8.9,3.1-1.6,9.4c7.3,6.2,13.5,13.3,18.8,21.1
		c5.2,7.8,12.5,19.5,21.9,35.2c-10.4,12.5-22.7,21.9-36.7,28.1s-14.1,9.1,0,8.6c14.1-0.5,30.5-7.5,49.2-21.1
		c19.8,25,32.8,40.1,39.1,45.3s18.5,6.2,36.7,3.1c18.2-3.1,31-5.5,38.3-7c7.3-1.6,3.9-3.9-10.2-7s-29.7-9.1-46.9-18
		c-17.2-8.8-31.5-19-43-30.5c6.2-15.6,11.2-32,14.8-49.2c3.6-17.2,7.3-28.4,10.9-33.6c3.6-5.2,2.9-9.9-2.3-14.1
		c-5.2-4.2-11.2-8.1-18-11.7c-6.8-3.6-12-3.1-15.6,1.6c-3.7,4.7-11.7,9.1-24.2,13.3c-12.5,4.2-26,7.3-40.6,9.4V45.9L597.8,45.9z
		 M472.8,49c14.6-3.1,24.7-5.2,30.5-6.2c5.7-1,8.8,0,9.4,3.1c0.5,3.1,1.3,22.9,2.3,59.4c1,36.5,1,72.4,0,107.8
		c-1,35.4-3.9,52.6-8.6,51.6c-4.7-1-12.3-3.4-22.7-7c-10.4-3.6-10.7-0.8-0.8,8.6c9.9,9.4,16.9,20.1,21.1,32
		c4.2,12,9.1,14.6,14.8,7.8c5.7-6.8,10.2-14.8,13.3-24.2s3.9-33.1,2.3-71.1c-1.6-38-2.1-69.5-1.6-94.5c0.5-25,1.6-41.7,3.1-50
		c1.6-8.3,4.4-14.6,8.6-18.7c4.2-4.2,3.6-8.3-1.6-12.5c-5.2-4.2-11.2-8.1-18-11.7c-6.8-3.6-12.5-3.1-17.2,1.6s-12.3,8.1-22.7,10.2
		c-10.4,2.1-17.7,2.3-21.9,0.8c-4.2-1.6-9.6-3.1-16.4-4.7c-6.8-1.6-7,2.1-0.8,10.9c6.2,8.9,9.4,28.9,9.4,60.2s-1,57.3-3.1,78.1
		c-2.1,20.8-6.5,41.4-13.3,61.7c-6.8,20.3-16.9,39.8-30.5,58.6c-13.5,18.8-12.8,21.9,2.3,9.4c15.1-12.5,27.6-27.9,37.5-46.1
		c9.9-18.2,17.4-45.6,22.7-82c9.4,1,18,0.3,25.8-2.3c7.8-2.6,9.9-6,6.2-10.2c-3.7-4.2-8.3-5.7-14.1-4.7c-5.7,1-11.7,2.1-18,3.1
		l1.6-45.3c9.4-1,17.7-2.6,25-4.7c7.3-2.1,9.4-5.5,6.2-10.2s-7.8-6-14.1-3.9c-6.2,2.1-12,3.7-17.2,4.7V49L472.8,49z"/>
</g>
</svg>
